SplineFontDB: 3.2
FontName: BibleRomanCondensedBold
FullName: Bible Roman Condensed Bold
FamilyName: Bible Roman Condensed
Weight: Bold
Copyright: 2002, Fredrick Nader. All rights reserved. apostrophe@apostrophiclab.com
Version: 1.0; December 2002
ItalicAngle: 0
UnderlinePosition: -150
UnderlineWidth: 40
Ascent: 819
Descent: 205
InvalidEm: 0
sfntRevision: 0x00010000
LayerCount: 2
Layer: 0 1 "Hinten" 1
Layer: 1 1 "Vorne" 0
XUID: [1021 256 -1967491057 19418]
StyleMap: 0x0040
FSType: 0
OS2Version: 2
OS2_WeightWidthSlopeOnly: 0
OS2_UseTypoMetrics: 0
CreationTime: 1039457615
ModificationTime: 1771251320
PfmFamily: 17
TTFWeight: 400
TTFWidth: 2
LineGap: 28
VLineGap: 0
Panose: 2 2 5 0 6 4 11 2 4 3
OS2TypoAscent: 816
OS2TypoAOffset: 0
OS2TypoDescent: -281
OS2TypoDOffset: 0
OS2TypoLinegap: 54
OS2WinAscent: 1026
OS2WinAOffset: 0
OS2WinDescent: 298
OS2WinDOffset: 0
HheadAscent: 1026
HheadAOffset: 0
HheadDescent: -298
HheadDOffset: 0
OS2SubXSize: 717
OS2SubYSize: 666
OS2SubXOff: 0
OS2SubYOff: 143
OS2SupXSize: 717
OS2SupYSize: 666
OS2SupXOff: 0
OS2SupYOff: 488
OS2StrikeYSize: 51
OS2StrikeYPos: 256
OS2FamilyClass: 258
OS2Vendor: 'APOS'
OS2CodePages: 20000111.00000000
OS2UnicodeRanges: 80000027.4000004a.00000000.00000000
Lookup: 1 0 0 "'smcp' Gemeine in Kapit+AOQA-lchen in Lateinisch Nachschlagetabelle 0" { "'smcp' Gemeine in Kapit+AOQA-lchen in Lateinisch Nachschlagetabelle 0 Subtabelle"  } ['smcp' ('latn' <'dflt' > ) ]
Lookup: 1 0 0 "'c2sc' Versalien in Kapit+AOQA-lchen in Lateinisch Nachschlagetabelle 0" { "'c2sc' Versalien in Kapit+AOQA-lchen in Lateinisch Nachschlagetabelle 0 Subtabelle"  } ['c2sc' ('latn' <'dflt' > ) ]
Lookup: 258 0 0 "'kern' Horizontale Unterschneidung in Lateinisch Nachschlagetabelle 0" { "'kern' Horizontale Unterschneidung in Lateinisch Nachschlagetabelle 0 Subtabelle"  } ['kern' ('DFLT' <'dflt' > 'latn' <'dflt' > ) ]
MarkAttachClasses: 1
DEI: 91125
ShortTable: maxp 16
  1
  0
  248
  235
  7
  0
  0
  1
  0
  0
  0
  0
  0
  0
  0
  0
EndShort

StartChar: breve
Encoding: 5 5 4
Width: 316
Flags: W
LayerCount: 2
Fore
SplineSet
81.83984375 689 m 1,0,-1
 113.51953125 689 l 1,1,-1
 128.799804688 689 l 1,2,-1
 129.970703125 665.940429688 l 2,3,4
 131.010742188 645.450195312 131.010742188 645.450195312 140.201171875 629.327148438 c 0,5,6
 149.491210938 613.028320312 149.491210938 613.028320312 159.590820312 611.935546875 c 2,7,-1
 162.848632812 611.583007812 l 1,8,-1
 163.581054688 611.028320312 l 1,9,10
 178.44140625 611.71484375 178.44140625 611.71484375 188.315429688 626.673828125 c 0,11,12
 199.98046875 644.348632812 199.98046875 644.348632812 199.98046875 664 c 2,13,-1
 199.98046875 689 l 1,14,-1
 216.48046875 689 l 1,15,-1
 244.200195312 689 l 1,16,-1
 260.700195312 689 l 1,17,-1
 260.700195312 664 l 2,18,19
 260.700195312 631.2109375 260.700195312 631.2109375 251.973632812 604.166992188 c 0,20,21
 243.248046875 577.122070312 243.248046875 577.122070312 229.520507812 556.91796875 c 0,22,23
 215.79296875 536.712890625 215.79296875 536.712890625 197.688476562 525.3828125 c 0,24,25
 179.5 514 179.5 514 159.719726562 514 c 0,26,27
 155.143554688 514 155.143554688 514 149.666015625 516.224609375 c 0,28,29
 133.344726562 518.202148438 133.344726562 518.202148438 118.3125 531.98828125 c 0,30,31
 103.279296875 545.7734375 103.279296875 545.7734375 91.716796875 566.797851562 c 0,32,33
 80.1533203125 587.821289062 80.1533203125 587.821289062 73.1572265625 612.556640625 c 0,34,35
 66.16015625 637.291992188 66.16015625 637.291992188 65.359375 662.79296875 c 2,36,-1
 64.53515625 689 l 1,37,-1
 81.83984375 689 l 1,0,-1
EndSplineSet
Validated: 524289
EndChar

StartChar: dotaccent
Encoding: 6 6 5
Width: 306
Flags: W
LayerCount: 2
Fore
SplineSet
106.259765625 641 m 0,0,1
 106.259765625 675.153320312 106.259765625 675.153320312 123.240234375 701.577148438 c 0,2,3
 140.220703125 728 140.220703125 728 163.763671875 728 c 0,4,5
 187.305664062 728 187.305664062 728 205.852539062 701.954101562 c 0,6,7
 224.400390625 675.909179688 224.400390625 675.909179688 224.400390625 637.6875 c 0,8,9
 224.400390625 599.465820312 224.400390625 599.465820312 206.303710938 572.732421875 c 0,10,11
 188.208007812 546 188.208007812 546 163.6796875 546 c 0,12,13
 159.330078125 546 159.330078125 546 155.690429688 547.725585938 c 0,14,15
 145.953125 550.1953125 145.953125 550.1953125 136.944335938 559.294921875 c 0,16,17
 119.47265625 576.942382812 119.47265625 576.942382812 110.822265625 608.401367188 c 0,18,19
 106.259765625 624.990234375 106.259765625 624.990234375 106.259765625 641 c 0,0,1
EndSplineSet
Validated: 524289
EndChar

StartChar: ring
Encoding: 8 8 6
Width: 312
Flags: W
LayerCount: 2
Fore
SplineSet
162.018554688 599.052734375 m 1,0,1
 171.145507812 599.66015625 171.145507812 599.66015625 177.642578125 609.504882812 c 0,2,3
 184.139648438 619.348632812 184.139648438 619.348632812 184.139648438 634.696289062 c 0,4,5
 184.139648438 650.043945312 184.139648438 650.043945312 176.631835938 660.522460938 c 0,6,7
 169.124023438 671 169.124023438 671 160.319335938 671 c 0,8,9
 151.514648438 671 151.514648438 671 145.387695312 661.434570312 c 0,10,11
 139.259765625 651.869140625 139.259765625 651.869140625 139.259765625 639 c 0,12,13
 139.259765625 633.926757812 139.259765625 633.926757812 141.19140625 626.771484375 c 0,14,15
 145.280273438 611.629882812 145.280273438 611.629882812 153.015625 603.81640625 c 0,16,17
 156.124023438 600.676757812 156.124023438 600.676757812 162.018554688 599.052734375 c 1,0,1
238.919921875 635 m 0,18,19
 238.919921875 609.859375 238.919921875 609.859375 232.643554688 587.669921875 c 0,20,21
 226.377929688 565.51953125 226.377929688 565.51953125 215.137695312 549.119140625 c 0,22,23
 203.896484375 532.71875 203.896484375 532.71875 189.072265625 523.359375 c 0,24,25
 174.247070312 514 174.247070312 514 158.400390625 514 c 0,26,27
 152.258789062 514 152.258789062 514 147.916992188 516.55078125 c 0,28,29
 134.99609375 519.033203125 134.99609375 519.033203125 122.877929688 530.662109375 c 0,30,31
 110.758789062 542.291992188 110.758789062 542.291992188 101.879882812 560.025390625 c 0,32,33
 93.0009765625 577.758789062 93.0009765625 577.758789062 87.7509765625 598.565429688 c 0,34,35
 82.5 619.37109375 82.5 619.37109375 82.5 640.732421875 c 0,36,37
 82.5 662.09375 82.5 662.09375 88.3310546875 682.91796875 c 0,38,39
 94.162109375 703.743164062 94.162109375 703.743164062 104.161132812 720.155273438 c 0,40,41
 114.16015625 736.568359375 114.16015625 736.568359375 127.83984375 746.284179688 c 0,42,43
 141.520507812 756 141.520507812 756 157.080078125 756 c 0,44,45
 192.950195312 756 192.950195312 756 215.934570312 721.173828125 c 0,46,47
 238.919921875 686.348632812 238.919921875 686.348632812 238.919921875 635 c 0,18,19
EndSplineSet
Validated: 524289
EndChar

StartChar: hungarumlaut
Encoding: 10 10 7
Width: 351
Flags: W
LayerCount: 2
Fore
SplineSet
254.12109375 747.5 m 0,0,1
 261.8984375 747.5 261.8984375 747.5 271.232421875 738.072265625 c 0,2,3
 273.36328125 735.380859375 273.36328125 735.380859375 274.493164062 734.243164062 c 0,4,5
 278.626953125 731.48046875 278.626953125 731.48046875 281.037109375 728.559570312 c 0,6,7
 287.587890625 720.619140625 287.587890625 720.619140625 293.021484375 715.069335938 c 0,8,9
 297.561523438 711.84375 297.561523438 711.84375 300.758789062 706.522460938 c 0,10,11
 306.58984375 696.817382812 306.58984375 696.817382812 306.58984375 683.3671875 c 0,12,13
 306.58984375 665.353515625 306.58984375 665.353515625 298.206054688 653.40234375 c 0,14,15
 293.545898438 645.157226562 293.545898438 645.157226562 281.907226562 622.7578125 c 0,16,17
 253.490234375 568.064453125 253.490234375 568.064453125 230.861328125 529.016601562 c 0,18,19
 217.416015625 505.814453125 217.416015625 505.814453125 212.081054688 500.849609375 c 0,20,21
 200.854492188 493.8359375 200.854492188 493.8359375 197.741210938 493.8359375 c 0,22,23
 197.52734375 493.8359375 197.52734375 493.8359375 197.3515625 493.869140625 c 0,24,25
 189.359375 493.869140625 189.359375 493.869140625 182.647460938 501.327148438 c 0,26,27
 173.139648438 511.890625 173.139648438 511.890625 173.139648438 529.6171875 c 0,28,29
 173.139648438 539.127929688 173.139648438 539.127929688 176.2578125 548.997070312 c 0,30,31
 182.762695312 574.323242188 182.762695312 574.323242188 196.84375 618.701171875 c 0,32,33
 202.326171875 635.9765625 202.326171875 635.9765625 207.302734375 651.357421875 c 1,34,35
 202.469726562 642.625 202.469726562 642.625 192.147460938 622.7578125 c 0,36,37
 163.73046875 568.064453125 163.73046875 568.064453125 141.1015625 529.016601562 c 0,38,39
 127.654296875 505.8125 127.654296875 505.8125 121.4375 499.840820312 c 0,40,41
 115.220703125 493.869140625 115.220703125 493.869140625 107.500976562 493.869140625 c 0,42,43
 99.703125 493.869140625 99.703125 493.869140625 92.96875 500.884765625 c 0,44,45
 82.984375 511.28515625 82.984375 511.28515625 82.984375 529.215820312 c 0,46,47
 82.984375 539.44921875 82.984375 539.44921875 86.6787109375 549.698242188 c 0,48,49
 95.2666015625 582.88671875 95.2666015625 582.88671875 128.719726562 686.46484375 c 0,50,51
 136.658203125 711.041992188 136.658203125 711.041992188 142.532226562 725.392578125 c 0,52,53
 151.58203125 747.5 151.58203125 747.5 164.360351562 747.5 c 0,54,55
 172.138671875 747.5 172.138671875 747.5 181.47265625 738.072265625 c 0,56,57
 184.155273438 734.685546875 184.155273438 734.685546875 186.036132812 733.124023438 c 0,58,59
 190.430664062 729.475585938 190.430664062 729.475585938 194.573242188 724.59375 c 0,60,61
 198.715820312 719.712890625 198.715820312 719.712890625 203.26171875 715.069335938 c 0,62,63
 207.801757812 711.84375 207.801757812 711.84375 210.999023438 706.522460938 c 0,64,65
 216.829101562 696.817382812 216.829101562 696.817382812 216.829101562 683.3671875 c 0,66,67
 216.829101562 681.791015625 216.829101562 681.791015625 216.765625 680.26171875 c 1,68,69
 225.234375 705.796875 225.234375 705.796875 231.89453125 724.538085938 c 0,70,71
 241.3671875 747.5 241.3671875 747.5 254.12109375 747.5 c 0,0,1
EndSplineSet
Validated: 524289
EndChar

StartChar: ogonek
Encoding: 11 11 8
Width: 319
Flags: W
LayerCount: 2
Fore
SplineSet
214.45703125 47.396484375 m 0,0,1
 237.133789062 66.384765625 237.133789062 66.384765625 265.970703125 66.384765625 c 0,2,3
 281.106445312 66.384765625 281.106445312 66.384765625 286.375 63.7236328125 c 0,4,5
 297.627929688 58.0400390625 297.627929688 58.0400390625 300.033203125 37.994140625 c 0,6,7
 300.41015625 34.857421875 300.41015625 34.857421875 300.41015625 28.021484375 c 0,8,9
 300.41015625 21.1845703125 300.41015625 21.1845703125 294.591796875 -26.4169921875 c 1,10,11
 279.046875 -23.7998046875 279.046875 -23.7998046875 277.685546875 -23.7998046875 c 0,12,13
 276.323242188 -23.7998046875 276.323242188 -23.7998046875 271.689453125 -26.140625 c 0,14,15
 261.885742188 -31.091796875 261.885742188 -31.091796875 255.325195312 -45.0078125 c 0,16,17
 252.956054688 -50.0341796875 252.956054688 -50.0341796875 252.6875 -53.486328125 c 0,18,19
 252.419921875 -56.9384765625 252.419921875 -56.9384765625 252.419921875 -59.5947265625 c 0,20,21
 252.419921875 -70.9912109375 252.419921875 -70.9912109375 256.729492188 -80.6650390625 c 0,22,23
 261.0390625 -90.337890625 261.0390625 -90.337890625 278.290039062 -91.0087890625 c 2,24,-1
 278.587890625 -91.0234375 l 2,25,26
 283.284179688 -91.3330078125 283.284179688 -91.3330078125 289.813476562 -91.3330078125 c 0,27,28
 307.75390625 -91.3330078125 307.75390625 -91.3330078125 330.985351562 -81.8564453125 c 2,29,-1
 341.186523438 -77.6953125 l 1,30,-1
 347.9609375 -90.0107421875 l 2,31,32
 354.547851562 -101.98828125 354.547851562 -101.98828125 355.341796875 -115.211914062 c 0,33,34
 355.646484375 -120.291992188 355.646484375 -120.291992188 357.889648438 -147.483398438 c 1,35,36
 329.793945312 -163.447265625 329.793945312 -163.447265625 312.395507812 -173.130859375 c 0,37,38
 292.681640625 -184.102539062 292.681640625 -184.102539062 272.473632812 -184.104492188 c 0,39,40
 252.264648438 -184.10546875 252.264648438 -184.10546875 233.84765625 -174.6171875 c 0,41,42
 215.430664062 -165.129882812 215.430664062 -165.129882812 201.205078125 -146.655273438 c 0,43,44
 186.979492188 -128.180664062 186.979492188 -128.180664062 179.526367188 -101.830078125 c 0,45,46
 173.745117188 -81.390625 173.745117188 -81.390625 173.745117188 -58.25 c 0,47,48
 173.745117188 -16.783203125 173.745117188 -16.783203125 188.046875 12.38671875 c 0,49,50
 198.7734375 34.2646484375 198.7734375 34.2646484375 214.45703125 47.396484375 c 0,0,1
EndSplineSet
Validated: 524321
EndChar

StartChar: caron
Encoding: 12 12 9
Width: 285
Flags: W
LayerCount: 2
Fore
SplineSet
220.440429688 741 m 0,0,1
 231.331054688 741 231.331054688 741 237.235351562 727.953125 c 0,2,3
 240.900390625 719.85546875 240.900390625 719.85546875 240.900390625 711.594726562 c 0,4,5
 240.900390625 703.333984375 240.900390625 703.333984375 239.362304688 696.791015625 c 0,6,7
 234.615234375 676.599609375 234.615234375 676.599609375 225.162109375 651.20703125 c 0,8,9
 215.708007812 625.814453125 215.708007812 625.814453125 207.381835938 603.106445312 c 0,10,11
 193.23046875 564.51171875 193.23046875 564.51171875 182.82421875 540.446289062 c 0,12,13
 172.41796875 516.381835938 172.41796875 516.381835938 168.87890625 510.16796875 c 0,14,15
 165.33984375 503.954101562 165.33984375 503.954101562 161.591796875 500.546875 c 2,16,-1
 153.436523438 493.133789062 l 1,17,-1
 145.124023438 500.129882812 l 2,18,19
 134.705078125 508.901367188 134.705078125 508.901367188 131.749023438 518.673828125 c 1,20,-1
 94.826171875 609.951171875 l 2,21,22
 76.1533203125 656.056640625 76.1533203125 656.056640625 66.263671875 696.73046875 c 0,23,24
 64.01953125 706.927734375 64.01953125 706.927734375 64.01953125 713 c 0,25,26
 64.01953125 728.9609375 64.01953125 728.9609375 71.6728515625 738.237304688 c 0,27,28
 77.34375 745.111328125 77.34375 745.111328125 85.212890625 745.111328125 c 0,29,30
 93.654296875 745.111328125 93.654296875 745.111328125 101.168945312 735.243164062 c 0,31,32
 109.481445312 724.328125 109.481445312 724.328125 129.079101562 684.396484375 c 0,33,34
 143.055664062 655.916992188 143.055664062 655.916992188 152.84375 640.431640625 c 1,35,36
 158.838867188 650.8359375 158.838867188 650.8359375 171.336914062 676.786132812 c 0,37,38
 183.834960938 702.735351562 183.834960938 702.735351562 191.689453125 716.009765625 c 0,39,40
 199.543945312 729.284179688 199.543945312 729.284179688 206.34375 735.141601562 c 0,41,42
 213.142578125 741 213.142578125 741 220.440429688 741 c 0,0,1
EndSplineSet
Validated: 524289
EndChar

StartChar: dotlessi
Encoding: 13 13 10
Width: 211
Flags: W
LayerCount: 2
Fore
SplineSet
151.139648438 134.334960938 m 1,0,-1
 150.744140625 91.7998046875 l 2,1,2
 150.744140625 63.8232421875 150.744140625 63.8232421875 153.104492188 55.6220703125 c 1,3,4
 157.946289062 51.736328125 157.946289062 51.736328125 165.887695312 49.587890625 c 0,5,6
 173.829101562 47.4384765625 173.829101562 47.4384765625 183.166992188 43.748046875 c 0,7,8
 192.505859375 40.056640625 192.505859375 40.056640625 197.875 27.322265625 c 0,9,10
 201.959960938 17.6357421875 201.959960938 17.6357421875 201.959960938 4.728515625 c 0,11,12
 201.959960938 -8.1796875 201.959960938 -8.1796875 197.260742188 -17.7265625 c 0,13,14
 191.055664062 -30.333984375 191.055664062 -30.333984375 179.709960938 -31.896484375 c 0,15,16
 171.698242188 -33 171.698242188 -33 162.493164062 -33 c 0,17,18
 153.287109375 -33 153.287109375 -33 141.407226562 -30.5 c 0,19,20
 129.52734375 -28 129.52734375 -28 115.6328125 -28 c 0,21,22
 101.73828125 -28 101.73828125 -28 83.5888671875 -30.5 c 0,23,24
 65.4384765625 -33 65.4384765625 -33 47.51953125 -33 c 2,25,-1
 39.599609375 -33 l 2,26,27
 31.9970703125 -33 31.9970703125 -33 25.1640625 -30.0419921875 c 0,28,29
 15.185546875 -25.72265625 15.185546875 -25.72265625 10.90625 -11.1337890625 c 0,30,31
 8.580078125 -3.2021484375 8.580078125 -3.2021484375 8.580078125 8.5732421875 c 0,32,33
 8.580078125 20.3486328125 8.580078125 20.3486328125 14.7353515625 29.673828125 c 2,34,-1
 17.375 33.673828125 l 1,35,-1
 18.1064453125 34.7822265625 l 1,36,37
 28.1552734375 46.625 28.1552734375 46.625 38.244140625 49.1728515625 c 0,38,39
 48.33203125 51.7197265625 48.33203125 51.7197265625 53.79296875 52.8486328125 c 0,40,41
 59.25390625 53.9765625 59.25390625 53.9765625 61.939453125 56.1884765625 c 0,42,43
 62.5478515625 58.228515625 62.5478515625 58.228515625 63.2841796875 63.8623046875 c 0,44,45
 64.01953125 69.49609375 64.01953125 69.49609375 64.01953125 72 c 2,46,-1
 64.01953125 87 l 1,47,-1
 64.4599609375 130.111328125 l 1,48,-1
 64.240234375 171.888671875 l 2,49,50
 64.240234375 193.385742188 64.240234375 193.385742188 64.6875 215.76953125 c 2,51,-1
 64.693359375 216.014648438 l 2,52,53
 65.3603515625 241.287109375 65.3603515625 241.287109375 66.33984375 265.040039062 c 0,54,55
 67.3203125 288.791992188 67.3203125 288.791992188 67.3203125 305.854492188 c 0,56,57
 67.3203125 345.399414062 67.3203125 345.399414062 63.6337890625 354.358398438 c 0,58,59
 62.4296875 355.892578125 62.4296875 355.892578125 52.5517578125 362.055664062 c 0,60,61
 42.673828125 368.217773438 42.673828125 368.217773438 37.5166015625 372.125 c 0,62,63
 23.759765625 382.546875 23.759765625 382.546875 23.759765625 401.821289062 c 0,64,65
 23.759765625 421.096679688 23.759765625 421.096679688 35.173828125 433.069335938 c 0,66,67
 46.921875 445.391601562 46.921875 445.391601562 69.5341796875 454.111328125 c 0,68,69
 74.7744140625 456.676757812 74.7744140625 456.676757812 90.529296875 470.318359375 c 0,70,71
 116.213867188 492.555664062 116.213867188 492.555664062 122.0625 495.77734375 c 0,72,73
 127.911132812 499 127.911132812 499 133.33203125 499 c 0,74,75
 138.75390625 499 138.75390625 499 143.874023438 493.828125 c 0,76,77
 152.459960938 485.155273438 152.459960938 485.155273438 152.459960938 469.365234375 c 0,78,79
 152.459960938 438.37109375 152.459960938 438.37109375 151.122070312 407.750976562 c 0,80,81
 148.520507812 285.131835938 148.520507812 285.131835938 151.133789062 134.668945312 c 2,82,-1
 151.139648438 134.334960938 l 1,0,-1
EndSplineSet
Validated: 524321
EndChar

StartChar: fraction
Encoding: 25 25 11
Width: 178
Flags: W
LayerCount: 2
Fore
SplineSet
243.540039062 715 m 2,0,1
 255.670898438 715 255.670898438 715 270.966796875 700.004882812 c 0,2,3
 281.666992188 689.514648438 281.666992188 689.514648438 288.383789062 683.962890625 c 2,4,-1
 304.315429688 670.795898438 l 1,5,-1
 294.189453125 648.046875 l 2,6,7
 274.736328125 604.341796875 274.736328125 604.341796875 253.749023438 563.458007812 c 0,8,9
 232.76171875 522.57421875 232.76171875 522.57421875 210.9375 481.489257812 c 0,10,11
 147.568359375 358.47265625 147.568359375 358.47265625 84.6787109375 238.739257812 c 0,12,13
 21.7841796875 118.998046875 21.7841796875 118.998046875 -44.87890625 -23.53125 c 1,14,-1
 -56.9384765625 -16.22265625 l 2,15,16
 -62.0224609375 -13.140625 -62.0224609375 -13.140625 -70.7763671875 -3.8076171875 c 0,17,18
 -79.5302734375 5.5263671875 -79.5302734375 5.5263671875 -92.5361328125 12.3798828125 c 2,19,-1
 -113.826171875 23.6005859375 l 1,20,21
 -18.3564453125 217.24609375 -18.3564453125 217.24609375 65.4296875 376.681640625 c 0,22,23
 149.221679688 536.12890625 149.221679688 536.12890625 235.143554688 715 c 1,24,-1
 243.540039062 715 l 2,0,1
EndSplineSet
Validated: 524289
EndChar

StartChar: fi
Encoding: 26 26 12
Width: 411
Flags: W
LayerCount: 2
Fore
SplineSet
351.780273438 134.334960938 m 1,0,-1
 351.383789062 91.7998046875 l 2,1,2
 351.383789062 63.59765625 351.383789062 63.59765625 353.71875 55.9384765625 c 1,3,4
 359.043945312 51.7607421875 359.043945312 51.7607421875 366.78125 49.58984375 c 0,5,6
 374.51953125 47.4189453125 374.51953125 47.4189453125 383.833007812 43.7373046875 c 0,7,8
 393.145507812 40.056640625 393.145507812 40.056640625 398.515625 27.322265625 c 0,9,10
 402.599609375 17.6357421875 402.599609375 17.6357421875 402.599609375 4.728515625 c 0,11,12
 402.599609375 -8.1796875 402.599609375 -8.1796875 397.900390625 -17.7265625 c 0,13,14
 391.6953125 -30.333984375 391.6953125 -30.333984375 380.350585938 -31.896484375 c 0,15,16
 372.338867188 -33 372.338867188 -33 363.1328125 -33 c 0,17,18
 353.926757812 -33 353.926757812 -33 342.046875 -30.5 c 0,19,20
 330.166992188 -28 330.166992188 -28 316.272460938 -28 c 0,21,22
 302.37890625 -28 302.37890625 -28 284.228515625 -30.5 c 0,23,24
 266.079101562 -33 266.079101562 -33 248.16015625 -33 c 2,25,-1
 240.900390625 -33 l 2,26,27
 233.4453125 -33 233.4453125 -33 226.413085938 -30.1591796875 c 0,28,29
 216.30078125 -26.072265625 216.30078125 -26.072265625 211.791015625 -11.7255859375 c 0,30,31
 209.219726562 -3.5439453125 209.219726562 -3.5439453125 209.219726562 8.40234375 c 0,32,33
 209.219726562 20.3486328125 209.219726562 20.3486328125 215.375 29.673828125 c 2,34,-1
 218.014648438 33.673828125 l 1,35,-1
 218.74609375 34.7822265625 l 1,36,37
 228.795898438 46.625 228.795898438 46.625 238.883789062 49.1728515625 c 0,38,39
 248.97265625 51.7197265625 248.97265625 51.7197265625 254.432617188 52.8486328125 c 0,40,41
 259.893554688 53.9765625 259.893554688 53.9765625 262.580078125 56.1884765625 c 0,42,43
 263.188476562 58.228515625 263.188476562 58.228515625 263.923828125 63.8623046875 c 0,44,45
 264.66015625 69.49609375 264.66015625 69.49609375 264.66015625 72 c 2,46,-1
 264.66015625 87 l 1,47,-1
 265.099609375 130.111328125 l 1,48,-1
 264.879882812 171.888671875 l 2,49,50
 264.879882812 193.385742188 264.879882812 193.385742188 265.328125 215.76953125 c 2,51,-1
 265.333007812 216.014648438 l 2,52,53
 266.000976562 241.287109375 266.000976562 241.287109375 266.98046875 265.040039062 c 0,54,55
 267.959960938 288.791992188 267.959960938 288.791992188 267.959960938 307.4453125 c 0,56,57
 267.959960938 345.256835938 267.959960938 345.256835938 261.881835938 363.017578125 c 0,58,59
 255.830078125 380.701171875 255.830078125 380.701171875 241.109375 382 c 1,60,-1
 170.940429688 382 l 2,61,62
 156.634765625 382 156.634765625 382 137.6640625 381.296875 c 1,63,64
 137.940429688 367.424804688 137.940429688 367.424804688 137.940429688 358 c 2,65,-1
 137.280273438 82 l 2,66,67
 137.280273438 66.7080078125 137.280273438 66.7080078125 139.5859375 61.583984375 c 0,68,69
 144.231445312 51.2607421875 144.231445312 51.2607421875 156.301757812 49.490234375 c 0,70,71
 168.37109375 47.720703125 168.37109375 47.720703125 185.217773438 41.71484375 c 1,72,-1
 188.544921875 36.673828125 l 2,73,74
 196.01953125 25.3486328125 196.01953125 25.3486328125 196.01953125 8 c 0,75,76
 196.01953125 -6.04296875 196.01953125 -6.04296875 190.4296875 -15.484375 c 1,77,-1
 189.223632812 -20.9638671875 l 1,78,-1
 183.728515625 -25.7216796875 l 2,79,80
 175.322265625 -33 175.322265625 -33 162.279296875 -33 c 0,81,82
 149.236328125 -33 149.236328125 -33 136.036132812 -30 c 0,83,84
 122.836914062 -27 122.836914062 -27 107.711914062 -27 c 0,85,86
 92.587890625 -27 92.587890625 -27 73.1181640625 -30 c 0,87,88
 53.6474609375 -33 53.6474609375 -33 41.2763671875 -33 c 0,89,90
 28.9052734375 -33 28.9052734375 -33 21.337890625 -31.908203125 c 0,91,92
 13.76953125 -30.81640625 13.76953125 -30.81640625 8.4892578125 -25.1767578125 c 0,93,94
 -0.66015625 -15.4072265625 -0.66015625 -15.4072265625 -0.66015625 2 c 0,95,96
 -0.66015625 14.8623046875 -0.66015625 14.8623046875 3.068359375 24.7470703125 c 0,97,98
 8.3427734375 38.7333984375 8.3427734375 38.7333984375 17.9423828125 42.9755859375 c 0,99,100
 27.54296875 47.21875 27.54296875 47.21875 35.9619140625 50.0986328125 c 0,101,102
 44.3818359375 52.9794921875 44.3818359375 52.9794921875 49.1103515625 59.197265625 c 0,103,104
 51.48046875 65.54296875 51.48046875 65.54296875 51.48046875 81 c 2,105,-1
 51.48046875 375 l 2,106,107
 51.48046875 377.07421875 51.48046875 377.07421875 51.4150390625 379.1953125 c 0,108,109
 42.439453125 380.428710938 42.439453125 380.428710938 34.802734375 380.749023438 c 0,110,111
 27.1669921875 381.068359375 27.1669921875 381.068359375 19.19140625 383.485351562 c 0,112,113
 8.6259765625 386.686523438 8.6259765625 386.686523438 3.2041015625 399.625976562 c 0,114,115
 -0.66015625 409 -0.66015625 409 -0.66015625 421 c 0,116,117
 -0.66015625 441.924804688 -0.66015625 441.924804688 3.6611328125 452.8359375 c 0,118,119
 9.109375 466.59375 9.109375 466.59375 21.865234375 471.6796875 c 0,120,121
 32.1494140625 475.780273438 32.1494140625 475.780273438 51.732421875 478.55078125 c 1,122,123
 53.0517578125 509.037109375 53.0517578125 509.037109375 53.9521484375 546.75 c 0,124,125
 54.8515625 584.463867188 54.8515625 584.463867188 61.8466796875 625.928710938 c 0,126,127
 68.2685546875 667.921875 68.2685546875 667.921875 81.5556640625 706.01171875 c 0,128,129
 94.84375 744.1015625 94.84375 744.1015625 114.674804688 773.590820312 c 0,130,131
 134.504882812 803.081054688 134.504882812 803.081054688 160.186523438 820.0703125 c 0,132,133
 185.869140625 837.060546875 185.869140625 837.060546875 215.116210938 837.060546875 c 0,134,135
 233.8515625 837.060546875 233.8515625 837.060546875 250.1328125 833.618164062 c 0,136,137
 266.4140625 830.176757812 266.4140625 830.176757812 280.724609375 819.025390625 c 0,138,139
 295.03515625 807.874023438 295.03515625 807.874023438 305.232421875 789.063476562 c 0,140,141
 315.430664062 770.252929688 315.430664062 770.252929688 316.698242188 741.44921875 c 0,142,143
 317.393554688 736.158203125 317.393554688 736.158203125 317.393554688 730.844726562 c 0,144,145
 317.393554688 715.540039062 317.393554688 715.540039062 311.190429688 700.099609375 c 0,146,147
 304.987304688 684.658203125 304.987304688 684.658203125 294.298828125 675.087890625 c 0,148,149
 281.774414062 663.875 281.774414062 663.875 268.459960938 663.875 c 0,150,151
 255.145507812 663.875 255.145507812 663.875 246.033203125 675.142578125 c 0,152,153
 237.859375 684.11328125 237.859375 684.11328125 234.021484375 703.219726562 c 0,154,155
 232.846679688 709.069335938 232.846679688 709.069335938 228.747070312 715.591796875 c 0,156,157
 224.646484375 722.114257812 224.646484375 722.114257812 214.149414062 729.096679688 c 0,158,159
 203.771484375 736 203.771484375 736 180.83984375 736 c 0,160,161
 172.647460938 736 172.647460938 736 167.451171875 728.9140625 c 0,162,163
 153.125976562 709.379882812 153.125976562 709.379882812 145.056640625 659.532226562 c 0,164,165
 135.959960938 603.34375 135.959960938 603.34375 135.959960938 518 c 2,166,-1
 135.959960938 504 l 2,167,168
 135.959960938 493.178710938 135.959960938 493.178710938 136.240234375 478 c 1,169,-1
 278.51953125 478 l 2,170,171
 290.693359375 478 290.693359375 478 306.750976562 489.584960938 c 0,172,173
 322.067382812 500.63671875 322.067382812 500.63671875 329.526367188 500.63671875 c 0,174,175
 336.984375 500.63671875 336.984375 500.63671875 342.56640625 494.0078125 c 0,176,177
 345.7578125 491.78515625 345.7578125 491.78515625 348.140625 487.994140625 c 0,178,179
 353.099609375 480.104492188 353.099609375 480.104492188 353.099609375 466.83984375 c 0,180,181
 353.099609375 438.37109375 353.099609375 438.37109375 351.76171875 407.750976562 c 0,182,183
 349.161132812 285.131835938 349.161132812 285.131835938 351.774414062 134.668945312 c 2,184,-1
 351.780273438 134.334960938 l 1,0,-1
EndSplineSet
Validated: 524321
EndChar

StartChar: fl
Encoding: 27 27 13
Width: 415
Flags: W
LayerCount: 2
Fore
SplineSet
347.16015625 798 m 1,0,-1
 347.8203125 741.961914062 l 1,1,-1
 347.16015625 79 l 2,2,3
 347.16015625 63.1484375 347.16015625 63.1484375 348.966796875 60.1259765625 c 2,4,-1
 349.568359375 59.1181640625 l 1,5,6
 358.979492188 52.388671875 358.979492188 52.388671875 374.079101562 49.845703125 c 2,7,-1
 379.640625 48.91015625 l 2,8,9
 389.32421875 47.8896484375 389.32421875 47.8896484375 395.946289062 40.2158203125 c 0,10,11
 405.900390625 28.68359375 405.900390625 28.68359375 405.900390625 8 c 0,12,13
 405.900390625 -3.7841796875 405.900390625 -3.7841796875 402.134765625 -13.3388671875 c 0,14,15
 398.370117188 -22.89453125 398.370117188 -22.89453125 390.892578125 -28.041015625 c 0,16,17
 386.66796875 -32 386.66796875 -32 378.83984375 -32 c 2,18,-1
 376.200195312 -32 l 2,19,20
 359.473632812 -32 359.473632812 -32 343.963867188 -29.5 c 0,21,22
 328.454101562 -27 328.454101562 -27 311.515625 -27 c 0,23,24
 294.577148438 -27 294.577148438 -27 275.767578125 -30 c 0,25,26
 256.95703125 -33 256.95703125 -33 236.280273438 -33 c 0,27,28
 231.736328125 -33 231.736328125 -33 224.202148438 -31.2880859375 c 0,29,30
 216.668945312 -29.5751953125 216.668945312 -29.5751953125 211.600585938 -23.509765625 c 0,31,32
 203.280273438 -13.5498046875 203.280273438 -13.5498046875 203.280273438 3.22265625 c 0,33,34
 203.280273438 19.9951171875 203.280273438 19.9951171875 208.010742188 29.5517578125 c 0,35,36
 212.741210938 39.107421875 212.741210938 39.107421875 219.73046875 41.755859375 c 2,37,-1
 231.622070312 47.98828125 l 2,38,39
 242.057617188 52.638671875 242.057617188 52.638671875 251.860351562 58.671875 c 0,40,41
 255.79296875 61.0927734375 255.79296875 61.0927734375 257.379882812 67.380859375 c 0,42,43
 260.040039062 77.9267578125 260.040039062 77.9267578125 260.040039062 102.046875 c 2,44,-1
 260.700195312 646 l 2,45,46
 260.700195312 678.196289062 260.700195312 678.196289062 254.248046875 698.138671875 c 0,47,48
 240.330078125 741.158203125 240.330078125 741.158203125 207.357421875 741.158203125 c 0,49,50
 196.499023438 741.158203125 196.499023438 741.158203125 184.735351562 736.702148438 c 0,51,52
 169.583984375 731.13671875 169.583984375 731.13671875 161.275390625 710.504882812 c 0,53,54
 140.970703125 660.083984375 140.970703125 660.083984375 137.575195312 580.858398438 c 0,55,56
 135.959960938 543.176757812 135.959960938 543.176757812 135.959960938 518 c 2,57,-1
 135.959960938 504 l 2,58,59
 135.959960938 493.178710938 135.959960938 493.178710938 136.240234375 478 c 1,60,-1
 199.3203125 478 l 2,61,62
 214.729492188 478 214.729492188 478 224.184570312 463.673828125 c 2,63,-1
 229.01953125 456.348632812 l 1,64,-1
 229.01953125 446 l 1,65,-1
 229.6796875 428 l 1,66,67
 229.6796875 408.671875 229.6796875 408.671875 222.427734375 394.021484375 c 2,68,-1
 218.631835938 386.353515625 l 1,69,70
 204.267578125 382 204.267578125 382 194.040039062 382 c 2,71,-1
 138.12890625 382 l 1,72,73
 137.940429688 367.659179688 137.940429688 367.659179688 137.940429688 358 c 2,74,-1
 137.280273438 82 l 2,75,76
 137.280273438 66.7080078125 137.280273438 66.7080078125 139.5859375 61.583984375 c 0,77,78
 144.231445312 51.2607421875 144.231445312 51.2607421875 156.301757812 49.490234375 c 0,79,80
 168.37109375 47.720703125 168.37109375 47.720703125 185.217773438 41.71484375 c 1,81,-1
 188.544921875 36.673828125 l 2,82,83
 196.01953125 25.3486328125 196.01953125 25.3486328125 196.01953125 8 c 0,84,85
 196.01953125 -6.04296875 196.01953125 -6.04296875 190.4296875 -15.484375 c 1,86,-1
 189.223632812 -20.9638671875 l 1,87,-1
 183.728515625 -25.7216796875 l 2,88,89
 175.322265625 -33 175.322265625 -33 162.279296875 -33 c 0,90,91
 149.236328125 -33 149.236328125 -33 136.036132812 -30 c 0,92,93
 122.836914062 -27 122.836914062 -27 107.711914062 -27 c 0,94,95
 92.587890625 -27 92.587890625 -27 73.1181640625 -30 c 0,96,97
 53.6474609375 -33 53.6474609375 -33 41.2763671875 -33 c 0,98,99
 28.9052734375 -33 28.9052734375 -33 21.337890625 -31.908203125 c 0,100,101
 13.76953125 -30.81640625 13.76953125 -30.81640625 8.4892578125 -25.1767578125 c 0,102,103
 -0.66015625 -15.4072265625 -0.66015625 -15.4072265625 -0.66015625 2 c 0,104,105
 -0.66015625 14.8623046875 -0.66015625 14.8623046875 3.068359375 24.7470703125 c 0,106,107
 8.3427734375 38.7333984375 8.3427734375 38.7333984375 17.9423828125 42.9755859375 c 0,108,109
 27.54296875 47.21875 27.54296875 47.21875 35.9619140625 50.0986328125 c 0,110,111
 44.3818359375 52.9794921875 44.3818359375 52.9794921875 49.1103515625 59.197265625 c 0,112,113
 51.48046875 65.54296875 51.48046875 65.54296875 51.48046875 81 c 2,114,-1
 51.48046875 375 l 2,115,116
 51.48046875 377.07421875 51.48046875 377.07421875 51.4150390625 379.1953125 c 0,117,118
 42.439453125 380.428710938 42.439453125 380.428710938 34.802734375 380.749023438 c 0,119,120
 27.1669921875 381.068359375 27.1669921875 381.068359375 19.19140625 383.485351562 c 0,121,122
 8.6259765625 386.686523438 8.6259765625 386.686523438 3.2041015625 399.625976562 c 0,123,124
 -0.66015625 409 -0.66015625 409 -0.66015625 421 c 0,125,126
 -0.66015625 441.924804688 -0.66015625 441.924804688 3.6611328125 452.8359375 c 0,127,128
 9.109375 466.59375 9.109375 466.59375 21.865234375 471.6796875 c 0,129,130
 32.1494140625 475.780273438 32.1494140625 475.780273438 51.732421875 478.55078125 c 1,131,132
 53.0517578125 509.037109375 53.0517578125 509.037109375 53.9521484375 546.75 c 0,133,134
 54.8515625 584.463867188 54.8515625 584.463867188 61.8466796875 625.928710938 c 0,135,136
 68.2685546875 667.921875 68.2685546875 667.921875 81.5556640625 706.01171875 c 0,137,138
 94.84375 744.1015625 94.84375 744.1015625 114.674804688 773.590820312 c 0,139,140
 134.504882812 803.081054688 134.504882812 803.081054688 160.186523438 820.0703125 c 0,141,142
 185.869140625 837.060546875 185.869140625 837.060546875 215.116210938 837.060546875 c 0,143,144
 216.982421875 837.060546875 216.982421875 837.060546875 218.859375 836.993164062 c 2,145,-1
 219.000976562 836.986328125 l 2,146,147
 241.345703125 835.89453125 241.345703125 835.89453125 257.981445312 829.208007812 c 0,148,149
 274.616210938 822.520507812 274.616210938 822.520507812 286.762695312 806.793945312 c 1,150,151
 296.061523438 811.818359375 296.061523438 811.818359375 306.474609375 817.788085938 c 0,152,153
 316.887695312 823.7578125 316.887695312 823.7578125 329.499023438 829.216796875 c 1,154,-1
 335.8359375 822.81640625 l 1,155,-1
 339.795898438 818.81640625 l 1,156,-1
 347.16015625 811.377929688 l 1,157,-1
 347.16015625 798 l 1,0,-1
EndSplineSet
Validated: 524289
EndChar

StartChar: Lslash
Encoding: 28 28 14
Width: 423
Flags: W
LayerCount: 2
Fore
SplineSet
11.94921875 300.951171875 m 0,0,1
 10.4658203125 306.059570312 10.4658203125 306.059570312 10.4658203125 313.350585938 c 0,2,3
 10.4658203125 333.881835938 10.4658203125 333.881835938 32.8974609375 350.875 c 0,4,5
 39 355.499023438 39 355.499023438 44.9814453125 359.791015625 c 2,6,-1
 55.552734375 367.990234375 l 2,7,8
 63.7666015625 373.32421875 63.7666015625 373.32421875 71.177734375 380.061523438 c 0,9,10
 78.5888671875 386.799804688 78.5888671875 386.799804688 84.48046875 391.813476562 c 1,11,-1
 84.48046875 614 l 2,12,13
 84.48046875 636.903320312 84.48046875 636.903320312 81.5263671875 654.802734375 c 0,14,15
 80.3154296875 665.358398438 80.3154296875 665.358398438 77.001953125 667.509765625 c 0,16,17
 67.578125 673.62890625 67.578125 673.62890625 55.2783203125 675.958984375 c 0,18,19
 42.978515625 678.288085938 42.978515625 678.288085938 32.8701171875 681.16015625 c 0,20,21
 22.7626953125 684.03125 22.7626953125 684.03125 16.734375 692.137695312 c 0,22,23
 7.919921875 703.990234375 7.919921875 703.990234375 7.919921875 723 c 0,24,25
 7.919921875 736.044921875 7.919921875 736.044921875 11.6962890625 745.747070312 c 0,26,27
 17.455078125 760.543945312 17.455078125 760.543945312 29.16796875 763.629882812 c 0,28,29
 38.1630859375 766 38.1630859375 766 55.150390625 766 c 0,30,31
 72.1376953125 766 72.1376953125 766 94.578125 762.5 c 0,32,33
 117.017578125 759 117.017578125 759 140.762695312 759 c 0,34,35
 164.5078125 759 164.5078125 759 186.947265625 761 c 0,36,37
 209.387695312 763 209.387695312 763 238.259765625 763 c 2,38,-1
 244.528320312 763 l 1,39,-1
 249.21484375 756.689453125 l 2,40,41
 259.8046875 742.42578125 259.8046875 742.42578125 261.360351562 723.57421875 c 1,42,-1
 261.360351562 722 l 2,43,44
 261.360351562 705.887695312 261.360351562 705.887695312 255.62109375 696.033203125 c 0,45,46
 249.8828125 686.1796875 249.8828125 686.1796875 241.157226562 681.772460938 c 0,47,48
 232.430664062 677.365234375 232.430664062 677.365234375 219.663085938 675.606445312 c 2,49,-1
 198.236328125 672.610351562 l 2,50,51
 192.637695312 671.814453125 192.637695312 671.814453125 189.177734375 668.421875 c 0,52,53
 183.48046875 659.259765625 183.48046875 659.259765625 183.48046875 610.560546875 c 0,54,55
 183.48046875 561.861328125 183.48046875 561.861328125 183.221679688 526.649414062 c 0,56,57
 182.963867188 491.4375 182.963867188 491.4375 182.8828125 465.837890625 c 1,58,59
 190.0546875 471.243164062 190.0546875 471.243164062 202.911132812 481.330078125 c 0,60,61
 224.059570312 497.923828125 224.059570312 497.923828125 228.42578125 500.5703125 c 0,62,63
 232.791992188 503.215820312 232.791992188 503.215820312 236.356445312 503.215820312 c 0,64,65
 245.159179688 503.215820312 245.159179688 503.215820312 251.79296875 491.900390625 c 0,66,67
 255.444335938 485.670898438 255.444335938 485.670898438 259.868164062 471.845703125 c 0,68,69
 264.29296875 458.020507812 264.29296875 458.020507812 271.369140625 436.575195312 c 0,70,71
 272.711914062 430.47265625 272.711914062 430.47265625 272.711914062 425.780273438 c 0,72,73
 272.711914062 411.961914062 272.711914062 411.961914062 264.95703125 401.680664062 c 0,74,75
 256.66796875 390.690429688 256.66796875 390.690429688 245.552734375 382.83203125 c 0,76,77
 239.640625 378.651367188 239.640625 378.651367188 182.16015625 333.758789062 c 1,78,-1
 182.16015625 204 l 2,79,80
 182.16015625 152.263671875 182.16015625 152.263671875 183.706054688 128.837890625 c 0,81,82
 186.171875 91.4736328125 186.171875 91.4736328125 190.159179688 81.501953125 c 1,83,84
 203.240234375 67.873046875 203.240234375 67.873046875 220.103515625 64.822265625 c 0,85,86
 229.528320312 63.1171875 229.528320312 63.1171875 239.18359375 63.1171875 c 0,87,88
 248.837890625 63.1171875 248.837890625 63.1171875 263.350585938 66.2587890625 c 0,89,90
 277.862304688 69.3994140625 277.862304688 69.3994140625 292.669921875 77.318359375 c 0,91,92
 307.478515625 85.2373046875 307.478515625 85.2373046875 312.276367188 90.8916015625 c 1,93,94
 321.124023438 98.4326171875 321.124023438 98.4326171875 331.974609375 118.87109375 c 0,95,96
 342.82421875 139.309570312 342.82421875 139.309570312 352.393554688 163.47265625 c 0,97,98
 361.961914062 187.63671875 361.961914062 187.63671875 367.927734375 203.356445312 c 0,99,100
 379.145507812 232.916015625 379.145507812 232.916015625 383.2421875 237.744140625 c 0,101,102
 392.079101562 248.158203125 392.079101562 248.158203125 403.009765625 248.158203125 c 0,103,104
 406.678710938 248.158203125 406.678710938 248.158203125 410.40625 246.9296875 c 0,105,106
 426.161132812 241.740234375 426.161132812 241.740234375 432.206054688 221.133789062 c 2,107,-1
 435.788085938 208.922851562 l 1,108,-1
 431.064453125 197.637695312 l 2,109,110
 414.93359375 159.096679688 414.93359375 159.096679688 406.104492188 120.396484375 c 0,111,112
 397.275390625 81.6962890625 397.275390625 81.6962890625 391.732421875 50.0830078125 c 0,113,114
 386.190429688 18.46875 386.190429688 18.46875 383.498046875 3.634765625 c 0,115,116
 380.805664062 -11.2001953125 380.805664062 -11.2001953125 378.567382812 -18.2529296875 c 0,117,118
 376.329101562 -25.3056640625 376.329101562 -25.3056640625 373.163085938 -30.2255859375 c 0,119,120
 366.873046875 -40 366.873046875 -40 358.379882812 -40 c 0,121,122
 312.453125 -40 312.453125 -40 265.263671875 -31 c 0,123,124
 218.073242188 -22 218.073242188 -22 174.240234375 -22 c 0,125,126
 152.46875 -22 152.46875 -22 136.328125 -23.9560546875 c 0,127,128
 120.188476562 -25.9130859375 120.188476562 -25.9130859375 105.065429688 -27.9052734375 c 0,129,130
 89.828125 -29.9130859375 89.828125 -29.9130859375 72.96875 -31.9560546875 c 0,131,132
 56.1083984375 -34 56.1083984375 -34 33 -34 c 0,133,134
 21.11328125 -34 21.11328125 -34 13.509765625 -19.599609375 c 0,135,136
 7.259765625 -7.763671875 7.259765625 -7.763671875 7.259765625 5.498046875 c 0,137,138
 7.259765625 37.9306640625 7.259765625 37.9306640625 24.2412109375 48.22265625 c 0,139,140
 33.2666015625 53.69140625 33.2666015625 53.69140625 44.484375 54.7880859375 c 0,141,142
 55.703125 55.884765625 55.703125 55.884765625 66.6201171875 58.248046875 c 0,143,144
 72.9326171875 59.6142578125 72.9326171875 59.6142578125 78.2392578125 66.9052734375 c 0,145,146
 82.28515625 73.7373046875 82.28515625 73.7373046875 84.7119140625 97.4296875 c 0,147,148
 89.396484375 143.180664062 89.396484375 143.180664062 86.482421875 228.184570312 c 0,149,150
 85.92578125 244.409179688 85.92578125 244.409179688 85.486328125 259.309570312 c 1,151,152
 54.529296875 235.857421875 54.529296875 235.857421875 44.193359375 235.857421875 c 0,153,154
 39.953125 235.857421875 39.953125 235.857421875 35.65625 238.895507812 c 0,155,156
 31.3603515625 241.93359375 31.3603515625 241.93359375 28.6455078125 249.120117188 c 0,157,158
 25.5751953125 255.565429688 25.5751953125 255.565429688 22.4384765625 265.599609375 c 0,159,160
 19.3017578125 275.633789062 19.3017578125 275.633789062 11.94921875 300.951171875 c 0,0,1
EndSplineSet
Validated: 524321
EndChar

StartChar: lslash
Encoding: 29 29 15
Width: 213
Flags: W
LayerCount: 2
Fore
SplineSet
150.48046875 666 m 1,0,-1
 149.8203125 527 l 1,1,-1
 149.8203125 494.075195312 l 1,2,3
 160.522460938 502.588867188 160.522460938 502.588867188 168.784179688 509.329101562 c 0,4,5
 188.302734375 525.252929688 188.302734375 525.252929688 190.747070312 526.734375 c 0,6,7
 193.19140625 528.215820312 193.19140625 528.215820312 196.752929688 528.215820312 c 0,8,9
 205.736328125 528.215820312 205.736328125 528.215820312 212.322265625 516.528320312 c 0,10,11
 215.884765625 510.206054688 215.884765625 510.206054688 219.9375 496.697265625 c 0,12,13
 223.990234375 483.188476562 223.990234375 483.188476562 231.666992188 462.041015625 c 1,14,15
 233.112304688 455.47265625 233.112304688 455.47265625 233.112304688 450.759765625 c 0,16,17
 233.112304688 431.461914062 233.112304688 431.461914062 216.200195312 415.692382812 c 0,18,19
 210.87890625 410.73046875 210.87890625 410.73046875 205.983398438 407.551757812 c 0,20,21
 201.087890625 404.373046875 201.087890625 404.373046875 197.638671875 401.772460938 c 2,22,-1
 149.8203125 363.018554688 l 1,23,-1
 149.8203125 78 l 2,24,25
 149.8203125 62.1484375 149.8203125 62.1484375 151.625976562 59.1259765625 c 2,26,-1
 152.228515625 58.1181640625 l 1,27,28
 161.639648438 51.388671875 161.639648438 51.388671875 176.739257812 48.845703125 c 2,29,-1
 182.30078125 47.91015625 l 2,30,31
 191.984375 46.8896484375 191.984375 46.8896484375 198.606445312 39.2158203125 c 0,32,33
 208.559570312 27.68359375 208.559570312 27.68359375 208.559570312 7 c 0,34,35
 208.559570312 -4.7841796875 208.559570312 -4.7841796875 204.794921875 -14.3388671875 c 0,36,37
 201.029296875 -23.89453125 201.029296875 -23.89453125 193.552734375 -29.041015625 c 0,38,39
 189.328125 -33 189.328125 -33 181.5 -33 c 2,40,-1
 178.860351562 -33 l 2,41,42
 162.133789062 -33 162.133789062 -33 146.624023438 -30.5 c 0,43,44
 131.11328125 -28 131.11328125 -28 114.17578125 -28 c 0,45,46
 97.2373046875 -28 97.2373046875 -28 78.4267578125 -31 c 0,47,48
 59.6171875 -34 59.6171875 -34 38.9404296875 -34 c 0,49,50
 34.396484375 -34 34.396484375 -34 26.8623046875 -32.2880859375 c 0,51,52
 19.328125 -30.5751953125 19.328125 -30.5751953125 14.2607421875 -24.509765625 c 0,53,54
 5.9404296875 -14.5498046875 5.9404296875 -14.5498046875 5.9404296875 2.22265625 c 0,55,56
 5.9404296875 18.9951171875 5.9404296875 18.9951171875 10.6708984375 28.5517578125 c 0,57,58
 15.4013671875 38.107421875 15.4013671875 38.107421875 22.390625 40.755859375 c 2,59,-1
 34.2822265625 46.98828125 l 2,60,61
 44.7177734375 51.638671875 44.7177734375 51.638671875 54.51953125 57.671875 c 0,62,63
 58.453125 60.0927734375 58.453125 60.0927734375 60.0390625 66.380859375 c 0,64,65
 62.7001953125 76.9267578125 62.7001953125 76.9267578125 62.7001953125 101 c 2,66,-1
 62.7001953125 294.431640625 l 1,67,-1
 54.5771484375 287.901367188 l 2,68,69
 50.7646484375 284.8359375 50.7646484375 284.8359375 39.4755859375 277.994140625 c 0,70,71
 28.1865234375 271.15234375 28.1865234375 271.15234375 23.8369140625 269.504882812 c 0,72,73
 19.486328125 267.857421875 19.486328125 267.857421875 15.8603515625 267.857421875 c 0,74,75
 12.2333984375 267.857421875 12.2333984375 267.857421875 7.9365234375 270.895507812 c 0,76,77
 3.6396484375 273.93359375 3.6396484375 273.93359375 0.92578125 281.120117188 c 0,78,79
 -2.14453125 287.565429688 -2.14453125 287.565429688 -5.28125 297.599609375 c 0,80,81
 -14.6845703125 327.676757812 -14.6845703125 327.676757812 -15.9697265625 333.516601562 c 0,82,83
 -17.25390625 339.356445312 -17.25390625 339.356445312 -17.25390625 346.192382812 c 0,84,85
 -17.25390625 353.029296875 -17.25390625 353.029296875 -14.2431640625 359.505859375 c 0,86,87
 -11.232421875 365.981445312 -11.232421875 365.981445312 -6.8076171875 371.010742188 c 0,88,89
 1.568359375 380.528320312 1.568359375 380.528320312 12.4052734375 388.305664062 c 0,90,91
 23.2421875 396.083984375 23.2421875 396.083984375 27.1337890625 399.622070312 c 1,92,93
 32.646484375 402.75390625 32.646484375 402.75390625 39.708984375 408.747070312 c 0,94,95
 46.7724609375 414.740234375 46.7724609375 414.740234375 63.3603515625 427.423828125 c 1,96,-1
 63.3603515625 472 l 1,97,-1
 64.01953125 584 l 1,98,-1
 64.01953125 645 l 2,99,100
 64.01953125 658.9453125 64.01953125 658.9453125 63.087890625 675.900390625 c 0,101,102
 62.5732421875 685.248046875 62.5732421875 685.248046875 59.3212890625 691.662109375 c 0,103,104
 57.9697265625 693.129882812 57.9697265625 693.129882812 54.24609375 695.951171875 c 0,105,106
 43.0283203125 704.44921875 43.0283203125 704.44921875 35.259765625 711.692382812 c 0,107,108
 23.099609375 723.030273438 23.099609375 723.030273438 23.099609375 742 c 2,109,-1
 23.099609375 746 l 2,110,111
 23.099609375 764.453125 23.099609375 764.453125 33.556640625 772.375 c 2,112,-1
 37.021484375 775 l 1,113,-1
 40.919921875 775 l 2,114,115
 45.609375 775.479492188 45.609375 775.479492188 58.5078125 781.125976562 c 0,116,117
 92.8310546875 796.149414062 92.8310546875 796.149414062 112.860351562 812.513671875 c 1,118,-1
 112.860351562 847.7109375 l 1,119,-1
 138.49609375 821.81640625 l 1,120,-1
 142.456054688 817.81640625 l 1,121,-1
 149.8203125 810.377929688 l 1,122,-1
 149.8203125 797 l 1,123,-1
 150.48046875 741 l 1,124,-1
 150.48046875 666 l 1,0,-1
EndSplineSet
Validated: 524289
EndChar

StartChar: Zcaron
Encoding: 30 30 16
Width: 511
Flags: W
LayerCount: 2
Fore
SplineSet
357.169921875 669.6796875 m 1,0,1
 345.845703125 669 345.845703125 669 345.1796875 669 c 2,2,-1
 298.3203125 669 l 2,3,4
 275.360351562 669 275.360351562 669 216.520507812 667.505859375 c 0,5,6
 157.680664062 666.01171875 157.680664062 666.01171875 140.33984375 664.604492188 c 0,7,8
 122.999023438 663.197265625 122.999023438 663.197265625 108.6015625 656.612304688 c 0,9,10
 94.2041015625 650.026367188 94.2041015625 650.026367188 81.42578125 629.051757812 c 0,11,12
 77.1083984375 622.243164062 77.1083984375 622.243164062 73.1748046875 611.600585938 c 0,13,14
 69.240234375 600.95703125 69.240234375 600.95703125 64.587890625 587.943359375 c 0,15,16
 49.59375 546 49.59375 546 32.33984375 546 c 0,17,18
 26.486328125 546 26.486328125 546 19.412109375 549.384765625 c 0,19,20
 1.5048828125 557.953125 1.5048828125 557.953125 1.5048828125 581.448242188 c 0,21,22
 1.5048828125 586.657226562 1.5048828125 586.657226562 2.56640625 591.7578125 c 0,23,24
 6.7353515625 619.948242188 6.7353515625 619.948242188 11.9716796875 645.979492188 c 0,25,26
 13.685546875 654.499023438 13.685546875 654.499023438 22.5859375 698.750976562 c 0,27,28
 27.9365234375 722.0546875 27.9365234375 722.0546875 31.3623046875 737.627929688 c 0,29,30
 39.583984375 775 39.583984375 775 60.7197265625 775 c 0,31,32
 76.498046875 775 76.498046875 775 85.2431640625 768.375 c 0,33,34
 89.9560546875 764.8046875 89.9560546875 764.8046875 100.702148438 763.32421875 c 1,35,-1
 104.17578125 759.81640625 l 2,36,37
 106.766601562 757.200195312 106.766601562 757.200195312 116.533203125 755.599609375 c 0,38,39
 126.30078125 754 126.30078125 754 136.620117188 754 c 2,40,-1
 149.16015625 754 l 2,41,42
 179.37109375 754 179.37109375 754 216.626953125 754.999023438 c 0,43,44
 236.724609375 755.538085938 236.724609375 755.538085938 257.3125 755.931640625 c 1,45,46
 254.255859375 759.580078125 254.255859375 759.580078125 252.064453125 764.560546875 c 0,47,48
 232.12109375 813.915039062 232.12109375 813.915039062 213.875 858.455078125 c 0,49,50
 195.627929688 902.99609375 195.627929688 902.99609375 185.723632812 943.73046875 c 0,51,52
 183.48046875 953.927734375 183.48046875 953.927734375 183.48046875 963.42578125 c 0,53,54
 183.48046875 972.923828125 183.48046875 972.923828125 188.016601562 981.515625 c 0,55,56
 194.138671875 993.111328125 194.138671875 993.111328125 204.672851562 993.111328125 c 0,57,58
 213.114257812 993.111328125 213.114257812 993.111328125 220.62890625 983.243164062 c 0,59,60
 227.912109375 973.678710938 227.912109375 973.678710938 243.16015625 943.645507812 c 0,61,62
 265.721679688 899.206054688 265.721679688 899.206054688 272.754882812 888.0703125 c 1,63,64
 280.0078125 900.5703125 280.0078125 900.5703125 291.6015625 925.569335938 c 0,65,66
 303.1953125 950.568359375 303.1953125 950.568359375 312.432617188 966.177734375 c 0,67,68
 325.936523438 989 325.936523438 989 338.467773438 989 c 0,69,70
 351.442382812 989 351.442382812 989 357.237304688 974.366210938 c 0,71,72
 360.360351562 966.479492188 360.360351562 966.479492188 360.360351562 958.349609375 c 0,73,74
 360.360351562 950.219726562 360.360351562 950.219726562 358.788085938 943.717773438 c 0,75,76
 354.337890625 925.305664062 354.337890625 925.305664062 344.752929688 899.559570312 c 0,77,78
 335.16796875 873.814453125 335.16796875 873.814453125 326.841796875 851.106445312 c 0,79,80
 312.690429688 812.51171875 312.690429688 812.51171875 295.961914062 773.825195312 c 0,81,82
 291.2109375 762.838867188 291.2109375 762.838867188 287.516601562 756.427734375 c 1,83,84
 290.166015625 756.463867188 290.166015625 756.463867188 292.823242188 756.498046875 c 0,85,86
 331.763671875 756.998046875 331.763671875 756.998046875 369.086914062 757.999023438 c 0,87,88
 406.411132812 759 406.411132812 759 437.580078125 759 c 0,89,90
 442.801757812 759 442.801757812 759 452.385742188 761.419921875 c 0,91,92
 467.353515625 765.200195312 467.353515625 765.200195312 476.654296875 765.200195312 c 0,93,94
 485.955078125 765.200195312 485.955078125 765.200195312 493.54296875 759.7890625 c 0,95,96
 501.131835938 754.37890625 501.131835938 754.37890625 504.263671875 745.2265625 c 0,97,98
 507.396484375 736.073242188 507.396484375 736.073242188 507.396484375 729.083007812 c 0,99,100
 507.396484375 714.280273438 507.396484375 714.280273438 503.606445312 705.815429688 c 0,101,102
 496.07421875 688.989257812 496.07421875 688.989257812 460.956054688 627.663085938 c 0,103,104
 395.611328125 513.139648438 395.611328125 513.139648438 368.079101562 463.9375 c 0,105,106
 340.546875 414.735351562 340.546875 414.735351562 314.482421875 369.244140625 c 0,107,108
 291.772460938 329.608398438 291.772460938 329.608398438 253.747070312 261.682617188 c 0,109,110
 215.721679688 193.7578125 215.721679688 193.7578125 211.184570312 184.96875 c 0,111,112
 205.6015625 173.377929688 205.6015625 173.377929688 194.3125 152.751953125 c 0,113,114
 183.0234375 132.125 183.0234375 132.125 171.370117188 110.545898438 c 0,115,116
 152.494140625 75.58984375 152.494140625 75.58984375 146.779296875 59.470703125 c 1,117,118
 148.465820312 59.3330078125 148.465820312 59.3330078125 150.259765625 59.3330078125 c 2,119,-1
 166.98046875 60 l 1,120,-1
 298.98046875 61 l 2,121,122
 322.436523438 61 322.436523438 61 348.474609375 62.42578125 c 0,123,124
 374.512695312 63.8515625 374.512695312 63.8515625 396.078125 72.765625 c 0,125,126
 408.4140625 80.1845703125 408.4140625 80.1845703125 414.6484375 92.3291015625 c 0,127,128
 423.1484375 108.887695312 423.1484375 108.887695312 431.770507812 131.241210938 c 0,129,130
 434.7890625 139.71875 434.7890625 139.71875 437.4140625 153.641601562 c 0,131,132
 445.407226562 196.028320312 445.407226562 196.028320312 463.018554688 204.3671875 c 0,133,134
 466.466796875 206 466.466796875 206 470.157226562 206 c 0,135,136
 480.7734375 206 480.7734375 206 491.693359375 192.212890625 c 2,137,-1
 496.34375 186.340820312 l 1,138,139
 499.620117188 158.208984375 499.620117188 158.208984375 499.620117188 139.055664062 c 0,140,141
 499.620117188 119.903320312 499.620117188 119.903320312 496.479492188 100.869140625 c 0,142,143
 491.278320312 69.3447265625 491.278320312 69.3447265625 489.697265625 46.9921875 c 0,144,145
 488.116210938 24.6396484375 488.116210938 24.6396484375 484.447265625 7.962890625 c 0,146,147
 480.778320312 -8.7138671875 480.778320312 -8.7138671875 471.046875 -20.857421875 c 0,148,149
 461.315429688 -33 461.315429688 -33 444.83984375 -33 c 0,150,151
 418.669921875 -33 418.669921875 -33 392.930664062 -31 c 0,152,153
 367.190429688 -29 367.190429688 -29 341.879882812 -29 c 2,154,-1
 283.139648438 -29 l 2,155,156
 222.076171875 -29 222.076171875 -29 155.416015625 -32.4990234375 c 0,157,158
 88.7548828125 -35.9990234375 88.7548828125 -35.9990234375 27.0595703125 -36 c 0,159,160
 16.8701171875 -36 16.8701171875 -36 9.873046875 -28.048828125 c 0,161,162
 0 -16.8291015625 0 -16.8291015625 0 4 c 0,163,164
 -0 10.986328125 -0 10.986328125 1.7412109375 15.6435546875 c 0,165,166
 4.8984375 24.0869140625 4.8984375 24.0869140625 15.1171875 43.7919921875 c 0,167,168
 52.9853515625 116.815429688 52.9853515625 116.815429688 81.24609375 168.956054688 c 0,169,170
 133.788085938 265.89453125 133.788085938 265.89453125 133.788085938 265.895507812 c 2,171,-1
 183.619140625 357.397460938 l 2,172,173
 251.880859375 482.717773438 251.880859375 482.717773438 264.974609375 507.065429688 c 0,174,175
 286.15234375 546.444335938 286.15234375 546.444335938 300.423828125 570.771484375 c 0,176,177
 341.745117188 641.205078125 341.745117188 641.205078125 348.2890625 653.163085938 c 0,178,179
 354.833984375 665.120117188 354.833984375 665.120117188 357.169921875 669.6796875 c 1,0,1
EndSplineSet
Validated: 524289
EndChar

StartChar: zcaron
Encoding: 31 31 17
Width: 314
Flags: W
LayerCount: 2
Fore
SplineSet
189.946289062 402.747070312 m 1,0,-1
 171.599609375 402 l 1,1,-1
 150.48046875 402 l 2,2,3
 132.8046875 402 132.8046875 402 114.684570312 401.526367188 c 0,4,5
 96.564453125 401.053710938 96.564453125 401.053710938 84.6298828125 396.532226562 c 0,6,7
 77.712890625 394.682617188 77.712890625 394.682617188 74.7197265625 390.375 c 0,8,9
 69.1318359375 382.331054688 69.1318359375 382.331054688 64.24609375 372.4609375 c 0,10,11
 59.3603515625 362.590820312 59.3603515625 362.590820312 53.5751953125 353.826171875 c 0,12,13
 43.7900390625 339 43.7900390625 339 29.0400390625 339 c 0,14,15
 12.650390625 339 12.650390625 339 6.4111328125 354.666992188 c 0,16,17
 1.7763671875 366.302734375 1.7763671875 366.302734375 4.2841796875 379.14453125 c 0,18,19
 7.9873046875 398.110351562 7.9873046875 398.110351562 9.548828125 402.842773438 c 0,20,21
 11.482421875 408.701171875 11.482421875 408.701171875 14.4453125 423.641601562 c 0,22,23
 17.8623046875 444.262695312 17.8623046875 444.262695312 20.720703125 457.255859375 c 0,24,25
 28.8037109375 494 28.8037109375 494 49.5 494 c 0,26,27
 61.9912109375 494 61.9912109375 494 72.2373046875 487.649414062 c 0,28,29
 76.51171875 485 76.51171875 485 87.7802734375 485 c 2,30,-1
 157.177734375 485 l 1,31,32
 146.32421875 494.24609375 146.32421875 494.24609375 143.459960938 497.547851562 c 0,33,34
 140.192382812 501.315429688 140.192382812 501.315429688 137.883789062 506.560546875 c 0,35,36
 117.94140625 555.915039062 117.94140625 555.915039062 99.6943359375 600.455078125 c 0,37,38
 81.4482421875 644.99609375 81.4482421875 644.99609375 71.54296875 685.73046875 c 0,39,40
 69.2998046875 695.927734375 69.2998046875 695.927734375 69.2998046875 702 c 0,41,42
 69.2998046875 719.33984375 69.2998046875 719.33984375 78.0869140625 728.807617188 c 0,43,44
 83.833984375 735 83.833984375 735 91.740234375 735 c 2,45,-1
 93.38671875 735 l 2,46,47
 100.708007812 732.78125 100.708007812 732.78125 105.616210938 726.336914062 c 0,48,49
 113.732421875 715.678710938 113.732421875 715.678710938 134.525390625 674.72265625 c 0,50,51
 151.541992188 641.206054688 151.541992188 641.206054688 158.57421875 630.0703125 c 1,52,53
 165.827148438 642.5703125 165.827148438 642.5703125 177.421875 667.569335938 c 0,54,55
 189.015625 692.568359375 189.015625 692.568359375 198.251953125 708.177734375 c 0,56,57
 211.756835938 731 211.756835938 731 224.288085938 731 c 0,58,59
 237.26171875 731 237.26171875 731 243.056640625 716.366210938 c 0,60,61
 246.1796875 708.479492188 246.1796875 708.479492188 246.1796875 700.349609375 c 0,62,63
 246.1796875 692.219726562 246.1796875 692.219726562 244.608398438 685.717773438 c 0,64,65
 240.158203125 667.305664062 240.158203125 667.305664062 230.573242188 641.559570312 c 0,66,67
 220.98828125 615.814453125 220.98828125 615.814453125 212.662109375 593.106445312 c 0,68,69
 198.509765625 554.51171875 198.509765625 554.51171875 181.78125 515.825195312 c 0,70,71
 173.916992188 497.63671875 173.916992188 497.63671875 168.946289062 491.98828125 c 2,72,-1
 162.796875 485 l 1,73,-1
 193.379882812 485 l 2,74,75
 204.819335938 485 204.819335938 485 217.359375 486 c 0,76,77
 229.899414062 487 229.899414062 487 242.879882812 487 c 2,78,-1
 252.780273438 487 l 2,79,80
 262.971679688 487 262.971679688 487 273.327148438 485.20703125 c 0,81,82
 283.68359375 483.413085938 283.68359375 483.413085938 289.807617188 480.190429688 c 0,83,84
 295.931640625 476.966796875 295.931640625 476.966796875 301.057617188 469.201171875 c 0,85,86
 306.752929688 457.118164062 306.752929688 457.118164062 306.752929688 446.40234375 c 0,87,88
 306.752929688 435.686523438 306.752929688 435.686523438 303.474609375 424.5078125 c 0,89,90
 270.086914062 354.306640625 270.086914062 354.306640625 238.684570312 289.697265625 c 0,91,92
 207.352539062 225.234375 207.352539062 225.234375 175.013671875 157.23828125 c 0,93,94
 160.305664062 126.848632812 160.305664062 126.848632812 147.129882812 101.709960938 c 0,95,96
 133.955078125 76.572265625 133.955078125 76.572265625 127.6796875 61 c 1,97,-1
 145.200195312 61 l 2,98,99
 185.083007812 61 185.083007812 61 202.486328125 63.8662109375 c 0,100,101
 232.639648438 68.83203125 232.639648438 68.83203125 239.528320312 74.1474609375 c 0,102,103
 242.3125 78.1455078125 242.3125 78.1455078125 245.637695312 99.3037109375 c 2,104,-1
 248.9375 120.303710938 l 2,105,106
 251.85546875 138.870117188 251.85546875 138.870117188 260.046875 149.212890625 c 2,107,-1
 264.630859375 155 l 1,108,-1
 270.599609375 155 l 1,109,-1
 273.171875 155 l 2,110,111
 274.599609375 155.166992188 274.599609375 155.166992188 275.971679688 155.166992188 c 0,112,113
 290.171875 155.166992188 290.171875 155.166992188 296.638671875 138.8359375 c 0,114,115
 300.959960938 127.923828125 300.959960938 127.923828125 300.959960938 112 c 2,116,-1
 300.959960938 88 l 2,117,118
 300.959960938 39.50390625 300.959960938 39.50390625 296.6796875 7.078125 c 0,119,120
 294.474609375 -9.625 294.474609375 -9.625 289.317382812 -17.1953125 c 0,121,122
 282.653320312 -29.6748046875 282.653320312 -29.6748046875 273.2890625 -29.6748046875 c 0,123,124
 273.045898438 -29.6748046875 273.045898438 -29.6748046875 272.799804688 -29.6669921875 c 0,125,126
 267.58203125 -29.6669921875 267.58203125 -29.6669921875 262.577148438 -25.875 c 0,127,128
 261.421875 -25 261.421875 -25 260.700195312 -25 c 0,129,130
 209.984375 -25 209.984375 -25 162.796875 -26 c 0,131,132
 115.608398438 -27 115.608398438 -27 64.6796875 -27 c 2,133,-1
 55.4404296875 -27 l 2,134,135
 27.8369140625 -27 27.8369140625 -27 16.6162109375 -19.2724609375 c 0,136,137
 9.7861328125 -14.568359375 9.7861328125 -14.568359375 6.54296875 -6.7841796875 c 0,138,139
 3.2998046875 1 3.2998046875 1 3.2998046875 11.283203125 c 0,140,141
 3.2998046875 21.56640625 3.2998046875 21.56640625 7.380859375 30.841796875 c 0,142,143
 7.796875 31.8583984375 7.796875 31.8583984375 9.0693359375 36.677734375 c 0,144,145
 16.1044921875 52.6669921875 16.1044921875 52.6669921875 23.1943359375 63.919921875 c 0,146,147
 29.4912109375 73.916015625 29.4912109375 73.916015625 35.90625 86.5166015625 c 0,148,149
 66.0283203125 144.0625 66.0283203125 144.0625 93.8798828125 202.646484375 c 2,150,-1
 150.126953125 320.263671875 l 2,151,152
 154.416015625 329.956054688 154.416015625 329.956054688 162.649414062 345.923828125 c 0,153,154
 170.672851562 361.485351562 170.672851562 361.485351562 189.946289062 402.747070312 c 1,0,-1
EndSplineSet
Validated: 524289
EndChar

StartChar: exclam
Encoding: 33 33 18
Width: 163
Flags: W
LayerCount: 2
Fore
SplineSet
137.280273438 46 m 0,0,1
 137.280273438 4.9892578125 137.280273438 4.9892578125 117.875976562 -18.53125 c 0,2,3
 100.1640625 -40 100.1640625 -40 76.6171875 -40 c 0,4,5
 53.0712890625 -40 53.0712890625 -40 37.755859375 -12.5751953125 c 0,6,7
 22.4404296875 14.8486328125 22.4404296875 14.8486328125 22.4404296875 47 c 0,8,9
 22.4404296875 83.955078125 22.4404296875 83.955078125 39.0234375 110.477539062 c 0,10,11
 55.607421875 137 55.607421875 137 80.046875 137 c 0,12,13
 104.486328125 137 104.486328125 137 120.8828125 108.706054688 c 0,14,15
 137.280273438 80.4111328125 137.280273438 80.4111328125 137.280273438 46 c 0,0,1
93.5712890625 194.774414062 m 0,16,17
 88.8779296875 190.833007812 88.8779296875 190.833007812 85.052734375 190.833007812 c 0,18,19
 72.08984375 190.833007812 72.08984375 190.833007812 64.0341796875 199.98828125 c 2,20,-1
 58.150390625 206.673828125 l 1,21,22
 54.4892578125 267.697265625 54.4892578125 267.697265625 44.44921875 400.041992188 c 0,23,24
 34.408203125 532.387695312 34.408203125 532.387695312 30.4248046875 596.762695312 c 0,25,26
 26.44140625 661.137695312 26.44140625 661.137695312 25.1005859375 715.703125 c 0,27,28
 24.1083984375 739.202148438 24.1083984375 739.202148438 29.703125 751.3125 c 0,29,30
 37.228515625 767.599609375 37.228515625 767.599609375 52.6015625 767.599609375 c 0,31,32
 58.4150390625 767.599609375 58.4150390625 767.599609375 65.83984375 765.799804688 c 0,33,34
 73.2646484375 764 73.2646484375 764 82.9931640625 764 c 0,35,36
 92.7216796875 764 92.7216796875 764 100.971679688 765.5 c 0,37,38
 109.221679688 767 109.221679688 767 116.16015625 767 c 0,39,40
 129.305664062 767 129.305664062 767 137.758789062 756.520507812 c 0,41,42
 146.211914062 746.041992188 146.211914062 746.041992188 146.211914062 724.715820312 c 0,43,44
 146.211914062 713.100585938 146.211914062 713.100585938 139.374023438 631.506835938 c 0,45,46
 132.53515625 549.912109375 132.53515625 549.912109375 126.920898438 479.360351562 c 0,47,48
 114.450195312 322.642578125 114.450195312 322.642578125 103.419921875 216.1015625 c 0,49,50
 101.71484375 201.614257812 101.71484375 201.614257812 93.5712890625 194.774414062 c 0,16,17
EndSplineSet
Validated: 524321
EndChar

StartChar: quotedbl
Encoding: 34 34 19
Width: 200
Flags: W
LayerCount: 2
Fore
SplineSet
145.860351562 770 m 1,0,-1
 165.356445312 769.01171875 l 1,1,2
 169.172851562 769.857421875 169.172851562 769.857421875 170.415039062 769.857421875 c 0,3,4
 178.208984375 769.857421875 178.208984375 769.857421875 183.065429688 763.635742188 c 0,5,6
 193.200195312 750.654296875 193.200195312 750.654296875 193.200195312 730.966796875 c 0,7,8
 193.200195312 725.803710938 193.200195312 725.803710938 192.272460938 720.934570312 c 0,9,10
 190.072265625 701.220703125 190.072265625 701.220703125 186.049804688 645.500976562 c 0,11,12
 182.02734375 589.782226562 182.02734375 589.782226562 179.215820312 561.032226562 c 0,13,14
 176.405273438 532.283203125 176.405273438 532.283203125 173.634765625 522.385742188 c 0,15,16
 169.502929688 507.23828125 169.502929688 507.23828125 159.083007812 501.497070312 c 0,17,18
 153.461914062 498.400390625 153.461914062 498.400390625 149.809570312 498.400390625 c 0,19,20
 146.157226562 498.400390625 146.157226562 498.400390625 144.6796875 498.603515625 c 0,21,22
 136.69921875 499.703125 136.69921875 499.703125 129.813476562 507.004882812 c 0,23,24
 120.681640625 516.690429688 120.681640625 516.690429688 118.979492188 534.302734375 c 0,25,26
 107.991210938 643.912109375 107.991210938 643.912109375 105.83984375 677.8125 c 0,27,28
 103.431640625 715.755859375 103.431640625 715.755859375 103.431640625 730.534179688 c 0,29,30
 103.431640625 770 103.431640625 770 130.6796875 770 c 2,31,-1
 145.860351562 770 l 1,0,-1
50.8203125 770 m 1,32,-1
 70.3125 769.010742188 l 2,33,34
 72.814453125 769.857421875 72.814453125 769.857421875 75.375 769.857421875 c 0,35,36
 83.1689453125 769.857421875 83.1689453125 769.857421875 88.025390625 763.635742188 c 0,37,38
 98.16015625 750.654296875 98.16015625 750.654296875 98.16015625 730.966796875 c 0,39,40
 98.16015625 725.803710938 98.16015625 725.803710938 97.232421875 720.934570312 c 0,41,42
 95.9970703125 709.866210938 95.9970703125 709.866210938 93.8076171875 681.905273438 c 0,43,44
 87.6640625 603.456054688 87.6640625 603.456054688 84.1845703125 567.870117188 c 0,45,46
 80.705078125 532.284179688 80.705078125 532.284179688 77.9345703125 522.387695312 c 0,47,48
 73.923828125 507.671875 73.923828125 507.671875 64.1982421875 501.77734375 c 0,49,50
 58.625 498.400390625 58.625 498.400390625 54.87109375 498.400390625 c 0,51,52
 51.1171875 498.400390625 51.1171875 498.400390625 49.6396484375 498.603515625 c 0,53,54
 42.0419921875 499.650390625 42.0419921875 499.650390625 35.048828125 506.392578125 c 0,55,56
 25.048828125 516.03515625 25.048828125 516.03515625 23.279296875 534.299804688 c 0,57,58
 8.3916015625 682.807617188 8.3916015625 682.807617188 8.3916015625 732.734375 c 0,59,60
 8.3916015625 745.311523438 8.3916015625 745.311523438 12.1298828125 754.375 c 0,61,62
 18.5751953125 770 18.5751953125 770 34.98046875 770 c 2,63,-1
 50.8203125 770 l 1,32,-1
EndSplineSet
Validated: 524289
EndChar

StartChar: numbersign
Encoding: 35 35 20
Width: 345
Flags: W
LayerCount: 2
Fore
SplineSet
186.536132812 263 m 1,0,1
 188.627929688 277.868164062 188.627929688 277.868164062 190.436523438 289.578125 c 0,2,3
 192.245117188 301.2890625 192.245117188 301.2890625 193.600585938 310.772460938 c 1,4,5
 188.633789062 310.6640625 188.633789062 310.6640625 180.87890625 310.424804688 c 0,6,7
 173.124023438 310.184570312 173.124023438 310.184570312 161.830078125 310.067382812 c 1,8,9
 159.086914062 290.546875 159.086914062 290.546875 157.693359375 279.752929688 c 0,10,11
 156.299804688 268.958984375 156.299804688 268.958984375 155.469726562 263 c 1,12,-1
 186.536132812 263 l 1,0,1
178.099609375 423.823242188 m 1,13,-1
 207.841796875 423.099609375 l 1,14,15
 210.702148438 448.711914062 210.702148438 448.711914062 214.366210938 482.448242188 c 0,16,17
 218.030273438 516.184570312 218.030273438 516.184570312 225.720703125 583.505859375 c 1,18,-1
 235.498046875 587.950195312 l 2,19,20
 244.407226562 592 244.407226562 592 254.46484375 592 c 0,21,22
 272.907226562 592 272.907226562 592 281.108398438 589.514648438 c 2,23,-1
 296.0078125 585 l 1,24,25
 290.873046875 518.104492188 290.873046875 518.104492188 286.456054688 484.220703125 c 0,26,27
 282.0390625 450.336914062 282.0390625 450.336914062 278.333984375 423 c 1,28,-1
 336.26953125 423 l 1,29,-1
 338.919921875 402.921875 l 1,30,-1
 340.899414062 387.921875 l 1,31,-1
 341.219726562 385.49609375 l 1,32,-1
 341.219726562 383 l 1,33,-1
 341.219726562 369 l 2,34,35
 341.219726562 359.736328125 341.219726562 359.736328125 340.477539062 348.487304688 c 0,36,37
 339.31640625 330.89453125 339.31640625 330.89453125 332.780273438 319.010742188 c 2,38,-1
 327.166015625 308.802734375 l 1,39,40
 312.666015625 311 312.666015625 311 306.240234375 311 c 2,41,-1
 290.400390625 311 l 1,42,-1
 262.821289062 311 l 1,43,44
 257.040039062 270.119140625 257.040039062 270.119140625 255.971679688 263 c 1,45,-1
 302.134765625 263 l 1,46,-1
 307.084960938 252.614257812 l 2,47,48
 317.635742188 230.479492188 317.635742188 230.479492188 317.635742188 208.677734375 c 0,49,50
 317.635742188 187.069335938 317.635742188 187.069335938 308.29296875 160.328125 c 2,51,-1
 303.861328125 147.645507812 l 1,52,53
 269.408203125 145.375976562 269.408203125 145.375976562 240.015625 145.069335938 c 1,54,55
 237.3828125 123.599609375 237.3828125 123.599609375 234.078125 92.7294921875 c 0,56,57
 230.774414062 61.8583984375 230.774414062 61.8583984375 221.1484375 -23 c 1,58,-1
 207.240234375 -23 l 1,59,-1
 189.200195312 -24.3330078125 l 2,60,61
 181.077148438 -24.3330078125 181.077148438 -24.3330078125 150.92578125 -20.8193359375 c 1,62,63
 160.240234375 60.7255859375 160.240234375 60.7255859375 163.603515625 86.3447265625 c 0,64,65
 166.965820312 111.962890625 166.965820312 111.962890625 168.627929688 124.641601562 c 0,66,67
 170.290039062 137.3203125 170.290039062 137.3203125 171.296875 145 c 1,68,-1
 139.026367188 145 l 1,69,70
 135.991210938 120.252929688 135.991210938 120.252929688 121.013671875 -23 c 1,71,-1
 106.919921875 -23 l 1,72,-1
 88.3662109375 -24.3330078125 l 2,73,74
 80.0966796875 -24.3330078125 80.0966796875 -24.3330078125 49.9453125 -20.8193359375 c 1,75,76
 59.0146484375 58.5751953125 59.0146484375 58.5751953125 61.6728515625 78.96484375 c 0,77,78
 64.3310546875 99.353515625 64.3310546875 99.353515625 70.388671875 146.159179688 c 1,79,80
 45.490234375 146.576171875 45.490234375 146.576171875 12.5400390625 149.349609375 c 1,81,-1
 12.5400390625 173 l 2,82,83
 12.5400390625 177.927734375 12.5400390625 177.927734375 10.8896484375 185.427734375 c 0,84,85
 9.240234375 192.927734375 9.240234375 192.927734375 9.240234375 204.176757812 c 0,86,87
 9.240234375 215.42578125 9.240234375 215.42578125 11.0478515625 225.2890625 c 0,88,89
 12.8564453125 235.151367188 12.8564453125 235.151367188 13.3662109375 240.560546875 c 2,90,-1
 15.3876953125 262 l 1,91,-1
 29.7001953125 262 l 2,92,93
 41.427734375 262 41.427734375 262 56.6884765625 262.420898438 c 0,94,95
 71.94921875 262.840820312 71.94921875 262.840820312 86.1669921875 262.950195312 c 1,96,97
 88.150390625 277.48828125 88.150390625 277.48828125 89.794921875 288.952148438 c 0,98,99
 91.4404296875 300.416992188 91.4404296875 300.416992188 92.7470703125 310 c 1,100,-1
 50.4248046875 310 l 1,101,-1
 45.537109375 321.444335938 l 2,102,103
 34.9326171875 346.275390625 34.9326171875 346.275390625 34.9326171875 366.340820312 c 0,104,105
 34.9326171875 386.40625 34.9326171875 386.40625 45.1845703125 412.69140625 c 2,106,-1
 49.984375 425 l 1,107,-1
 59.400390625 425 l 1,108,-1
 106.919921875 424.10546875 l 1,109,110
 117.216796875 513.514648438 117.216796875 513.514648438 124.6015625 583.442382812 c 1,111,-1
 134.517578125 587.950195312 l 2,112,113
 143.426757812 592 143.426757812 592 153.83203125 592 c 0,114,115
 171.926757812 592 171.926757812 592 180.12890625 589.514648438 c 2,116,-1
 195.02734375 585 l 1,117,118
 189.907226562 518.278320312 189.907226562 518.278320312 185.793945312 484.213867188 c 0,119,120
 181.681640625 450.149414062 181.681640625 450.149414062 178.099609375 423.823242188 c 1,13,-1
EndSplineSet
Validated: 524289
EndChar

StartChar: dollar
Encoding: 36 36 21
Width: 417
Flags: W
LayerCount: 2
Fore
SplineSet
171.0234375 688.494140625 m 1,0,1
 154.287109375 680.806640625 154.287109375 680.806640625 140.80859375 665.138671875 c 0,2,3
 120.962890625 642.0703125 120.962890625 642.0703125 120.962890625 602.600585938 c 128,-1,4
 120.962890625 563.130859375 120.962890625 563.130859375 141.586914062 536.40625 c 0,5,6
 154.544921875 519.614257812 154.544921875 519.614257812 170.296875 504.892578125 c 1,7,8
 170.380859375 555.803710938 170.380859375 555.803710938 170.663085938 601.43359375 c 128,-1,9
 170.943359375 647.064453125 170.943359375 647.064453125 171.0234375 688.494140625 c 1,0,1
293.526367188 153.247070312 m 128,-1,11
 293.526367188 200.07421875 293.526367188 200.07421875 271.787109375 229.487304688 c 0,12,13
 258.299804688 247.733398438 258.299804688 247.733398438 241.025390625 263.928710938 c 1,14,-1
 241.025390625 49.34765625 l 1,15,16
 259.75 58.712890625 259.75 58.712890625 273.485351562 78.1142578125 c 0,17,10
 293.526367188 106.420898438 293.526367188 106.420898438 293.526367188 153.247070312 c 128,-1,11
241.025390625 763.9453125 m 1,18,19
 241.025390625 737.884765625 241.025390625 737.884765625 241.025390625 754.916992188 c 1,20,21
 261.41796875 748.323242188 261.41796875 748.323242188 292.184570312 729.041015625 c 1,22,23
 297.431640625 742.139648438 297.431640625 742.139648438 305.67578125 753.166992188 c 0,24,25
 315.994140625 769.6171875 315.994140625 769.6171875 333.299804688 769.6171875 c 0,26,27
 344.047851562 769.6171875 344.047851562 769.6171875 350.559570312 757.34765625 c 128,-1,28
 357.059570312 745.095703125 357.059570312 745.095703125 357.059570312 712.899414062 c 0,29,30
 357.059570312 698.508789062 357.059570312 698.508789062 356.076171875 683.939453125 c 128,-1,31
 355.090820312 669.370117188 355.090820312 669.370117188 355.151367188 659.709960938 c 128,-1,32
 355.211914062 650.048828125 355.211914062 650.048828125 355.211914062 624.407226562 c 128,-1,33
 355.211914062 598.764648438 355.211914062 598.764648438 352.965820312 555.338867188 c 1,34,35
 347.638671875 521.002929688 347.638671875 521.002929688 328.6796875 521.002929688 c 0,36,37
 323.99609375 521.002929688 323.99609375 521.002929688 321.416992188 521.926757812 c 128,-1,38
 318.836914062 522.849609375 318.836914062 522.849609375 318.611328125 522.89453125 c 0,39,40
 304.212890625 523.036132812 304.212890625 523.036132812 295.192382812 544.487304688 c 0,41,42
 290.5625 555.495117188 290.5625 555.495117188 287.896484375 569.233398438 c 128,-1,43
 285.229492188 582.970703125 285.229492188 582.970703125 283.171875 594.388671875 c 128,-1,44
 281.114257812 605.807617188 281.114257812 605.807617188 277.268554688 613.424804688 c 1,45,46
 267.556640625 641.46875 267.556640625 641.46875 250.99609375 656.9921875 c 0,47,48
 245.614257812 662.037109375 245.614257812 662.037109375 240.229492188 665.815429688 c 1,49,50
 240.229492188 546.7421875 240.229492188 546.7421875 240.229492188 448.642578125 c 1,51,52
 258.580078125 433.784179688 258.580078125 433.784179688 276.9296875 426.827148438 c 2,53,54
 301.625976562 412.146484375 301.625976562 412.146484375 319.170898438 397.153320312 c 1,55,56
 351.276367188 366.140625 351.276367188 366.140625 368.979492188 317.54296875 c 128,-1,57
 386.682617188 268.9453125 386.682617188 268.9453125 387.416992188 214.241210938 c 1,58,59
 387.416992188 222.296875 387.416992188 222.296875 387.416992188 213.779296875 c 2,60,61
 387.416992188 107.63671875 387.416992188 107.63671875 345.346679688 46.8427734375 c 0,62,63
 308.489257812 -6.4140625 308.489257812 -6.4140625 240.229492188 -21.2861328125 c 1,64,65
 240.229492188 -6.0869140625 240.229492188 -6.0869140625 240.229492188 -33.890625 c 1,66,67
 240.229492188 -19.193359375 240.229492188 -19.193359375 240.229492188 -49.015625 c 2,68,69
 240.229492188 -58.275390625 240.229492188 -58.275390625 239.234375 -66.560546875 c 2,70,71
 238.016601562 -52.2802734375 238.016601562 -52.2802734375 236.799804688 -88 c 1,72,-1
 219.556640625 -88 l 1,73,-1
 202.859375 -88 l 2,74,75
 190.080078125 -88 190.080078125 -88 184.650390625 -85.7236328125 c 2,76,77
 178.970703125 -58.3427734375 178.970703125 -58.3427734375 173.291015625 -80.9609375 c 1,78,79
 172.307617188 -48.5478515625 172.307617188 -48.5478515625 171.326171875 -66.1337890625 c 2,80,81
 170.259765625 -58.5234375 170.259765625 -58.5234375 170.259765625 -49.9248046875 c 2,82,83
 170.259765625 -19.990234375 170.259765625 -19.990234375 170.259765625 -34.7890625 c 1,84,85
 170.259765625 -8.3212890625 170.259765625 -8.3212890625 170.259765625 -25.2548828125 c 1,86,87
 154.829101562 -22.1435546875 154.829101562 -22.1435546875 136.28515625 -13.4765625 c 128,-1,88
 117.741210938 -4.80859375 117.741210938 -4.80859375 109.657226562 -0.8779296875 c 0,89,90
 102.528320312 3.0517578125 102.528320312 3.0517578125 100.580078125 3.0517578125 c 128,-1,91
 98.6328125 3.0517578125 98.6328125 3.0517578125 98.33203125 3.0263671875 c 0,92,93
 96.2138671875 -0.6181640625 96.2138671875 -0.6181640625 94.2939453125 -5.5703125 c 0,94,95
 89.7158203125 -17.3818359375 89.7158203125 -17.3818359375 83.162109375 -26.10546875 c 0,96,97
 73.794921875 -38.5732421875 73.794921875 -38.5732421875 56.759765625 -38.5732421875 c 0,98,99
 45.853515625 -38.5732421875 45.853515625 -38.5732421875 40.7841796875 -28.0126953125 c 128,-1,100
 35.7158203125 -17.453125 35.7158203125 -17.453125 34.3583984375 -4.802734375 c 128,-1,101
 33 7.8466796875 33 7.8466796875 33 25.328125 c 128,-1,102
 33 42.8095703125 33 42.8095703125 33.990234375 60.310546875 c 128,-1,103
 34.98046875 77.8115234375 34.98046875 77.8115234375 34.98046875 95.9169921875 c 0,104,105
 34.98046875 149.407226562 34.98046875 149.407226562 37.0615234375 181.646484375 c 0,106,107
 38.5078125 200.299804688 38.5078125 200.299804688 46.205078125 208.575195312 c 128,-1,108
 53.9033203125 216.850585938 53.9033203125 216.850585938 62.0400390625 216.850585938 c 0,109,110
 66.7880859375 216.850585938 66.7880859375 216.850585938 71.638671875 214.954101562 c 1,111,112
 80.2646484375 214.74609375 80.2646484375 214.74609375 86.732421875 206.537109375 c 0,113,114
 94.7041015625 196.420898438 94.7041015625 196.420898438 99.23828125 168.259765625 c 0,115,116
 103.873046875 139.470703125 103.873046875 139.470703125 108.934570312 122.896484375 c 0,117,118
 118.49609375 94.0361328125 118.49609375 94.0361328125 141.177734375 77.6923828125 c 0,119,120
 155.442382812 67.4130859375 155.442382812 67.4130859375 170.259765625 62.396484375 c 1,121,122
 170.259765625 200.9296875 170.259765625 200.9296875 170.259765625 319.944335938 c 1,123,124
 146.787109375 334.903320312 146.787109375 334.903320312 120.451171875 352.80859375 c 0,125,126
 97.1748046875 370.713867188 97.1748046875 370.713867188 77.2802734375 396.637695312 c 128,-1,127
 57.384765625 422.561523438 57.384765625 422.561523438 44.2021484375 458.192382812 c 128,-1,128
 31.01953125 493.823242188 31.01953125 493.823242188 31.01953125 541.676757812 c 128,-1,129
 31.01953125 589.530273438 31.01953125 589.530273438 42.1796875 628.451171875 c 128,-1,130
 53.337890625 667.373046875 53.337890625 667.373046875 73.1474609375 695.23046875 c 0,131,132
 107.764648438 743.912109375 107.764648438 743.912109375 171.0546875 756.927734375 c 1,133,134
 171.0546875 753.193359375 171.0546875 753.193359375 171.0546875 792.97265625 c 1,135,136
 171.0546875 778.30859375 171.0546875 778.30859375 171.0546875 810.024414062 c 1,137,138
 192.471679688 819.002929688 192.471679688 819.002929688 197.293945312 819 c 2,139,-1
 204.44921875 819 l 2,140,141
 209.19921875 819 209.19921875 819 215.13671875 818.42578125 c 0,142,143
 227.611328125 817.21875 227.611328125 817.21875 235.995117188 806.673828125 c 2,144,145
 239.614257812 777.123046875 239.614257812 777.123046875 243.232421875 797.571289062 c 1,146,147
 241.025390625 781.822265625 241.025390625 781.822265625 241.025390625 777.1796875 c 2,148,149
 241.025390625 748.407226562 241.025390625 748.407226562 241.025390625 763.9453125 c 1,18,19
318.557617188 532.009765625 m 1,150,-1
 318.557617188 532.009765625 l 1,150,-1
EndSplineSet
Validated: 524325
EndChar

StartChar: percent
Encoding: 37 37 22
Width: 592
Flags: W
LayerCount: 2
Fore
SplineSet
465.369140625 214.287109375 m 128,-1,1
 450.842773438 233 450.842773438 233 430.629882812 233 c 0,2,3
 415.123046875 233 415.123046875 233 400.678710938 215.634765625 c 128,-1,4
 386.235351562 198.268554688 386.235351562 198.268554688 385.6640625 167.796875 c 2,5,6
 385.659179688 178.029296875 385.659179688 178.029296875 385.655273438 167.440429688 c 2,7,8
 385.56640625 164.782226562 385.56640625 164.782226562 385.56640625 162.23046875 c 0,9,10
 385.56640625 131.678710938 385.56640625 131.678710938 398.797851562 116.338867188 c 128,-1,11
 412.028320312 101 412.028320312 101 430.978515625 101 c 128,-1,12
 449.9296875 101 449.9296875 101 464.634765625 115.91796875 c 128,-1,13
 479.271484375 130.8359375 479.271484375 130.8359375 479.8203125 161.758789062 c 0,14,0
 479.77734375 195.573242188 479.77734375 195.573242188 465.369140625 214.287109375 c 128,-1,1
192.698242188 604.287109375 m 128,-1,16
 178.171875 623 178.171875 623 157.959960938 623 c 0,17,18
 142.547851562 623 142.547851562 623 128.057617188 605.267578125 c 128,-1,19
 113.56640625 587.53515625 113.56640625 587.53515625 112.994140625 556.956054688 c 2,20,21
 112.989257812 546.303710938 112.989257812 546.303710938 112.984375 556.599609375 c 2,22,23
 112.896484375 553.94140625 112.896484375 553.94140625 112.896484375 551.391601562 c 0,24,25
 112.896484375 520.984375 112.896484375 520.984375 126.076171875 505.9921875 c 128,-1,26
 139.256835938 491 139.256835938 491 158.2578125 491 c 128,-1,27
 177.259765625 491 177.259765625 491 191.96484375 505.91796875 c 128,-1,28
 206.669921875 520.8359375 206.669921875 520.8359375 207.272460938 551.758789062 c 0,29,15
 207.225585938 585.573242188 207.225585938 585.573242188 192.698242188 604.287109375 c 128,-1,16
443.115234375 740 m 1,30,-1
 452.385742188 740 l 2,31,32
 465.5859375 740 465.5859375 740 482.313476562 725.181640625 c 0,33,34
 493.431640625 714.592773438 493.431640625 714.592773438 500.244140625 708.962890625 c 2,35,36
 508.209960938 727.379882812 508.209960938 727.379882812 516.17578125 695.795898438 c 1,37,38
 511.112304688 709.420898438 511.112304688 709.420898438 506.048828125 673.046875 c 2,39,40
 486.595703125 629.341796875 486.595703125 629.341796875 464.328125 588.458007812 c 0,41,42
 441.267578125 547.57421875 441.267578125 547.57421875 417.288085938 506.489257812 c 0,43,44
 347.66015625 383.47265625 347.66015625 383.47265625 278.55859375 263.739257812 c 128,-1,45
 209.453125 143.998046875 209.453125 143.998046875 136.206054688 1.46875 c 1,46,47
 129.580078125 30.123046875 129.580078125 30.123046875 122.955078125 8.77734375 c 2,48,49
 117.368164062 11.859375 117.368164062 11.859375 108.083007812 21.1923828125 c 0,50,51
 99.330078125 30.5263671875 99.330078125 30.5263671875 86.32421875 37.3798828125 c 2,52,53
 75.6787109375 67.990234375 75.6787109375 67.990234375 65.0341796875 48.6005859375 c 1,54,55
 165.34765625 242.24609375 165.34765625 242.24609375 257.3984375 401.663085938 c 128,-1,56
 349.455078125 561.090820312 349.455078125 561.090820312 443.115234375 740 c 1,30,-1
482.396484375 331.1171875 m 0,57,58
 504.774414062 318.271484375 504.774414062 318.271484375 521.904296875 295.171875 c 128,-1,59
 539.0546875 272.045898438 539.0546875 272.045898438 549.3671875 240.244140625 c 128,-1,60
 559.6796875 208.442382812 559.6796875 208.442382812 559.6796875 171.588867188 c 128,-1,61
 559.6796875 134.735351562 559.6796875 134.735351562 550.654296875 101.829101562 c 128,-1,62
 541.583007812 68.7607421875 541.583007812 68.7607421875 525.204101562 44.03515625 c 128,-1,63
 508.77734375 19.236328125 508.77734375 19.236328125 486.19921875 4.6552734375 c 0,64,65
 462.143554688 -11 462.143554688 -11 432.080078125 -11 c 128,-1,66
 402.069335938 -11 402.069335938 -11 376.568359375 1.6826171875 c 0,67,68
 351.067382812 13.5009765625 351.067382812 13.5009765625 332.603515625 37.2294921875 c 0,69,70
 314.272460938 60.7861328125 314.272460938 60.7861328125 304.646484375 93.05859375 c 128,-1,71
 295.01953125 125.330078125 295.01953125 125.330078125 295.01953125 163.170898438 c 128,-1,72
 295.01953125 201.01171875 295.01953125 201.01171875 304.571289062 233.56640625 c 128,-1,73
 314.123046875 266.12109375 314.123046875 266.12109375 332.17578125 290.939453125 c 128,-1,74
 350.35546875 315.932617188 350.35546875 315.932617188 375.572265625 329.975585938 c 128,-1,75
 400.7578125 344 400.7578125 344 429.436523438 344 c 128,-1,76
 458.114257812 344 458.114257812 344 482.396484375 331.1171875 c 0,57,58
210.103515625 720.16796875 m 0,77,78
 234.69140625 707.315429688 234.69140625 707.315429688 253.513671875 684.202148438 c 128,-1,79
 272.400390625 661.010742188 272.400390625 661.010742188 283.709960938 628.712890625 c 128,-1,80
 295.01953125 596.416015625 295.01953125 596.416015625 295.01953125 559.545898438 c 128,-1,81
 295.01953125 522.676757812 295.01953125 522.676757812 285.06640625 490.165039062 c 128,-1,82
 275.099609375 457.614257812 275.099609375 457.614257812 257.138671875 432.922851562 c 128,-1,83
 239.1796875 408.233398438 239.1796875 408.233398438 214.392578125 393.1171875 c 128,-1,84
 189.60546875 378 189.60546875 378 159.41015625 378 c 128,-1,85
 129.213867188 378 129.213867188 378 104.762695312 390.3671875 c 0,86,87
 81.9072265625 402.734375 81.9072265625 402.734375 65.2255859375 426.28515625 c 128,-1,88
 48.6650390625 449.661132812 48.6650390625 449.661132812 39.4892578125 481.504882812 c 128,-1,89
 30.3603515625 513.184570312 30.3603515625 513.184570312 30.3603515625 551.189453125 c 128,-1,90
 30.3603515625 589.193359375 30.3603515625 589.193359375 39.3857421875 622.109375 c 128,-1,91
 48.45703125 655.188476562 48.45703125 655.188476562 64.9013671875 680.020507812 c 128,-1,92
 81.3447265625 704.853515625 81.3447265625 704.853515625 103.909179688 718.889648438 c 0,93,94
 128.029296875 734 128.029296875 734 156.737304688 734 c 128,-1,95
 185.444335938 734 185.444335938 734 210.103515625 720.16796875 c 0,77,78
EndSplineSet
Validated: 524289
EndChar

StartChar: ampersand
Encoding: 38 38 23
Width: 535
Flags: W
LayerCount: 2
Fore
SplineSet
219.295898438 459.565429688 m 0,0,1
 232.74609375 473.533203125 232.74609375 473.533203125 240.123046875 497.084960938 c 0,2,3
 247.5 520.637695312 247.5 520.637695312 247.5 549.404296875 c 0,4,5
 247.5 578.170898438 247.5 578.170898438 237.297851562 597.30859375 c 0,6,7
 228.400390625 614 228.400390625 614 210.505859375 614 c 0,8,9
 192.611328125 614 192.611328125 614 182.765625 598.065429688 c 0,10,11
 172.919921875 582.130859375 172.919921875 582.130859375 172.919921875 556 c 0,12,13
 172.919921875 539.627929688 172.919921875 539.627929688 177.498046875 524.984375 c 0,14,15
 179.557617188 517.184570312 179.557617188 517.184570312 184.78515625 506.345703125 c 0,16,17
 193.430664062 488.419921875 193.430664062 488.419921875 212.892578125 463.649414062 c 0,18,19
 215.272460938 460.62109375 215.272460938 460.62109375 217.532226562 458.09375 c 0,20,21
 218.404296875 458.854492188 218.404296875 458.854492188 219.295898438 459.565429688 c 0,0,1
115.5 198 m 0,22,23
 115.5 143.583007812 115.5 143.583007812 140.412109375 107.592773438 c 0,24,25
 152.440429688 90.2158203125 152.440429688 90.2158203125 168.006835938 80.1083984375 c 0,26,27
 183.573242188 70 183.573242188 70 201.959960938 70 c 0,28,29
 229.823242188 70 229.823242188 70 250.028320312 87.931640625 c 0,30,31
 270.234375 105.862304688 270.234375 105.862304688 290.52734375 137.541015625 c 0,32,33
 293.991210938 142.7890625 293.991210938 142.7890625 295.928710938 147.327148438 c 0,34,35
 297.8671875 151.866210938 297.8671875 151.866210938 299.1015625 154.7265625 c 0,36,37
 297.110351562 159.51953125 297.110351562 159.51953125 292.14453125 168.069335938 c 0,38,39
 282.755859375 184.234375 282.755859375 184.234375 278.857421875 191.348632812 c 0,40,41
 235.12109375 273.734375 235.12109375 273.734375 175.663085938 336.639648438 c 1,42,43
 151.055664062 319.208007812 151.055664062 319.208007812 134.299804688 285.485351562 c 0,44,45
 115.5 247.646484375 115.5 247.646484375 115.5 198 c 0,22,23
124.657226562 640.211914062 m 0,46,47
 139.428710938 663.770507812 139.428710938 663.770507812 160.000976562 677.885742188 c 0,48,49
 180.573242188 692 180.573242188 692 204.08203125 692 c 0,50,51
 254.42578125 692 254.42578125 692 286.287109375 661.6875 c 0,52,53
 303.9609375 644.873046875 303.9609375 644.873046875 314.669921875 616.7890625 c 0,54,55
 325.379882812 588.704101562 325.379882812 588.704101562 325.379882812 549 c 0,56,57
 325.379882812 517.713867188 325.379882812 517.713867188 316.538085938 492.74609375 c 0,58,59
 307.696289062 467.779296875 307.696289062 467.779296875 294.95703125 449.044921875 c 0,60,61
 280.483398438 427.760742188 280.483398438 427.760742188 261.40625 410.186523438 c 1,62,63
 278.153320312 390.903320312 278.153320312 390.903320312 292.56640625 369.06640625 c 0,64,65
 312.599609375 338.711914062 312.599609375 338.711914062 344.693359375 283.513671875 c 0,66,67
 350.059570312 274.28515625 350.059570312 274.28515625 355.231445312 265.448242188 c 1,68,69
 359.954101562 274.328125 359.954101562 274.328125 366.463867188 285.770507812 c 0,70,71
 390.719726562 328.401367188 390.719726562 328.401367188 390.719726562 357 c 0,72,73
 390.719726562 364.056640625 390.719726562 364.056640625 390.015625 369.254882812 c 1,74,75
 386.221679688 371.454101562 386.221679688 371.454101562 382.697265625 374.125 c 0,76,77
 370.259765625 383.546875 370.259765625 383.546875 370.259765625 412 c 0,78,79
 370.259765625 422.096679688 370.259765625 422.096679688 374.69140625 430.489257812 c 0,80,81
 379.122070312 438.880859375 379.122070312 438.880859375 387.19921875 441.940429688 c 0,82,83
 395.276367188 445 395.276367188 445 401.940429688 445 c 2,84,-1
 446.16015625 445 l 2,85,86
 460.581054688 445 460.581054688 445 475.1015625 447 c 0,87,88
 489.62109375 449 489.62109375 449 506.219726562 449 c 0,89,90
 515.37890625 449 515.37890625 449 522.926757812 440.995117188 c 0,91,92
 533.280273438 430.013671875 533.280273438 430.013671875 533.280273438 410.500976562 c 0,93,94
 533.280273438 390.989257812 533.280273438 390.989257812 523.775390625 379.46875 c 0,95,96
 513.502929688 367.016601562 513.502929688 367.016601562 496.97265625 365.543945312 c 0,97,98
 490.872070312 365 490.872070312 365 486.883789062 365 c 0,99,100
 482.895507812 365 482.895507812 365 474.831054688 355.374023438 c 0,101,102
 466.767578125 345.748046875 466.767578125 345.748046875 457.389648438 329.705078125 c 0,103,104
 448.01171875 313.662109375 448.01171875 313.662109375 440.61328125 297.091796875 c 0,105,106
 423.525390625 258.819335938 423.525390625 258.819335938 388.8828125 192.952148438 c 1,107,108
 412.62890625 142.852539062 412.62890625 142.852539062 435.3515625 112.166992188 c 0,109,110
 449.076171875 93.6318359375 449.076171875 93.6318359375 463.926757812 81.515625 c 0,111,112
 478.776367188 69.400390625 478.776367188 69.400390625 498.487304688 66.5107421875 c 1,113,114
 504.551757812 62.572265625 504.551757812 62.572265625 511.057617188 59.6728515625 c 0,115,116
 517.5625 56.7744140625 517.5625 56.7744140625 523.5 50.2314453125 c 0,117,118
 534.291992188 38.33984375 534.291992188 38.33984375 534.291992188 18.048828125 c 0,119,120
 534.291992188 3.98828125 534.291992188 3.98828125 527.411132812 -12.3955078125 c 2,121,-1
 524.251953125 -19.9169921875 l 1,122,123
 513.44921875 -25.373046875 513.44921875 -25.373046875 506.055664062 -27.1416015625 c 0,124,125
 498.822265625 -28.8720703125 498.822265625 -28.8720703125 484.250976562 -29.9365234375 c 0,126,127
 469.678710938 -31 469.678710938 -31 463.98046875 -31 c 0,128,129
 427.908203125 -31 427.908203125 -31 404.251953125 -13.9326171875 c 0,130,131
 380.596679688 3.134765625 380.596679688 3.134765625 364.903320312 25.806640625 c 0,132,133
 349.209960938 48.478515625 349.209960938 48.478515625 337.767578125 72.318359375 c 0,134,135
 334.75390625 78.5966796875 334.75390625 78.5966796875 331.740234375 84.1552734375 c 1,136,137
 305.998046875 34.9375 305.998046875 34.9375 265.834960938 -7.517578125 c 0,138,139
 250.018554688 -24.236328125 250.018554688 -24.236328125 235.592773438 -32.3466796875 c 0,140,141
 206.49609375 -49.9072265625 206.49609375 -49.9072265625 170.615234375 -50.9951171875 c 2,142,-1
 170.448242188 -51 l 2,143,144
 146.407226562 -51 146.407226562 -51 126.510742188 -42.2060546875 c 0,145,146
 103.510742188 -34.1982421875 103.510742188 -34.1982421875 84.3447265625 -15.408203125 c 0,147,148
 46.7509765625 21.44921875 46.7509765625 21.44921875 31.2861328125 88.2294921875 c 0,149,150
 23.759765625 120.727539062 23.759765625 120.727539062 23.759765625 157 c 2,151,-1
 23.759765625 176 l 2,152,153
 23.759765625 237.301757812 23.759765625 237.301757812 46.740234375 283.913085938 c 0,154,155
 69.720703125 330.525390625 69.720703125 330.525390625 100.61328125 361.004882812 c 0,156,157
 112.72265625 372.875976562 112.72265625 372.875976562 122.298828125 379.815429688 c 0,158,159
 131.875 386.754882812 131.875 386.754882812 134.642578125 389.0703125 c 1,160,161
 120.758789062 410.310546875 120.758789062 410.310546875 109.063476562 438.833984375 c 0,162,163
 93.0595703125 477.868164062 93.0595703125 477.868164062 93.0595703125 516.430664062 c 0,164,165
 93.0595703125 554.993164062 93.0595703125 554.993164062 101.532226562 585.916992188 c 0,166,167
 110.00390625 616.840820312 110.00390625 616.840820312 124.657226562 640.211914062 c 0,46,47
EndSplineSet
Validated: 524289
EndChar

StartChar: quotesingle
Encoding: 39 39 24
Width: 104
Flags: W
LayerCount: 2
Fore
SplineSet
50.8203125 770 m 1,0,-1
 70.3125 769.010742188 l 2,1,2
 72.814453125 769.857421875 72.814453125 769.857421875 75.375 769.857421875 c 0,3,4
 83.1689453125 769.857421875 83.1689453125 769.857421875 88.025390625 763.635742188 c 0,5,6
 98.16015625 750.654296875 98.16015625 750.654296875 98.16015625 730.966796875 c 0,7,8
 98.16015625 725.803710938 98.16015625 725.803710938 97.232421875 720.934570312 c 0,9,10
 95.9970703125 709.866210938 95.9970703125 709.866210938 93.8076171875 681.905273438 c 0,11,12
 87.6640625 603.456054688 87.6640625 603.456054688 84.1845703125 567.870117188 c 0,13,14
 80.705078125 532.284179688 80.705078125 532.284179688 77.9345703125 522.387695312 c 0,15,16
 73.923828125 507.671875 73.923828125 507.671875 64.1982421875 501.77734375 c 0,17,18
 58.625 498.400390625 58.625 498.400390625 54.87109375 498.400390625 c 0,19,20
 51.1171875 498.400390625 51.1171875 498.400390625 49.6396484375 498.603515625 c 0,21,22
 42.0419921875 499.650390625 42.0419921875 499.650390625 35.048828125 506.392578125 c 0,23,24
 25.048828125 516.03515625 25.048828125 516.03515625 23.279296875 534.299804688 c 0,25,26
 8.3916015625 682.807617188 8.3916015625 682.807617188 8.3916015625 732.734375 c 0,27,28
 8.3916015625 745.311523438 8.3916015625 745.311523438 12.1298828125 754.375 c 0,29,30
 18.5751953125 770 18.5751953125 770 34.98046875 770 c 2,31,-1
 50.8203125 770 l 1,0,-1
EndSplineSet
Validated: 524289
EndChar

StartChar: parenleft
Encoding: 40 40 25
Width: 238
Flags: W
LayerCount: 2
Fore
SplineSet
106.919921875 269 m 0,0,1
 106.919921875 151.172851562 106.919921875 151.172851562 131.776367188 41.0869140625 c 0,2,3
 139.806640625 5.51953125 139.806640625 5.51953125 151.583984375 -24.533203125 c 2,4,-1
 182.379882812 -107.819335938 l 2,5,6
 196.4609375 -145.951171875 196.4609375 -145.951171875 219.25390625 -175.689453125 c 1,7,8
 226.973632812 -190.727539062 226.973632812 -190.727539062 226.973632812 -206.334960938 c 0,9,10
 226.973632812 -212.869140625 226.973632812 -212.869140625 225.748046875 -219.372070312 c 0,11,12
 222.911132812 -234.416992188 222.911132812 -234.416992188 214.796875 -242.124023438 c 0,13,14
 208.609375 -248 208.609375 -248 201.474609375 -248 c 0,15,16
 188.76171875 -248 188.76171875 -248 174.620117188 -230.267578125 c 0,17,18
 164.456054688 -217.521484375 164.456054688 -217.521484375 159.810546875 -210.483398438 c 0,19,20
 96.546875 -112.568359375 96.546875 -112.568359375 59.4931640625 2.833984375 c 0,21,22
 22.4404296875 118.236328125 22.4404296875 118.236328125 22.4404296875 259 c 0,23,24
 22.4404296875 378.903320312 22.4404296875 378.903320312 55.3115234375 502.33984375 c 0,25,26
 87.162109375 621.935546875 87.162109375 621.935546875 144.0703125 710.612304688 c 0,27,28
 154.4765625 729.887695312 154.4765625 729.887695312 167.762695312 746.357421875 c 0,29,30
 175.293945312 755.693359375 175.293945312 755.693359375 183.640625 765.178710938 c 0,31,32
 191.987304688 774.663085938 191.987304688 774.663085938 199.891601562 776.659179688 c 2,33,-1
 205.783203125 778.147460938 l 1,34,-1
 210.916015625 773.610351562 l 2,35,36
 222.825195312 763.084960938 222.825195312 763.084960938 228.995117188 745.9453125 c 2,37,-1
 231.712890625 738.395507812 l 1,38,-1
 230.775390625 729.866210938 l 2,39,40
 229.1796875 715.360351562 229.1796875 715.360351562 220.486328125 703.720703125 c 0,41,42
 197.420898438 668.68359375 197.420898438 668.68359375 182.546875 635.819335938 c 0,43,44
 145.680664062 554.920898438 145.680664062 554.920898438 126.293945312 461.501953125 c 0,45,46
 106.919921875 368.145507812 106.919921875 368.145507812 106.919921875 269 c 0,0,1
EndSplineSet
Validated: 524289
EndChar

StartChar: parenright
Encoding: 41 41 26
Width: 238
Flags: W
LayerCount: 2
Fore
SplineSet
212.51953125 269 m 0,0,1
 212.51953125 176.172851562 212.51953125 176.172851562 194.025390625 86.3984375 c 0,2,3
 170.185546875 -29.3203125 170.185546875 -29.3203125 124.892578125 -123.681640625 c 0,4,5
 101.153320312 -173.138671875 101.153320312 -173.138671875 73.41796875 -211.0625 c 0,6,7
 58.55859375 -231.379882812 58.55859375 -231.379882812 43.1484375 -244.721679688 c 2,8,-1
 37.189453125 -249.881835938 l 1,9,-1
 30.5595703125 -247.091796875 l 2,10,11
 21.845703125 -243.423828125 21.845703125 -243.423828125 15.6455078125 -235.536132812 c 0,12,13
 7.2119140625 -224.80859375 7.2119140625 -224.80859375 4.451171875 -208.07421875 c 2,14,-1
 2.39453125 -195.608398438 l 1,15,16
 30.03515625 -146.337890625 30.03515625 -146.337890625 50.572265625 -105.498046875 c 0,17,18
 101.528320312 -4.1630859375 101.528320312 -4.1630859375 118.16015625 116.143554688 c 0,19,20
 128.040039062 187.610351562 128.040039062 187.610351562 128.040039062 262 c 0,21,22
 128.040039062 419.91796875 128.040039062 419.91796875 88.2763671875 551.62109375 c 0,23,24
 74.7685546875 596.364257812 74.7685546875 596.364257812 56.49609375 634.549804688 c 0,25,26
 38.224609375 672.735351562 38.224609375 672.735351562 27.6689453125 688.729492188 c 0,27,28
 17.11328125 704.72265625 17.11328125 704.72265625 10.2626953125 718.994140625 c 1,29,30
 7.609375 727.034179688 7.609375 727.034179688 7.609375 734.000976562 c 0,31,32
 7.609375 746.197265625 7.609375 746.197265625 14.0048828125 759.614257812 c 0,33,34
 23.2451171875 779 23.2451171875 779 34.98046875 779 c 0,35,36
 45.173828125 779 45.173828125 779 60.052734375 760.212890625 c 0,37,38
 63.955078125 755.28515625 63.955078125 755.28515625 67.876953125 750.423828125 c 0,39,40
 71.798828125 745.5625 71.798828125 745.5625 74.365234375 741.673828125 c 0,41,42
 137.754882812 645.62890625 137.754882812 645.62890625 175.137695312 527.15234375 c 0,43,44
 212.51953125 408.674804688 212.51953125 408.674804688 212.51953125 269 c 0,0,1
EndSplineSet
Validated: 524289
EndChar

StartChar: asterisk
Encoding: 42 42 27
Width: 351
Flags: W
LayerCount: 2
Fore
SplineSet
3.7158203125 553.385742188 m 0,0,1
 1.099609375 560.520507812 1.099609375 560.520507812 1.099609375 569.8125 c 0,2,3
 1.099609375 580.240234375 1.099609375 580.240234375 8.001953125 601.15625 c 0,4,5
 8.470703125 602.575195312 8.470703125 602.575195312 9.0712890625 605.306640625 c 0,6,7
 9.6728515625 608.038085938 9.6728515625 608.038085938 11.0234375 612.64453125 c 0,8,9
 12.375 617.250976562 12.375 617.250976562 14.9736328125 626.666015625 c 0,10,11
 15.87890625 634.393554688 15.87890625 634.393554688 18.607421875 640.659179688 c 0,12,13
 24.8544921875 655 24.8544921875 655 35.87109375 655 c 0,14,15
 46.88671875 655 46.88671875 655 55.2099609375 645.28515625 c 0,16,17
 61.01171875 639.591796875 61.01171875 639.591796875 77.099609375 626.209960938 c 0,18,19
 112.551757812 596.71875 112.551757812 596.71875 137.936523438 573.805664062 c 0,20,21
 142.443359375 569.737304688 142.443359375 569.737304688 146.30859375 566.150390625 c 1,22,23
 144.81640625 580.80859375 144.81640625 580.80859375 141.078125 617.412109375 c 0,24,25
 133.997070312 686.736328125 133.997070312 686.736328125 131.92578125 730.672851562 c 0,26,27
 133.13671875 745.350585938 133.13671875 745.350585938 135.959960938 753.90625 c 0,28,29
 142.260742188 773 142.260742188 773 160.379882812 773 c 2,30,-1
 172.259765625 773 l 2,31,32
 175.88671875 773 175.88671875 773 180.7890625 771.514648438 c 2,33,-1
 180.85546875 771.499023438 l 2,34,35
 182.55859375 771.1015625 182.55859375 771.1015625 187.334960938 771.012695312 c 0,36,37
 190.258789062 771.444335938 190.258789062 771.444335938 191.204101562 771.444335938 c 0,38,39
 197.235351562 771.444335938 197.235351562 771.444335938 203.00390625 766.58203125 c 0,40,41
 208.7734375 761.719726562 208.7734375 761.719726562 211.5703125 751.830078125 c 0,42,43
 214.368164062 741.940429688 214.368164062 741.940429688 214.368164062 734.969726562 c 0,44,45
 214.368164062 727.998046875 214.368164062 727.998046875 213.400390625 722.958984375 c 0,46,47
 212.24609375 712.0390625 212.24609375 712.0390625 210.69921875 684.381835938 c 0,48,49
 206.385742188 607.247070312 206.385742188 607.247070312 203.078125 569.180664062 c 1,50,51
 234.72265625 597.131835938 234.72265625 597.131835938 262.880859375 620.4765625 c 0,52,53
 291.361328125 644.087890625 291.361328125 644.087890625 297.44140625 650.998046875 c 0,54,55
 305.03515625 655.599609375 305.03515625 655.599609375 311.705078125 655.599609375 c 0,56,57
 324.465820312 655.599609375 324.465820312 655.599609375 330.923828125 641.663085938 c 0,58,59
 333.581054688 635.928710938 333.581054688 635.928710938 334.627929688 628.870117188 c 0,60,61
 337.256835938 620.83203125 337.256835938 620.83203125 338.759765625 615.82421875 c 0,62,63
 340.284179688 610.744140625 340.284179688 610.744140625 342.286132812 604.67578125 c 0,64,65
 344.288085938 598.608398438 344.288085938 598.608398438 346.310546875 591.4765625 c 0,66,67
 349.76171875 581.115234375 349.76171875 581.115234375 349.76171875 571.524414062 c 0,68,69
 349.76171875 571.41796875 349.76171875 571.41796875 349.760742188 571.311523438 c 0,70,71
 349.760742188 547.5546875 349.760742188 547.5546875 330.572265625 536.620117188 c 0,72,73
 321.204101562 531.170898438 321.204101562 531.170898438 303.719726562 524.038085938 c 0,74,75
 286.235351562 516.90625 286.235351562 516.90625 267.684570312 508.875 c 0,76,77
 244.165039062 498.693359375 244.165039062 498.693359375 219.715820312 489.685546875 c 1,78,79
 221.5 487.143554688 221.5 487.143554688 223.434570312 484.28515625 c 0,80,81
 246.600585938 450.0625 246.600585938 450.0625 269.748046875 412.360351562 c 0,82,83
 292.895507812 374.658203125 292.895507812 374.658203125 297.044921875 369.151367188 c 0,84,85
 304.696289062 359.584960938 304.696289062 359.584960938 306.864257812 344.254882812 c 0,86,87
 307.38671875 340.563476562 307.38671875 340.563476562 307.38671875 336.889648438 c 0,88,89
 307.38671875 323.647460938 307.38671875 323.647460938 301.248046875 314.237304688 c 0,90,91
 298.77734375 310.448242188 298.77734375 310.448242188 295.620117188 307.890625 c 0,92,93
 291.719726562 302.500976562 291.719726562 302.500976562 289.16796875 298.15234375 c 0,94,95
 285.173828125 291.342773438 285.173828125 291.342773438 279.076171875 285.18359375 c 2,96,-1
 273.525390625 279.577148438 l 2,97,98
 265.716796875 270.833007812 265.716796875 270.833007812 256.96484375 270.833007812 c 0,99,100
 244.53515625 270.833007812 244.53515625 270.833007812 234.201171875 289.099609375 c 0,101,102
 228.92578125 301.661132812 228.92578125 301.661132812 209.905273438 350.688476562 c 0,103,104
 189.053710938 404.439453125 189.053710938 404.439453125 177.125976562 438.172851562 c 1,105,106
 169.825195312 420.612304688 169.825195312 420.612304688 155.915039062 390.422851562 c 0,107,108
 137.698242188 350.885742188 137.698242188 350.885742188 127.18359375 327.23046875 c 0,109,110
 116.668945312 303.57421875 116.668945312 303.57421875 111.760742188 293.745117188 c 0,111,112
 107.489257812 282.0234375 107.489257812 282.0234375 98.2275390625 276.009765625 c 0,113,114
 93.873046875 273.181640625 93.873046875 273.181640625 89.318359375 273.181640625 c 0,115,116
 79.15625 273.181640625 79.15625 273.181640625 71.94140625 286.336914062 c 0,117,118
 67.1396484375 292.02734375 67.1396484375 292.02734375 64.8408203125 295.012695312 c 0,119,120
 62.6181640625 297.899414062 62.6181640625 297.899414062 60.3935546875 300.708984375 c 0,121,122
 58.16796875 303.518554688 58.16796875 303.518554688 56.5185546875 306.018554688 c 2,123,-1
 50.375 314.326171875 l 2,124,125
 43.7138671875 324.418945312 43.7138671875 324.418945312 41.986328125 331.021484375 c 0,126,127
 36.4306640625 352.263671875 36.4306640625 352.263671875 49.39453125 372.184570312 c 0,128,129
 63.462890625 395.727539062 63.462890625 395.727539062 96.3310546875 439.737304688 c 0,130,131
 116.979492188 467.383789062 116.979492188 467.383789062 130.875 484.239257812 c 1,132,133
 98.27734375 496.916992188 98.27734375 496.916992188 81.90234375 504.317382812 c 0,134,135
 62.6669921875 513.009765625 62.6669921875 513.009765625 45.140625 520.668945312 c 0,136,137
 27.6142578125 528.329101562 27.6142578125 528.329101562 18.47265625 535.060546875 c 0,138,139
 8.1884765625 541.188476562 8.1884765625 541.188476562 3.7158203125 553.385742188 c 0,0,1
EndSplineSet
Validated: 524321
EndChar

StartChar: plus
Encoding: 43 43 28
Width: 324
Flags: W
LayerCount: 2
Fore
SplineSet
259.458984375 198.599609375 m 2,0,-1
 197.33984375 198.01953125 l 1,1,-1
 197.33984375 29.5009765625 l 1,2,3
 175.8828125 22.9990234375 175.8828125 22.9990234375 171.040039062 22.9990234375 c 0,4,5
 170.98828125 22.9990234375 170.98828125 22.9990234375 170.940429688 23 c 2,6,-1
 161.700195312 23 l 2,7,8
 156.000976562 23 156.000976562 23 148.984375 23.53125 c 0,9,10
 136.896484375 24.447265625 136.896484375 24.447265625 128.70703125 34.787109375 c 2,11,-1
 122.177734375 43.03125 l 1,12,13
 123.81640625 76.5380859375 123.81640625 76.5380859375 123.81640625 104.879882812 c 2,14,-1
 123.43359375 197 l 1,15,-1
 23.3642578125 197 l 1,16,-1
 18.4765625 208.444335938 l 2,17,18
 7.873046875 233.275390625 7.873046875 233.275390625 7.873046875 253.248046875 c 128,-1,19
 7.873046875 273.220703125 7.873046875 273.220703125 17.96484375 300.274414062 c 2,20,-1
 22.962890625 313.671875 l 1,21,22
 47.2412109375 312 47.2412109375 312 60.0595703125 312 c 2,23,-1
 122.759765625 312 l 1,24,-1
 122.759765625 463.599609375 l 1,25,-1
 130.313476562 471.004882812 l 2,26,27
 146.701171875 487.071289062 146.701171875 487.071289062 159.944335938 487.071289062 c 128,-1,28
 173.1875 487.071289062 173.1875 487.071289062 190.536132812 471.5390625 c 2,29,-1
 199.09375 463.877929688 l 1,30,31
 198 427.422851562 198 427.422851562 198 407 c 2,32,-1
 198 311 l 1,33,-1
 309.869140625 311 l 1,34,-1
 312.51953125 290.921875 l 2,35,36
 314.16015625 278.49609375 314.16015625 278.49609375 314.16015625 270 c 2,37,-1
 314.16015625 256 l 2,38,39
 314.16015625 247.365234375 314.16015625 247.365234375 313.809570312 236.733398438 c 0,40,41
 313.162109375 217.140625 313.162109375 217.140625 304.705078125 204.326171875 c 2,42,-1
 299.356445312 196.221679688 l 1,43,44
 278.165039062 198.599609375 278.165039062 198.599609375 259.458984375 198.599609375 c 2,0,-1
EndSplineSet
Validated: 524289
EndChar

StartChar: comma
Encoding: 44 44 29
Width: 174
Flags: W
LayerCount: 2
Fore
SplineSet
159.719726562 -9 m 0,0,1
 159.719726562 -50.90625 159.719726562 -50.90625 147.674804688 -87.40625 c 0,2,3
 135.629882812 -123.90625 135.629882812 -123.90625 117.145507812 -150.85546875 c 0,4,5
 103.375976562 -171.673828125 103.375976562 -171.673828125 83.7734375 -190.7265625 c 0,6,7
 64.1708984375 -209.780273438 64.1708984375 -209.780273438 47.623046875 -213.658203125 c 0,8,9
 45.79296875 -214.142578125 45.79296875 -214.142578125 43.9306640625 -214.142578125 c 0,10,11
 33.8076171875 -214.142578125 33.8076171875 -214.142578125 26.0927734375 -201.391601562 c 0,12,13
 18.37890625 -188.640625 18.37890625 -188.640625 18.37890625 -174.5625 c 0,14,15
 18.37890625 -160.6953125 18.37890625 -160.6953125 26.2353515625 -148.630859375 c 0,16,17
 30.6171875 -141.900390625 30.6171875 -141.900390625 39.2353515625 -133.740234375 c 0,18,19
 63.7734375 -110.502929688 63.7734375 -110.502929688 77.8720703125 -82.021484375 c 0,20,21
 84.48046875 -68.671875 84.48046875 -68.671875 84.48046875 -50 c 0,22,23
 84.48046875 -35.5546875 84.48046875 -35.5546875 81.4560546875 -32.8056640625 c 0,24,25
 78.4326171875 -30.0576171875 78.4326171875 -30.0576171875 72.5185546875 -27.369140625 c 0,26,27
 61.7080078125 -22.455078125 61.7080078125 -22.455078125 56.3486328125 -18.6337890625 c 0,28,29
 43.1591796875 -9.2294921875 43.1591796875 -9.2294921875 32.9111328125 3.9091796875 c 0,30,31
 18.48046875 22.41015625 18.48046875 22.41015625 18.48046875 54 c 0,32,33
 18.48046875 76.2783203125 18.48046875 76.2783203125 25.4033203125 92.7626953125 c 0,34,35
 32.3271484375 109.247070312 32.3271484375 109.247070312 41.8955078125 118.221679688 c 0,36,37
 60.849609375 136 60.849609375 136 82.2763671875 136 c 0,38,39
 103.702148438 136 103.702148438 136 118.024414062 120.217773438 c 0,40,41
 132.34765625 104.435546875 132.34765625 104.435546875 141.428710938 82.8994140625 c 0,42,43
 150.509765625 61.36328125 150.509765625 61.36328125 155.127929688 36.8720703125 c 0,44,45
 159.719726562 12.51953125 159.719726562 12.51953125 159.719726562 -9 c 0,0,1
EndSplineSet
Validated: 524289
EndChar

StartChar: hyphen
Encoding: 45 45 30
Width: 254
Flags: W
LayerCount: 2
Fore
SplineSet
15.26171875 220.37890625 m 0,0,1
 14.689453125 224.713867188 14.689453125 224.713867188 14.689453125 227.555664062 c 128,-1,2
 14.689453125 230.397460938 14.689453125 230.397460938 15.1796875 278 c 0,3,4
 15.1796875 292.577148438 15.1796875 292.577148438 23.283203125 301.290039062 c 0,5,6
 29.361328125 307.826171875 29.361328125 307.826171875 40.48046875 308.913085938 c 128,-1,7
 51.6005859375 310 51.6005859375 310 61.3798828125 310 c 2,8,-1
 73.259765625 310 l 1,9,-1
 169.434570312 308.75 l 2,10,11
 197.896484375 308.75 197.896484375 308.75 226.17578125 310.965820312 c 1,12,-1
 227.040039062 311 l 2,13,14
 237.454101562 311 237.454101562 311 243.201171875 297.211914062 c 0,15,16
 247.5 286.8984375 247.5 286.8984375 247.5 267 c 2,17,-1
 247.5 226 l 2,18,19
 247.5 218.438476562 247.5 218.438476562 244.802734375 211.043945312 c 0,20,21
 239.926757812 197.67578125 239.926757812 197.67578125 226.419921875 194.751953125 c 0,22,23
 218.325195312 193 218.325195312 193 208.559570312 193 c 2,24,-1
 56.099609375 193 l 2,25,26
 39.1474609375 193 39.1474609375 193 33.3134765625 194.955078125 c 128,-1,27
 27.4794921875 196.91015625 27.4794921875 196.91015625 24.552734375 199.393554688 c 0,28,29
 16.134765625 206.536132812 16.134765625 206.536132812 15.26171875 220.37890625 c 0,0,1
EndSplineSet
Validated: 524289
EndChar

StartChar: period
Encoding: 46 46 31
Width: 169
Flags: W
LayerCount: 2
Fore
SplineSet
122.645507812 105.72265625 m 0,0,1
 135.959960938 79.4970703125 135.959960938 79.4970703125 135.959960938 42.7431640625 c 0,2,3
 135.959960938 5.9892578125 135.959960938 5.9892578125 119.360351562 -17.0048828125 c 0,4,5
 102.76171875 -40 102.76171875 -40 78.8642578125 -40 c 0,6,7
 54.966796875 -40 54.966796875 -40 38.04296875 -16.4951171875 c 0,8,9
 21.1201171875 7.0087890625 21.1201171875 7.0087890625 21.1201171875 45.8779296875 c 0,10,11
 21.1201171875 84.7470703125 21.1201171875 84.7470703125 38.625 109.873046875 c 0,12,13
 56.1298828125 135 56.1298828125 135 80.51953125 135 c 0,14,15
 107.782226562 135 107.782226562 135 122.645507812 105.72265625 c 0,0,1
EndSplineSet
Validated: 524289
EndChar

StartChar: slash
Encoding: 47 47 32
Width: 255
Flags: W
LayerCount: 2
Fore
SplineSet
50.8203125 -56 m 1,0,-1
 32.2666015625 -57.3330078125 l 2,1,2
 23.9970703125 -57.3330078125 23.9970703125 -57.3330078125 -9.708984375 -53.4052734375 c 1,3,4
 44.591796875 173.715820312 44.591796875 173.715820312 92.728515625 364.046875 c 0,5,6
 140.868164062 554.385742188 140.868164062 554.385742188 186.341796875 763.20703125 c 1,7,-1
 194.577148438 766.950195312 l 2,8,9
 203.487304688 771 203.487304688 771 213.892578125 771 c 0,10,11
 231.987304688 771 231.987304688 771 240.188476562 768.514648438 c 2,12,-1
 257.631835938 763.228515625 l 1,13,-1
 252.831054688 737.25390625 l 2,14,15
 243.374023438 686.078125 243.374023438 686.078125 231.047851562 638.123046875 c 2,16,-1
 134.5546875 252.108398438 l 2,17,18
 98.7197265625 109.646484375 98.7197265625 109.646484375 62.7666015625 -56 c 1,19,-1
 50.8203125 -56 l 1,0,-1
EndSplineSet
Validated: 524289
EndChar

StartChar: zero
Encoding: 48 48 33
Width: 475
Flags: W
LayerCount: 2
Fore
SplineSet
149.419921875 463.741210938 m 128,-1,1
 142.17578125 404.98828125 142.17578125 404.98828125 142.17578125 349.504882812 c 0,2,3
 142.17578125 226.912109375 142.17578125 226.912109375 167.184570312 152.322265625 c 0,4,5
 180.217773438 113.626953125 180.217773438 113.626953125 199.385742188 91.1875 c 128,-1,6
 218.553710938 68.7470703125 218.553710938 68.7470703125 245.854492188 68.7470703125 c 0,7,8
 287.045898438 68.7470703125 287.045898438 68.7470703125 313.791015625 146.659179688 c 0,9,10
 327.563476562 186.776367188 327.563476562 186.776367188 334.658203125 238.564453125 c 128,-1,11
 341.751953125 290.352539062 341.751953125 290.352539062 342.48828125 345.196289062 c 0,12,13
 342.470703125 401.98046875 342.470703125 401.98046875 335.984375 459.508789062 c 0,14,15
 322.309570312 578.116210938 322.309570312 578.116210938 281.895507812 628.068359375 c 0,16,17
 267.540039062 645.810546875 267.540039062 645.810546875 248.641601562 649.045898438 c 1,18,19
 244.259765625 645.502929688 244.259765625 645.502929688 238.626953125 645.502929688 c 128,-1,20
 232.994140625 645.502929688 232.994140625 645.502929688 228.504882812 649.298828125 c 1,21,22
 213.954101562 646.51953125 213.954101562 646.51953125 201.276367188 629.950195312 c 0,23,24
 183.126953125 606.225585938 183.126953125 606.225585938 169.895507812 564.360351562 c 128,-1,0
 156.6640625 522.494140625 156.6640625 522.494140625 149.419921875 463.741210938 c 128,-1,1
35.099609375 329.57421875 m 128,-1,26
 35.099609375 405.7578125 35.099609375 405.7578125 47.8486328125 472.409179688 c 0,27,28
 74.1806640625 610.068359375 74.1806640625 610.068359375 148.10546875 672.577148438 c 0,29,30
 188.918945312 704.34375 188.918945312 704.34375 237.889648438 704.34375 c 128,-1,31
 286.859375 704.34375 286.859375 704.34375 327.896484375 675.793945312 c 0,32,33
 368.587890625 647.245117188 368.587890625 647.245117188 393.66015625 599.491210938 c 128,-1,34
 418.732421875 551.73828125 418.732421875 551.73828125 433.071289062 486.448242188 c 128,-1,35
 447.41015625 421.158203125 447.41015625 421.158203125 447.41015625 347.409179688 c 128,-1,36
 447.41015625 273.66015625 447.41015625 273.66015625 434.624023438 206.81640625 c 128,-1,37
 421.837890625 139.973632812 421.837890625 139.973632812 398.35546875 87.9970703125 c 0,38,39
 374.614257812 35.4482421875 374.614257812 35.4482421875 334.478515625 3.9130859375 c 0,40,41
 293.079101562 -27.623046875 293.079101562 -27.623046875 242.9609375 -27.623046875 c 128,-1,42
 192.84375 -27.623046875 192.84375 -27.623046875 150.41796875 -0.4873046875 c 0,43,44
 109.9140625 26.546875 109.9140625 26.546875 85.3974609375 75.41015625 c 128,-1,45
 60.880859375 124.272460938 60.880859375 124.272460938 47.990234375 188.764648438 c 128,-1,25
 35.099609375 253.255859375 35.099609375 253.255859375 35.099609375 329.57421875 c 128,-1,26
EndSplineSet
Validated: 524289
EndChar

StartChar: one
Encoding: 49 49 34
Width: 281
Flags: W
LayerCount: 2
Fore
SplineSet
186.765625 578.750976562 m 2,0,1
 186.7734375 578.26953125 186.7734375 578.26953125 186.7734375 578.263671875 c 2,2,3
 186.780273438 577 186.780273438 577 186.120117188 529.341796875 c 0,4,5
 186.120117188 445 186.120117188 445 185.127929688 359.995117188 c 128,-1,6
 184.139648438 275 184.139648438 275 184.139648438 191.041992188 c 2,7,8
 184.139648438 185 184.139648438 185 184.139648438 169.465820312 c 2,9,10
 184.139648438 157 184.139648438 157 186.518554688 129.731445312 c 0,11,12
 188.099609375 111 188.099609375 111 193.778320312 99.9267578125 c 0,13,14
 197.33984375 93 197.33984375 93 205.935546875 89.224609375 c 0,15,16
 214.5 86 214.5 86 224.5703125 81.8330078125 c 0,17,18
 234.299804688 78 234.299804688 78 243.139648438 72.2626953125 c 0,19,20
 257.400390625 63 257.400390625 63 257.400390625 38.6474609375 c 0,21,22
 257.400390625 24 257.400390625 24 253.834960938 13.91015625 c 0,23,24
 248.8203125 0 248.8203125 0 237.5546875 -2.244140625 c 0,25,26
 223.740234375 -5 223.740234375 -5 220.655273438 -4.787109375 c 0,27,28
 217.799804688 -5 217.799804688 -5 216.0703125 -4.7255859375 c 0,29,30
 214.5 -5 214.5 -5 213.010742188 -4.7587890625 c 0,31,32
 180.1796875 -5 180.1796875 -5 176.575195312 -0.125 c 0,33,34
 173.8671875 4.5078125 173.8671875 4.5078125 132.74609375 4.5078125 c 2,35,-1
 131.950195312 4.5078125 l 2,36,37
 110.219726562 5 110.219726562 5 100.232421875 0.3798828125 c 0,38,39
 89.759765625 -4 89.759765625 -4 84.0048828125 -4.330078125 c 0,40,41
 78.5400390625 -5 78.5400390625 -5 75.900390625 -5.1787109375 c 1,42,43
 75.900390625 4 75.900390625 4 75.900390625 -6.259765625 c 1,44,-1
 69.2998046875 -6.259765625 l 1,45,-1
 64.349609375 -6.259765625 l 1,46,-1
 55.0546875 -6.259765625 l 2,47,48
 45.5400390625 -6 45.5400390625 -6 36.4453125 1.2060546875 c 0,49,50
 23.759765625 11 23.759765625 11 23.759765625 38.755859375 c 0,51,52
 23.759765625 61 23.759765625 61 35.7861328125 72.0859375 c 0,53,54
 41.580078125 78 41.580078125 78 54.6728515625 83.56640625 c 0,55,56
 63.3603515625 87 63.3603515625 87 73.4658203125 92.0458984375 c 0,57,58
 79.8603515625 95 79.8603515625 95 85.251953125 105.3125 c 0,59,60
 89.099609375 112 89.099609375 112 90.912109375 140.51171875 c 0,61,62
 92.400390625 169 92.400390625 169 92.400390625 196.880859375 c 2,63,64
 92.400390625 216 92.400390625 216 92.400390625 227.782226562 c 1,65,66
 92.400390625 240 92.400390625 240 93.0595703125 334.571289062 c 2,67,68
 93.0595703125 342 93.0595703125 342 93.7197265625 485.3125 c 1,69,70
 93.7197265625 496 93.7197265625 496 93.7197265625 514.595703125 c 2,71,72
 93.7197265625 556 93.7197265625 556 92.77734375 561.954101562 c 0,73,74
 92.400390625 564 92.400390625 564 90.4462890625 563.96484375 c 0,75,76
 89.099609375 564 89.099609375 564 70.560546875 565.90625 c 1,77,-1
 59.0703125 565.90625 l 2,78,79
 48.83984375 566 48.83984375 566 37.0419921875 573.970703125 c 0,80,81
 24.419921875 582 24.419921875 582 23.9248046875 612.5390625 c 0,82,83
 23.7578125 619.076171875 23.7578125 619.076171875 24.876953125 630.190429688 c 2,84,85
 24.8662109375 630.201171875 24.8662109375 630.201171875 24.888671875 630.305664062 c 2,86,87
 26.400390625 648 26.400390625 648 29.8974609375 653.387695312 c 0,88,89
 33 659 33 659 37.0380859375 659.66015625 c 0,90,91
 49.5 664 49.5 664 52.8154296875 664.807617188 c 0,92,93
 70.6201171875 670 70.6201171875 670 100.046875 690.623046875 c 0,94,95
 117.140625 702.217773438 117.140625 702.217773438 153.317382812 702.217773438 c 2,96,-1
 155.426757812 702.217773438 l 1,97,98
 159.059570312 700 159.059570312 700 164.33984375 700 c 0,99,100
 170.280273438 700 170.280273438 700 170.280273438 700 c 1,101,102
 174.240234375 701 174.240234375 701 174.240234375 701 c 1,103,104
 180.83984375 701 180.83984375 701 180.83984375 701 c 1,105,-1
 182.8203125 701 l 1,106,107
 183.48046875 701 183.48046875 701 184.139648438 701 c 1,108,109
 184.139648438 701 184.139648438 701 185.459960938 701 c 1,110,111
 185.459960938 701 185.459960938 701 188.099609375 700 c 1,112,113
 193.59765625 696.876953125 193.59765625 696.876953125 194.23828125 689.799804688 c 2,114,115
 196.6796875 686 196.6796875 686 196.6796875 662.858398438 c 0,116,117
 196.6796875 649 196.6796875 649 195.33203125 630.125976562 c 1,118,119
 195.360351562 622 195.360351562 622 195.326171875 627.490234375 c 1,120,121
 195.360351562 620 195.360351562 620 195.267578125 626.299804688 c 2,122,123
 195.360351562 626 195.360351562 626 195.375 625.709960938 c 0,124,125
 195.360351562 625 195.360351562 625 194.712890625 623.432617188 c 0,126,127
 193.379882812 610 193.379882812 610 190.014648438 601.833984375 c 0,128,129
 185.459960938 591 185.459960938 591 186.716796875 581.502929688 c 0,130,131
 186.780273438 581 186.780273438 581 186.765625 578.750976562 c 2,0,1
180.177734375 591.627929688 m 1,132,-1
 174.758789062 583.987304688 l 1,133,-1
 185.3984375 583.83984375 l 1,134,-1
 180.177734375 591.627929688 l 1,132,-1
EndSplineSet
Validated: 524325
EndChar

StartChar: two
Encoding: 50 50 35
Width: 373
Flags: W
LayerCount: 2
Fore
SplineSet
42.3447265625 465.361328125 m 0,0,1
 31.01953125 482.576171875 31.01953125 482.576171875 31.01953125 513.245117188 c 0,2,3
 31.01953125 527.1484375 31.01953125 527.1484375 34.453125 545.04296875 c 128,-1,4
 37.8857421875 562.9375 37.8857421875 562.9375 42.302734375 575.526367188 c 128,-1,5
 46.7197265625 588.116210938 46.7197265625 588.116210938 50.173828125 599.930664062 c 128,-1,6
 53.62890625 611.747070312 53.62890625 611.747070312 56.5224609375 618.561523438 c 0,7,8
 71.0322265625 656.44921875 71.0322265625 656.44921875 84.4287109375 676.522460938 c 0,9,10
 108.3046875 712.30078125 108.3046875 712.30078125 140.120117188 716.3359375 c 0,11,12
 153 717.924804688 153 717.924804688 165.883789062 717.924804688 c 0,13,14
 236.4609375 717.924804688 236.4609375 717.924804688 269.797851562 642.028320312 c 0,15,16
 289.80078125 595.204101562 289.80078125 595.204101562 289.80078125 530.962890625 c 0,17,18
 289.80078125 493.084960938 289.80078125 493.084960938 283.126953125 449.412109375 c 0,19,20
 274.631835938 394.162109375 274.631835938 394.162109375 235.2890625 303.817382812 c 0,21,22
 197.8359375 217.818359375 197.8359375 217.818359375 147.473632812 133.110351562 c 1,23,24
 158.270507812 132.265625 158.270507812 132.265625 169.526367188 132.265625 c 128,-1,25
 180.651367188 132.265625 180.651367188 132.265625 199.645507812 133.793945312 c 128,-1,26
 218.640625 135.322265625 218.640625 135.322265625 235.724609375 141.864257812 c 128,-1,27
 252.80859375 148.407226562 252.80859375 148.407226562 259.263671875 155.194335938 c 0,28,29
 278.013671875 200.41796875 278.013671875 200.41796875 289.850585938 234.334960938 c 0,30,31
 299.926757812 268.25 299.926757812 268.25 305.518554688 286.254882812 c 0,32,33
 307.905273438 293.936523438 307.905273438 293.936523438 312.6875 309.590820312 c 0,34,35
 321.38671875 336.869140625 321.38671875 336.869140625 334.86328125 336.869140625 c 0,36,37
 339.94140625 336.869140625 339.94140625 336.869140625 345.026367188 332.520507812 c 0,38,39
 359.430664062 320.204101562 359.430664062 320.204101562 364.885742188 292.2109375 c 2,40,41
 366.676757812 320.647460938 366.676757812 320.647460938 368.467773438 273.833984375 c 1,42,43
 366.106445312 302.966796875 366.106445312 302.966796875 363.744140625 256.849609375 c 2,44,45
 347.830078125 199.623046875 347.830078125 199.623046875 342.026367188 154.349609375 c 0,46,47
 333.426757812 87.2578125 333.426757812 87.2578125 331.251953125 32.716796875 c 0,48,49
 329.9375 -0.240234375 329.9375 -0.240234375 318.658203125 -12.2177734375 c 0,50,51
 314.494140625 -16.6396484375 314.494140625 -16.6396484375 311.529296875 -16.6396484375 c 0,52,53
 297.462890625 -16.6396484375 297.462890625 -16.6396484375 259.60546875 -5.26171875 c 0,54,55
 219.405273438 6.119140625 219.405273438 6.119140625 168.004882812 9.0703125 c 0,56,57
 146.524414062 9.0703125 146.524414062 9.0703125 121.727539062 8.375 c 0,58,59
 99.791015625 7.6796875 99.791015625 7.6796875 84.0458984375 7.5830078125 c 1,60,61
 76.013671875 -15.5830078125 76.013671875 -15.5830078125 65.7451171875 -15.5830078125 c 0,62,63
 64.0986328125 -15.5830078125 64.0986328125 -15.5830078125 62.4267578125 -14.896484375 c 0,64,65
 52.00390625 -13.8271484375 52.00390625 -13.8271484375 44.759765625 -1.8134765625 c 0,66,67
 34.3203125 13.44140625 34.3203125 13.44140625 34.3203125 47.5537109375 c 0,68,69
 34.3203125 67.4296875 34.3203125 67.4296875 42.1171875 83.55859375 c 0,70,71
 76.939453125 160.834960938 76.939453125 160.834960938 114.578125 269.200195312 c 0,72,73
 153.0703125 360.278320312 153.0703125 360.278320312 173.899414062 439.33203125 c 0,74,75
 180.995117188 479.424804688 180.995117188 479.424804688 181.333007812 493.397460938 c 0,76,77
 181.333007812 512.8671875 181.333007812 512.8671875 175.791015625 526.423828125 c 0,78,79
 163.951171875 555.384765625 163.951171875 555.384765625 132.545898438 555.384765625 c 0,80,81
 111.478515625 555.384765625 111.478515625 555.384765625 102.796875 545.486328125 c 0,82,83
 88.853515625 529.58984375 88.853515625 529.58984375 81.6162109375 498.083007812 c 0,84,85
 71.86328125 455.624023438 71.86328125 455.624023438 56.005859375 455.624023438 c 0,86,87
 48.7490234375 455.624023438 48.7490234375 455.624023438 42.3447265625 465.361328125 c 0,0,1
EndSplineSet
Validated: 524289
EndChar

StartChar: three
Encoding: 51 51 36
Width: 340
Flags: W
LayerCount: 2
Fore
SplineSet
29.974609375 597.955078125 m 4,0,1
 29.822265625 600.954101562 29.822265625 600.954101562 29.822265625 602.875 c 4,2,3
 29.822265625 623.837890625 29.822265625 623.837890625 40.607421875 644.578125 c 4,4,5
 62.216796875 686.134765625 62.216796875 686.134765625 100.310546875 709.22265625 c 4,6,7
 122.844726562 721 122.844726562 721 147.83984375 721 c 4,8,9
 204.32421875 721 204.32421875 721 240.123046875 691.866210938 c 4,10,11
 255.362304688 675.471679688 255.362304688 675.471679688 264.385742188 650.401367188 c 132,-1,12
 273.409179688 625.331054688 273.409179688 625.331054688 273.409179688 589.65234375 c 4,13,14
 273.409179688 563.194335938 273.409179688 563.194335938 262.873046875 534.84375 c 4,15,16
 245.325195312 487.62890625 245.325195312 487.62890625 207.7578125 443.848632812 c 5,17,18
 253.896484375 434.2421875 253.896484375 434.2421875 279.551757812 399.23046875 c 4,19,20
 298.650390625 373.169921875 298.650390625 373.169921875 308.799804688 336.83203125 c 132,-1,21
 318.94921875 300.494140625 318.94921875 300.494140625 318.94921875 259.408203125 c 4,22,23
 318.94921875 198.63671875 318.94921875 198.63671875 296.65625 144.456054688 c 132,-1,24
 274.362304688 90.2744140625 274.362304688 90.2744140625 241.280273438 50.2529296875 c 4,25,26
 197.782226562 10.2314453125 197.782226562 10.2314453125 143.8359375 -13.3720703125 c 4,27,28
 95.357421875 -36.974609375 95.357421875 -36.974609375 56.580078125 -37.99609375 c 5,29,-1
 56.26953125 -37.99609375 l 6,30,31
 43.8203125 -37.99609375 43.8203125 -37.99609375 37.224609375 -24.0078125 c 4,32,33
 32.78515625 -15.2236328125 32.78515625 -15.2236328125 32.78515625 -4.0615234375 c 4,34,35
 32.78515625 8.8251953125 32.78515625 8.8251953125 37.9814453125 19.1083984375 c 132,-1,36
 43.1787109375 29.3916015625 43.1787109375 29.3916015625 52.3486328125 31.576171875 c 4,37,38
 81.2890625 43.0419921875 81.2890625 43.0419921875 107.670898438 61.251953125 c 4,39,40
 179.893554688 98.724609375 179.893554688 98.724609375 209.8125 160.482421875 c 4,41,42
 224.364257812 190.520507812 224.364257812 190.520507812 224.364257812 228.787109375 c 4,43,44
 224.364257812 270.653320312 224.364257812 270.653320312 203.364257812 304.817382812 c 4,45,46
 182.56640625 340.01171875 182.56640625 340.01171875 146.838867188 347.485351562 c 4,47,48
 120.874023438 353.307617188 120.874023438 353.307617188 108.900390625 353.307617188 c 4,49,50
 99.513671875 353.307617188 99.513671875 353.307617188 90.2607421875 346.297851562 c 4,51,52
 86.861328125 344.08984375 86.861328125 344.08984375 80.5048828125 337.15625 c 4,53,54
 67.529296875 323 67.529296875 323 58.25 323 c 4,55,56
 43.919921875 323 43.919921875 323 36.56640625 338.431640625 c 4,57,58
 31.849609375 348.330078125 31.849609375 348.330078125 31.849609375 362.702148438 c 4,59,60
 31.849609375 385.748046875 31.849609375 385.748046875 50.6552734375 397.962890625 c 4,61,62
 59.5126953125 403.715820312 59.5126953125 403.715820312 63.2998046875 406.356445312 c 4,63,64
 77.1953125 416.524414062 77.1953125 416.524414062 93.90234375 434.26953125 c 132,-1,65
 110.608398438 452.014648438 110.608398438 452.014648438 130.3359375 473.40625 c 132,-1,66
 150.172851562 494.797851562 150.172851562 494.797851562 162.294921875 516.759765625 c 132,-1,67
 174.41796875 538.72265625 174.41796875 538.72265625 174.41796875 558.444335938 c 4,68,69
 174.41796875 593.7109375 174.41796875 593.7109375 158.85546875 608.85546875 c 132,-1,70
 143.29296875 624 143.29296875 624 122.72265625 624 c 4,71,72
 104.43359375 624 104.43359375 624 95.798828125 613.208007812 c 4,73,74
 83.4697265625 597.795898438 83.4697265625 597.795898438 68.3955078125 573.051757812 c 4,75,76
 62.095703125 563.1171875 62.095703125 563.1171875 53.921875 563.1171875 c 132,-1,77
 45.7490234375 563.1171875 45.7490234375 563.1171875 38.7236328125 572.697265625 c 132,-1,78
 31.69921875 582.27734375 31.69921875 582.27734375 29.974609375 597.955078125 c 4,0,1
EndSplineSet
Validated: 524289
EndChar

StartChar: four
Encoding: 52 52 37
Width: 456
Flags: W
LayerCount: 2
Fore
SplineSet
115.573242188 340.873046875 m 4,0,1
 111.096679688 331.938476562 111.096679688 331.938476562 103.8046875 320.202148438 c 5,2,-1
 228.028320312 325 l 6,3,4
 229.55859375 325 229.55859375 325 231.01953125 325.10546875 c 6,5,-1
 231.01953125 383 l 5,6,-1
 230.272460938 539 l 5,7,-1
 230.272460938 542.255859375 l 5,8,9
 213.846679688 514.095703125 213.846679688 514.095703125 195.13671875 482.881835938 c 4,10,11
 156.299804688 418.092773438 156.299804688 418.092773438 115.573242188 340.873046875 c 4,0,1
327.4921875 322 m 5,12,-1
 361.892578125 322 l 5,13,-1
 408.71875 323 l 6,14,15
 424.553710938 323 424.553710938 323 436.435546875 305.853515625 c 132,-1,16
 448.318359375 288.708007812 448.318359375 288.708007812 448.318359375 264.237304688 c 132,-1,17
 448.318359375 239.766601562 448.318359375 239.766601562 437.6328125 226.814453125 c 4,18,19
 429.53515625 217 429.53515625 217 417.298828125 217 c 4,20,21
 408.709960938 217 408.709960938 217 400.459960938 218 c 132,-1,22
 392.209960938 219 392.209960938 219 384.298828125 219 c 6,23,-1
 371.098632812 219 l 5,24,-1
 341 219.625 l 6,25,26
 333.509765625 219.625 333.509765625 219.625 328.98828125 218.678710938 c 5,27,28
 328.98828125 135.140625 328.98828125 135.140625 328.98828125 35.064453125 c 6,29,30
 328.98828125 26.3427734375 328.98828125 26.3427734375 328.536132812 21.943359375 c 132,-1,31
 328.083984375 17.5439453125 328.083984375 17.5439453125 328.083984375 17.341796875 c 132,-1,32
 328.083984375 17.140625 328.083984375 17.140625 331.04296875 9.9345703125 c 5,33,34
 330.69140625 25.501953125 330.69140625 25.501953125 330.337890625 3.0693359375 c 6,35,36
 328.80859375 -11.8349609375 328.80859375 -11.8349609375 322.051757812 -21.3642578125 c 132,-1,37
 315.294921875 -30.8935546875 315.294921875 -30.8935546875 306.379882812 -35.796875 c 4,38,39
 291.140625 -45 291.140625 -45 275.31640625 -45 c 132,-1,40
 259.493164062 -45 259.493164062 -45 247.883789062 -38.6494140625 c 4,41,42
 228.028320312 -28.744140625 228.028320312 -28.744140625 228.028320312 -7.962890625 c 134,-1,43
 228.028320312 12.75 228.028320312 12.75 228.028320312 -6.6103515625 c 6,44,45
 230.271484375 16.6396484375 230.271484375 16.6396484375 230.272460938 84.142578125 c 6,46,47
 230.272460938 134.799804688 230.272460938 134.799804688 230.272460938 168.953125 c 5,48,49
 230.646484375 188.024414062 230.646484375 188.024414062 231.01953125 200.87109375 c 5,50,51
 230.22265625 209.2421875 230.22265625 209.2421875 229.42578125 215.487304688 c 6,52,53
 226.342773438 220.25 226.342773438 220.25 217.81640625 220.25 c 6,54,-1
 195.124023438 219 l 6,55,56
 152.418945312 219 152.418945312 219 110.166015625 215 c 4,57,58
 70.0703125 211 70.0703125 211 31.1982421875 211 c 4,59,60
 22.595703125 211 22.595703125 211 16.96484375 217.3359375 c 4,61,62
 5.17578125 230.598632812 5.17578125 230.598632812 5.17578125 249.923828125 c 4,63,64
 5.17578125 261.870117188 5.17578125 261.870117188 10.19921875 272.743164062 c 4,65,66
 27.3759765625 309.913085938 27.3759765625 309.913085938 59.8037109375 373.619140625 c 4,67,68
 92.5439453125 436.452148438 92.5439453125 436.452148438 119.123046875 482.686523438 c 4,69,70
 166.588867188 565.256835938 166.588867188 565.256835938 185.713867188 595.249023438 c 4,71,72
 200.178710938 618.947265625 200.178710938 618.947265625 205.444335938 632.358398438 c 132,-1,73
 210.711914062 645.76953125 210.711914062 645.76953125 215.078125 655.87890625 c 4,74,75
 221.138671875 669.908203125 221.138671875 669.908203125 229.90234375 686.447265625 c 4,76,77
 238.95703125 702.916992188 238.95703125 702.916992188 255.794921875 709.041992188 c 4,78,79
 268.771484375 714 268.771484375 714 283.139648438 714 c 132,-1,80
 297.508789062 714 297.508789062 714 308.913085938 706.375 c 4,81,82
 326.064453125 695.608398438 326.064453125 695.608398438 326.064453125 674.502929688 c 4,83,84
 326.064453125 670.577148438 326.064453125 670.577148438 326.778320312 661.166992188 c 132,-1,85
 327.4921875 651.755859375 327.4921875 651.755859375 327.4921875 616.82421875 c 6,86,-1
 327.4921875 322 l 5,12,-1
EndSplineSet
Validated: 524293
EndChar

StartChar: five
Encoding: 53 53 38
Width: 394
Flags: W
LayerCount: 2
Fore
SplineSet
101.65234375 677.709960938 m 4,0,1
 107.337890625 678.143554688 107.337890625 678.143554688 117 678.143554688 c 6,2,3
 154.814453125 659.14453125 154.814453125 659.14453125 192.62890625 676.81640625 c 6,4,5
 234.624023438 676.81640625 234.624023438 676.81640625 269.00390625 679.399414062 c 5,6,7
 287.4921875 697.482421875 287.4921875 697.482421875 303.162109375 757.434570312 c 5,8,9
 310.970703125 774 310.970703125 774 322.740234375 774 c 4,10,11
 327.146484375 774 327.146484375 774 332.0546875 771.2109375 c 132,-1,12
 336.962890625 768.421875 336.962890625 768.421875 343.5703125 764.41796875 c 5,13,14
 344.772460938 737.595703125 344.772460938 737.595703125 345.974609375 760.7734375 c 6,15,16
 352.294921875 751.8203125 352.294921875 751.8203125 352.294921875 736.62109375 c 4,17,18
 352.294921875 725.186523438 352.294921875 725.186523438 349.291015625 708.7734375 c 132,-1,19
 346.288085938 692.361328125 346.288085938 692.361328125 343.060546875 675.896484375 c 132,-1,20
 339.83203125 659.431640625 339.83203125 659.431640625 337.16015625 639.561523438 c 5,21,22
 334.802734375 628.426757812 334.802734375 628.426757812 331.76171875 616.580078125 c 132,-1,23
 328.720703125 604.732421875 328.720703125 604.732421875 322.774414062 591.7734375 c 132,-1,24
 316.830078125 578.814453125 316.830078125 578.814453125 305.893554688 570.36328125 c 132,-1,25
 294.958984375 561.9140625 294.958984375 561.9140625 278.061523438 561.9140625 c 6,26,-1
 195.436523438 561.9140625 l 6,27,28
 150.217773438 561.9140625 150.217773438 561.9140625 133.541992188 558.501953125 c 5,29,30
 133.134765625 547.998046875 133.134765625 547.998046875 132.7265625 557.931640625 c 5,31,32
 126.501953125 544.719726562 126.501953125 544.719726562 120.671875 521.163085938 c 132,-1,33
 114.842773438 497.606445312 114.842773438 497.606445312 111.75390625 484.799804688 c 5,34,35
 120.72265625 489.84765625 120.72265625 489.84765625 136.395507812 496.931640625 c 132,-1,36
 152.067382812 504.014648438 152.067382812 504.014648438 171.631835938 508.653320312 c 132,-1,37
 191.1953125 513.291015625 191.1953125 513.291015625 206.36328125 513.291015625 c 132,-1,38
 221.53125 513.291015625 221.53125 513.291015625 237.845703125 510.208007812 c 4,39,40
 278.061523438 502.916015625 278.061523438 502.916015625 304.87109375 480.665039062 c 4,41,42
 354.572265625 435.85546875 354.572265625 435.85546875 367.271484375 352.25390625 c 4,43,44
 371.171875 326.571289062 371.171875 326.571289062 371.171875 304.856445312 c 132,-1,45
 371.171875 283.142578125 371.171875 283.142578125 369.83984375 266.528320312 c 4,46,47
 364.092773438 196.301757812 364.092773438 196.301757812 336.416992188 138.99609375 c 132,-1,48
 308.741210938 81.6904296875 308.741210938 81.6904296875 265.115234375 41 c 4,49,50
 244.775390625 22 244.775390625 22 231.0546875 20.099609375 c 5,51,-1
 229.9296875 20.099609375 l 6,52,53
 212.802734375 20.099609375 212.802734375 20.099609375 196.341796875 45.2294921875 c 4,54,55
 191.776367188 52.1865234375 191.776367188 52.1865234375 191.776367188 59.193359375 c 4,56,57
 191.776367188 69.9814453125 191.776367188 69.9814453125 197.280273438 78.8095703125 c 4,58,59
 200.541015625 84.0380859375 200.541015625 84.0380859375 208.328125 92.4306640625 c 132,-1,60
 216.116210938 100.823242188 216.116210938 100.823242188 229.852539062 120.325195312 c 132,-1,61
 243.5859375 139.826171875 243.5859375 139.826171875 256.770507812 169.327148438 c 4,62,63
 278.740234375 218.485351562 278.740234375 218.485351562 278.740234375 288.845703125 c 4,64,65
 278.740234375 322.026367188 278.740234375 322.026367188 270.821289062 340.515625 c 132,-1,66
 262.903320312 359.004882812 262.903320312 359.004882812 248.745117188 372.151367188 c 4,67,68
 230.076171875 389.489257812 230.076171875 389.489257812 207.302734375 399.14453125 c 4,69,70
 202.952148438 401.118164062 202.952148438 401.118164062 198.81640625 401.118164062 c 4,71,72
 191.172851562 401.118164062 191.172851562 401.118164062 181.116210938 400.334960938 c 132,-1,73
 171.060546875 399.552734375 171.060546875 399.552734375 152.913085938 394.796875 c 132,-1,74
 134.813476562 390.052734375 134.813476562 390.052734375 118.2421875 382.315429688 c 4,75,76
 102.157226562 374.62890625 102.157226562 374.62890625 93.423828125 367.002929688 c 5,77,78
 92.6796875 368.014648438 92.6796875 368.014648438 91.9365234375 366.211914062 c 5,79,80
 91.8583984375 367.602539062 91.8583984375 367.602539062 91.78125 366.122070312 c 5,81,82
 88.2275390625 358.28125 88.2275390625 358.28125 83.900390625 351.024414062 c 4,83,84
 76.8955078125 339.27734375 76.8955078125 339.27734375 65.6044921875 335.061523438 c 4,85,86
 61.703125 333.604492188 61.703125 333.604492188 55.3681640625 333.604492188 c 132,-1,87
 49.033203125 333.604492188 49.033203125 333.604492188 36.9541015625 340.4609375 c 5,88,89
 36.0341796875 344.48046875 36.0341796875 344.48046875 35.1123046875 342.493164062 c 6,90,91
 22.7900390625 356.092773438 22.7900390625 356.092773438 22.7900390625 378.228515625 c 132,-1,92
 22.7900390625 400.364257812 22.7900390625 400.364257812 31.4814453125 420.486328125 c 4,93,94
 36.927734375 433.094726562 36.927734375 433.094726562 38.322265625 438.369140625 c 4,95,96
 52.810546875 494.169921875 52.810546875 494.169921875 60.181640625 530.77734375 c 4,97,98
 76.2822265625 610.739257812 76.2822265625 610.739257812 78.3779296875 643.446289062 c 4,99,100
 79.5048828125 651.442382812 79.5048828125 651.442382812 81.3828125 658.10546875 c 4,101,102
 84.5498046875 669.340820312 84.5498046875 669.340820312 92.2509765625 674.422851562 c 4,103,104
 96.5771484375 677.27734375 96.5771484375 677.27734375 101.65234375 677.709960938 c 4,0,1
EndSplineSet
Validated: 524321
EndChar

StartChar: six
Encoding: 54 54 39
Width: 452
Flags: W
LayerCount: 2
Fore
SplineSet
275.077148438 630.778320312 m 0,0,1
 196.625976562 550.6328125 196.625976562 550.6328125 161.368164062 429.52734375 c 1,2,3
 209.743164062 466 209.743164062 466 259.315429688 466 c 0,4,5
 297.657226562 466 297.657226562 466 329.549804688 449.307617188 c 0,6,7
 357.02734375 432.616210938 357.02734375 432.616210938 375.86328125 402.3125 c 128,-1,8
 394.69921875 372.009765625 394.69921875 372.009765625 404.259765625 331.868164062 c 128,-1,9
 413.8203125 291.7265625 413.8203125 291.7265625 413.8203125 244.06640625 c 128,-1,10
 413.8203125 196.407226562 413.8203125 196.407226562 402.266601562 150.25 c 128,-1,11
 390.712890625 104.09375 390.712890625 104.09375 369.166015625 67.8974609375 c 128,-1,12
 347.619140625 31.7021484375 347.619140625 31.7021484375 314.533203125 9.947265625 c 0,13,14
 278.739257812 -13 278.739257812 -13 235.915039062 -13 c 128,-1,15
 193.08984375 -13 193.08984375 -13 151.224609375 8.91015625 c 0,16,17
 116.7421875 26.6533203125 116.7421875 26.6533203125 96.2236328125 55.2822265625 c 0,18,19
 56.6455078125 110.5078125 56.6455078125 110.5078125 43.3115234375 193.653320312 c 0,20,21
 36.9599609375 233.2578125 36.9599609375 233.2578125 36.9599609375 274.357421875 c 0,22,23
 36.9599609375 354.419921875 36.9599609375 354.419921875 55.341796875 426.850585938 c 128,-1,24
 73.7216796875 499.28125 73.7216796875 499.28125 105.432617188 560.493164062 c 0,25,26
 140.609375 621.705078125 140.609375 621.705078125 190.474609375 669.959960938 c 0,27,28
 251.590820312 729.102539062 251.590820312 729.102539062 318.376953125 761.22265625 c 0,29,30
 332.698242188 768.567382812 332.698242188 768.567382812 342.349609375 769.896484375 c 2,31,32
 345.0390625 745.266601562 345.0390625 745.266601562 347.729492188 770.637695312 c 1,33,34
 356.728515625 762.456054688 356.728515625 762.456054688 361.672851562 756.212890625 c 0,35,36
 371.580078125 744.696289062 371.580078125 744.696289062 371.580078125 727.475585938 c 0,37,38
 371.580078125 704.758789062 371.580078125 704.758789062 345.91796875 685.916992188 c 0,39,40
 334.911132812 677.8359375 334.911132812 677.8359375 321.016601562 670.877929688 c 0,41,42
 299.443359375 655.708984375 299.443359375 655.708984375 275.077148438 630.778320312 c 0,0,1
269.126953125 358.735351562 m 0,43,44
 252.555664062 370 252.555664062 370 228.120117188 370 c 128,-1,45
 203.79296875 370 203.79296875 370 176.65234375 347.043945312 c 0,46,47
 152.891601562 326.9453125 152.891601562 326.9453125 140.073242188 309.15234375 c 1,48,49
 138.885742188 295.61328125 138.885742188 295.61328125 137.87890625 283.293945312 c 128,-1,50
 136.872070312 270.974609375 136.872070312 270.974609375 136.872070312 247.094726562 c 128,-1,51
 136.872070312 223.213867188 136.872070312 223.213867188 141.583007812 189.311523438 c 128,-1,52
 146.294921875 155.408203125 146.294921875 155.408203125 157.544921875 127.954101562 c 128,-1,53
 168.796875 100.499023438 168.796875 100.499023438 186.572265625 84.25 c 128,-1,54
 204.349609375 68 204.349609375 68 229.889648438 68 c 128,-1,55
 255.4296875 68 255.4296875 68 271.411132812 81.4658203125 c 128,-1,56
 287.391601562 94.9306640625 287.391601562 94.9306640625 298.4296875 117.904296875 c 128,-1,57
 309.466796875 140.877929688 309.466796875 140.877929688 314.41796875 169.349609375 c 128,-1,58
 319.3671875 197.8203125 319.3671875 197.8203125 319.3671875 225.703125 c 128,-1,59
 319.3671875 253.5859375 319.3671875 253.5859375 313.8046875 280.346679688 c 0,60,61
 302.181640625 336.263671875 302.181640625 336.263671875 269.126953125 358.735351562 c 0,43,44
EndSplineSet
Validated: 524289
EndChar

StartChar: seven
Encoding: 55 55 40
Width: 392
Flags: W
LayerCount: 2
Fore
SplineSet
379.479492188 650.344726562 m 132,-1,1
 379.479492188 636.619140625 379.479492188 636.619140625 364.291992188 592.186523438 c 4,2,3
 358.177734375 574.297851562 358.177734375 574.297851562 351.560546875 552.606445312 c 132,-1,4
 344.943359375 530.915039062 344.943359375 530.915039062 337.983398438 511.07421875 c 132,-1,5
 331.022460938 491.233398438 331.022460938 491.233398438 326.149414062 475.951171875 c 132,-1,6
 321.275390625 460.66796875 321.275390625 460.66796875 319.15625 454.584960938 c 4,7,8
 275.2578125 327.727539062 275.2578125 327.727539062 227.60546875 203.610351562 c 132,-1,9
 179.956054688 79.4931640625 179.956054688 79.4931640625 121.334960938 -42.96875 c 4,10,11
 113.366210938 -59.8896484375 113.366210938 -59.8896484375 96.8701171875 -59.8896484375 c 4,12,13
 86.8115234375 -59.8896484375 86.8115234375 -59.8896484375 77.3486328125 -53.1416015625 c 132,-1,14
 67.884765625 -46.3935546875 67.884765625 -46.3935546875 62.1337890625 -35.06640625 c 4,15,16
 56.3623046875 -24.3681640625 56.3623046875 -24.3681640625 56.3623046875 -12.7216796875 c 4,17,18
 56.3623046875 -6.720703125 56.3623046875 -6.720703125 58.138671875 -0.3896484375 c 6,19,20
 90.2958984375 109.401367188 90.2958984375 109.401367188 128.391601562 187.280273438 c 5,21,22
 166.801757812 285.487304688 166.801757812 285.487304688 205.211914062 373.828125 c 5,23,24
 223.811523438 418.547851562 223.811523438 418.547851562 242.41015625 470.061523438 c 6,25,26
 260.263671875 516.057617188 260.263671875 516.057617188 276.258789062 563.395507812 c 5,27,28
 276.400390625 552.4609375 276.400390625 552.4609375 276.541015625 565.084960938 c 5,29,-1
 41.5595703125 565.084960938 l 6,30,31
 24.2568359375 565.084960938 24.2568359375 565.084960938 16.24609375 576.078125 c 4,32,33
 9.9990234375 584.651367188 9.9990234375 584.651367188 9.9990234375 597.125976562 c 4,34,35
 9.9990234375 602.999023438 9.9990234375 602.999023438 11.5390625 608.927734375 c 4,36,37
 18.6923828125 637.276367188 18.6923828125 637.276367188 26.9111328125 679.266601562 c 132,-1,38
 35.1298828125 721.2578125 35.1298828125 721.2578125 39.1123046875 735.715820312 c 4,39,40
 46.810546875 763.65625 46.810546875 763.65625 62.01953125 763.65625 c 4,41,42
 67.70703125 763.65625 67.70703125 763.65625 75.0029296875 760.405273438 c 132,-1,43
 82.2978515625 757.153320312 82.2978515625 757.153320312 86.7392578125 750.107421875 c 4,44,45
 93.4072265625 740.70703125 93.4072265625 740.70703125 93.4072265625 727.106445312 c 6,46,47
 93.4072265625 704.657226562 93.4072265625 704.657226562 93.4072265625 726.478515625 c 6,48,49
 92.8828125 714.5625 92.8828125 714.5625 92.8828125 707.067382812 c 132,-1,50
 92.8828125 699.573242188 92.8828125 699.573242188 93.0009765625 695.048828125 c 132,-1,51
 93.119140625 690.525390625 93.119140625 690.525390625 93.1396484375 686.060546875 c 5,52,53
 98.892578125 666.1796875 98.892578125 666.1796875 104.646484375 685.715820312 c 5,54,-1
 200.948242188 685.715820312 l 6,55,56
 217.71875 685.715820312 217.71875 685.715820312 232.922851562 686.626953125 c 6,57,58
 233.1171875 666.8828125 233.1171875 666.8828125 233.3125 686.645507812 c 6,59,60
 259.06640625 687.581054688 259.06640625 687.581054688 285.120117188 689 c 4,61,62
 309.13671875 690.418945312 309.13671875 690.418945312 331.299804688 690.418945312 c 6,63,-1
 339.87890625 690.418945312 l 6,64,65
 349.827148438 690.418945312 349.827148438 690.418945312 358.788085938 686.162109375 c 132,-1,66
 367.749023438 681.904296875 367.749023438 681.904296875 372.572265625 674.571289062 c 4,67,0
 379.479492188 664.0703125 379.479492188 664.0703125 379.479492188 650.344726562 c 132,-1,1
EndSplineSet
Validated: 524289
EndChar

StartChar: eight
Encoding: 56 56 41
Width: 400
Flags: W
LayerCount: 2
Fore
SplineSet
372.280273438 190.728515625 m 128,-1,1
 372.280273438 151.296875 372.280273438 151.296875 361.08203125 114.4765625 c 128,-1,2
 349.8828125 77.65625 349.8828125 77.65625 329.772460938 48.658203125 c 128,-1,3
 309.662109375 19.6611328125 309.662109375 19.6611328125 280.12109375 3.884765625 c 0,4,5
 246.3671875 -13 246.3671875 -13 210.452148438 -13 c 128,-1,6
 174.537109375 -13 174.537109375 -13 140.4765625 -3.720703125 c 0,7,8
 107.708007812 4.953125 107.708007812 4.953125 85.0078125 25.8486328125 c 128,-1,9
 62.30859375 46.7451171875 62.30859375 46.7451171875 47.7099609375 82.1083984375 c 0,10,11
 32.28515625 119.474609375 32.28515625 119.474609375 32.2822265625 173.166015625 c 0,12,13
 32.2822265625 232.174804688 32.2822265625 232.174804688 61.029296875 283.064453125 c 0,14,15
 74.2265625 306.427734375 74.2265625 306.427734375 89.5224609375 322.673828125 c 128,-1,16
 104.818359375 338.920898438 104.818359375 338.920898438 119.46484375 350.41015625 c 1,17,18
 105.776367188 362.123046875 105.776367188 362.123046875 91.7177734375 377.608398438 c 128,-1,19
 77.6591796875 393.092773438 77.6591796875 393.092773438 64.5478515625 414.756835938 c 128,-1,20
 51.4365234375 436.419921875 51.4365234375 436.419921875 42.2802734375 462.896484375 c 128,-1,21
 33.123046875 489.373046875 33.123046875 489.373046875 32.3486328125 523.358398438 c 2,22,23
 32.3466796875 512.413085938 32.3466796875 512.413085938 32.3447265625 523.583984375 c 2,24,25
 32.3037109375 526.134765625 32.3037109375 526.134765625 32.3037109375 528.66796875 c 0,26,27
 32.3037109375 572.448242188 32.3037109375 572.448242188 44.765625 608.784179688 c 128,-1,28
 57.2275390625 645.12109375 57.2275390625 645.12109375 78.4892578125 671.533203125 c 128,-1,29
 99.75 697.946289062 99.75 697.946289062 130.900390625 711.983398438 c 0,30,31
 165.15625 727 165.15625 727 199.96875 727 c 128,-1,32
 234.780273438 727 234.780273438 727 267.041015625 715.389648438 c 0,33,34
 297.79296875 704.541992188 297.79296875 704.541992188 318.869140625 682.697265625 c 128,-1,35
 339.9453125 660.852539062 339.9453125 660.852539062 353.728515625 626.70703125 c 0,36,37
 368.326171875 590.540039062 368.326171875 590.540039062 368.329101562 543.642578125 c 0,38,39
 368.329101562 475.10546875 368.329101562 475.10546875 333.455078125 428.086914062 c 0,40,41
 318.181640625 407.495117188 318.181640625 407.495117188 298.350585938 391.16015625 c 0,42,43
 292.46875 386.31640625 292.46875 386.31640625 285.419921875 381.6640625 c 1,44,45
 340.811523438 332.815429688 340.811523438 332.815429688 363.293945312 259.47265625 c 0,46,0
 372.279296875 230.161132812 372.279296875 230.161132812 372.280273438 190.728515625 c 128,-1,1
133.934570312 278.364257812 m 128,-1,48
 116.682617188 243.916992188 116.682617188 243.916992188 116.682617188 202.147460938 c 0,49,50
 116.682617188 172.703125 116.682617188 172.703125 121.711914062 146.9296875 c 128,-1,51
 126.740234375 121.155273438 126.740234375 121.155273438 135.798828125 104.387695312 c 128,-1,52
 144.858398438 87.6201171875 144.858398438 87.6201171875 158.3125 77.810546875 c 128,-1,53
 171.766601562 68 171.766601562 68 189.340820312 68 c 128,-1,54
 206.915039062 68 206.915039062 68 218.874023438 70.1083984375 c 128,-1,55
 230.83203125 72.2158203125 230.83203125 72.2158203125 243.477539062 79.607421875 c 0,56,57
 265.985351562 92.7216796875 265.985351562 92.7216796875 274.555664062 115.694335938 c 128,-1,58
 283.125 138.666992188 283.125 138.666992188 283.125 166.655273438 c 0,59,60
 283.125 203.8359375 283.125 203.8359375 273.702148438 229.326171875 c 0,61,62
 256.033203125 277.125 256.033203125 277.125 215.892578125 306.4765625 c 0,63,64
 198.756835938 319.006835938 198.756835938 319.006835938 180.005859375 328.935546875 c 1,65,47
 151.1875 312.8125 151.1875 312.8125 133.934570312 278.364257812 c 128,-1,48
257.797851562 615.193359375 m 0,66,67
 234.708984375 648 234.708984375 648 194.592773438 648 c 0,68,69
 159.646484375 648 159.646484375 648 138.256835938 619.63671875 c 128,-1,70
 116.8671875 591.2734375 116.8671875 591.2734375 116.79296875 546.33203125 c 0,71,72
 117.518554688 515.153320312 117.518554688 515.153320312 134.100585938 486.5078125 c 0,73,74
 139.538085938 477.282226562 139.538085938 477.282226562 150.743164062 463.456054688 c 0,75,76
 176.41796875 431.775390625 176.41796875 431.775390625 202.348632812 413.110351562 c 0,77,78
 211.046875 406.849609375 211.046875 406.849609375 218.30859375 403.31640625 c 1,79,80
 230.841796875 408.8984375 230.841796875 408.8984375 242.69921875 421.27734375 c 128,-1,81
 254.555664062 433.657226562 254.555664062 433.657226562 263.84765625 451.493164062 c 128,-1,82
 273.174804688 469.397460938 273.174804688 469.397460938 278.032226562 490.372070312 c 128,-1,83
 282.876953125 511.294921875 282.876953125 511.294921875 282.927734375 531.564453125 c 0,84,85
 282.1875 556.124023438 282.1875 556.124023438 275.357421875 578.038085938 c 128,-1,86
 268.528320312 599.946289062 268.528320312 599.946289062 257.797851562 615.193359375 c 0,66,67
EndSplineSet
Validated: 524289
EndChar

StartChar: nine
Encoding: 57 57 42
Width: 452
Flags: W
LayerCount: 2
Fore
SplineSet
223.349609375 324 m 128,-1,1
 247.076171875 324 247.076171875 324 275.20703125 347.133789062 c 0,2,3
 295.862304688 364.119140625 295.862304688 364.119140625 312.00390625 385.295898438 c 1,4,5
 313.166992188 398.577148438 313.166992188 398.577148438 314.166015625 410.80078125 c 128,-1,6
 315.165039062 423.025390625 315.165039062 423.025390625 315.165039062 446.905273438 c 128,-1,7
 315.165039062 470.786132812 315.165039062 470.786132812 310.454101562 504.688476562 c 128,-1,8
 305.7421875 538.591796875 305.7421875 538.591796875 294.4921875 566.045898438 c 128,-1,9
 283.240234375 593.500976562 283.240234375 593.500976562 265.46484375 609.75 c 128,-1,10
 247.6875 626 247.6875 626 222.147460938 626 c 128,-1,11
 196.607421875 626 196.607421875 626 180.594726562 612.5078125 c 128,-1,12
 164.583007812 599.016601562 164.583007812 599.016601562 153.541015625 576.431640625 c 128,-1,13
 142.5 553.846679688 142.5 553.846679688 137.194335938 524.94921875 c 128,-1,14
 131.889648438 496.051757812 131.889648438 496.051757812 131.889648438 468.317382812 c 128,-1,15
 131.889648438 440.583007812 131.889648438 440.583007812 137.791992188 413.860351562 c 0,16,17
 149.9375 358.868164062 149.9375 358.868164062 183.142578125 335.565429688 c 0,18,0
 199.625 324 199.625 324 223.349609375 324 c 128,-1,1
267.80078125 189.825195312 m 0,19,20
 280.904296875 224.59765625 280.904296875 224.59765625 291.194335938 264.926757812 c 1,21,22
 243.068359375 228 243.068359375 228 192.721679688 228 c 0,23,24
 153.4296875 228 153.4296875 228 121.944335938 245.251953125 c 0,25,26
 94.86328125 262.446289062 94.86328125 262.446289062 76.0458984375 292.181640625 c 128,-1,27
 57.310546875 321.7890625 57.310546875 321.7890625 47.3740234375 361.969726562 c 128,-1,28
 37.4365234375 402.150390625 37.4365234375 402.150390625 37.4365234375 449.946289062 c 128,-1,29
 37.4365234375 497.7421875 37.4365234375 497.7421875 49.32421875 543.801757812 c 128,-1,30
 61.212890625 589.860351562 61.212890625 589.860351562 82.365234375 626.533203125 c 128,-1,31
 103.517578125 663.20703125 103.517578125 663.20703125 136.653320312 685.006835938 c 0,32,33
 172.517578125 708 172.517578125 708 215.8203125 708 c 128,-1,34
 259.122070312 708 259.122070312 708 300.940429688 685.01953125 c 0,35,36
 335.174804688 667.432617188 335.174804688 667.432617188 355.693359375 638.950195312 c 0,37,38
 395.793945312 583.28125 395.793945312 583.28125 408.318359375 501.013671875 c 0,39,40
 414.296875 461.7421875 414.296875 461.7421875 414.296875 420.994140625 c 0,41,42
 414.296875 341.682617188 414.296875 341.682617188 398.344726562 273.05859375 c 128,-1,43
 382.392578125 204.434570312 382.392578125 204.434570312 355.671875 149.0078125 c 0,44,45
 328.118164062 93.47265625 328.118164062 93.47265625 286.124023438 52.5966796875 c 128,-1,46
 244.232421875 11.8212890625 244.232421875 11.8212890625 198.810546875 -10.0068359375 c 0,47,48
 190.208007812 -15.013671875 190.208007812 -15.013671875 177.140625 -22.2744140625 c 128,-1,49
 164.075195312 -29.5341796875 164.075195312 -29.5341796875 152.391601562 -30.896484375 c 2,50,51
 150.48046875 -32 150.48046875 -32 146.03515625 -31.6376953125 c 1,52,53
 140.580078125 -28 140.580078125 -28 140.596679688 -27.453125 c 2,54,55
 135.000976562 -23.1474609375 135.000976562 -23.1474609375 128.861328125 -15.9306640625 c 0,56,57
 117.95703125 -4.1943359375 117.95703125 -4.1943359375 117.95703125 12.125 c 0,58,59
 117.95703125 23.1337890625 117.95703125 23.1337890625 125.926757812 31.9619140625 c 0,60,61
 132.842773438 39.5224609375 132.842773438 39.5224609375 185.127929688 75.62890625 c 0,62,63
 196.064453125 83.1806640625 196.064453125 83.1806640625 201.000976562 88.2041015625 c 0,64,65
 245.381835938 133.05078125 245.381835938 133.05078125 267.80078125 189.825195312 c 0,19,20
EndSplineSet
Validated: 524289
EndChar

StartChar: colon
Encoding: 58 58 43
Width: 173
Flags: W
LayerCount: 2
Fore
SplineSet
21.7802734375 409 m 0,0,1
 21.7802734375 443.153320312 21.7802734375 443.153320312 38.7607421875 469.577148438 c 0,2,3
 55.7412109375 496 55.7412109375 496 79.283203125 496 c 0,4,5
 102.826171875 496 102.826171875 496 121.373046875 469.954101562 c 0,6,7
 139.919921875 443.909179688 139.919921875 443.909179688 139.919921875 405.6875 c 0,8,9
 139.919921875 367.465820312 139.919921875 367.465820312 121.82421875 340.732421875 c 0,10,11
 103.727539062 314 103.727539062 314 79.2001953125 314 c 0,12,13
 74.8837890625 314 74.8837890625 314 71.2548828125 315.704101562 c 0,14,15
 61.7783203125 318.034179688 61.7783203125 318.034179688 52.615234375 326.62890625 c 0,16,17
 36.009765625 342.204101562 36.009765625 342.204101562 26.4404296875 375.55078125 c 0,18,19
 21.7802734375 391.791015625 21.7802734375 391.791015625 21.7802734375 409 c 0,0,1
139.919921875 51 m 0,20,21
 139.919921875 14.189453125 139.919921875 14.189453125 122.395507812 -14.4052734375 c 0,22,23
 104.87109375 -43 104.87109375 -43 79.8603515625 -43 c 0,24,25
 67.3818359375 -43 67.3818359375 -43 56.2021484375 -34.5302734375 c 0,26,27
 45.0224609375 -26.060546875 45.0224609375 -26.060546875 37.8720703125 -13.197265625 c 0,28,29
 30.72265625 -0.3330078125 30.72265625 -0.3330078125 25.921875 16.201171875 c 0,30,31
 21.1201171875 32.734375 21.1201171875 32.734375 21.1201171875 51 c 0,32,33
 21.1201171875 88.7470703125 21.1201171875 88.7470703125 38.625 113.873046875 c 0,34,35
 56.1298828125 139 56.1298828125 139 79.802734375 139 c 0,36,37
 103.4765625 139 103.4765625 139 121.698242188 113.461914062 c 0,38,39
 139.919921875 87.923828125 139.919921875 87.923828125 139.919921875 51 c 0,20,21
EndSplineSet
Validated: 524289
EndChar

StartChar: semicolon
Encoding: 59 59 44
Width: 174
Flags: W
LayerCount: 2
Fore
SplineSet
145.860351562 406 m 0,0,1
 145.860351562 367.841796875 145.860351562 367.841796875 128.547851562 340.920898438 c 0,2,3
 111.236328125 314 111.236328125 314 85.7998046875 314 c 0,4,5
 82.076171875 314 82.076171875 314 78.8642578125 315.544921875 c 0,6,7
 55.9658203125 320.043945312 55.9658203125 320.043945312 43.8232421875 346.619140625 c 0,8,9
 31.6796875 373.194335938 31.6796875 373.194335938 31.6796875 404 c 0,10,11
 31.6796875 442.717773438 31.6796875 442.717773438 47.193359375 468.358398438 c 0,12,13
 62.7060546875 494 62.7060546875 494 87.7626953125 494 c 0,14,15
 112.8203125 494 112.8203125 494 129.33984375 466.883789062 c 0,16,17
 145.860351562 439.767578125 145.860351562 439.767578125 145.860351562 406 c 0,0,1
159.719726562 -12 m 0,18,19
 159.719726562 -55.8203125 159.719726562 -55.8203125 148.262695312 -91.1171875 c 0,20,21
 136.805664062 -126.415039062 136.805664062 -126.415039062 116.232421875 -154.123046875 c 0,22,23
 103.826171875 -169.161132812 103.826171875 -169.161132812 89.70703125 -182.9140625 c 0,24,25
 66.5615234375 -205.45703125 66.5615234375 -205.45703125 56.3251953125 -210.498046875 c 0,26,27
 51.244140625 -213 51.244140625 -213 46.8603515625 -213 c 0,28,29
 34.12109375 -213 34.12109375 -213 27.6865234375 -197.034179688 c 0,30,31
 21.1201171875 -187.219726562 21.1201171875 -187.219726562 21.1201171875 -172 c 0,32,33
 21.1201171875 -159.662109375 21.1201171875 -159.662109375 29.40234375 -148.680664062 c 0,34,35
 41.8330078125 -132.201171875 41.8330078125 -132.201171875 46.3486328125 -128.469726562 c 0,36,37
 66.8544921875 -107.611328125 66.8544921875 -107.611328125 74.572265625 -92.021484375 c 0,38,39
 79.111328125 -82.8515625 79.111328125 -82.8515625 81.7958984375 -72.1279296875 c 0,40,41
 84.48046875 -61.4052734375 84.48046875 -61.4052734375 84.48046875 -45 c 1,42,-1
 83.365234375 -34.59765625 l 1,43,44
 78.7978515625 -26.8125 78.7978515625 -26.8125 64.990234375 -22.1630859375 c 0,45,46
 51.18359375 -17.5146484375 51.18359375 -17.5146484375 41.5888671875 -8.365234375 c 0,47,48
 31.62890625 0.541015625 31.62890625 0.541015625 25.7197265625 13.2236328125 c 0,49,50
 17.8203125 30.1806640625 17.8203125 30.1806640625 17.8203125 52 c 0,51,52
 17.8203125 93.45703125 17.8203125 93.45703125 40.76171875 116.384765625 c 0,53,54
 60.390625 136 60.390625 136 81.83984375 136 c 0,55,56
 103.39453125 136 103.39453125 136 118.051757812 120.9765625 c 0,57,58
 132.709960938 105.953125 132.709960938 105.953125 142.3515625 84.041015625 c 0,59,60
 159.719726562 44.56640625 159.719726562 44.56640625 159.719726562 -12 c 0,18,19
EndSplineSet
Validated: 524289
EndChar

StartChar: less
Encoding: 60 60 45
Width: 308
Flags: W
LayerCount: 2
Fore
SplineSet
295.01953125 450 m 2,0,-1
 295.01953125 437.450195312 l 1,1,2
 230.094726562 364.1953125 230.094726562 364.1953125 198.66015625 326.241210938 c 0,3,4
 166.3515625 287.232421875 166.3515625 287.232421875 116.82421875 229.87890625 c 1,5,6
 168.056640625 169.983398438 168.056640625 169.983398438 193.6953125 142.235351562 c 0,7,8
 214.1796875 120.06640625 214.1796875 120.06640625 300.959960938 29.1015625 c 1,9,-1
 300.959960938 16 l 2,10,11
 300.959960938 2.4541015625 300.959960938 2.4541015625 299.215820312 -4.591796875 c 0,12,13
 297.47265625 -11.6376953125 297.47265625 -11.6376953125 296.224609375 -14.9462890625 c 0,14,15
 294.9765625 -18.2548828125 294.9765625 -18.2548828125 294.541992188 -19.8564453125 c 0,16,17
 294.360351562 -22 294.360351562 -22 294.360351562 -26 c 2,18,-1
 294.360351562 -67.3779296875 l 1,19,20
 230.966796875 -16.9111328125 230.966796875 -16.9111328125 203.287109375 7.3427734375 c 0,21,22
 151.810546875 52.4482421875 151.810546875 52.4482421875 94.2646484375 109.573242188 c 0,23,24
 65.732421875 137.896484375 65.732421875 137.896484375 16.5 184.07421875 c 1,25,-1
 16.5 275.383789062 l 1,26,27
 77.1357421875 328.797851562 77.1357421875 328.797851562 103.546875 355.224609375 c 0,28,29
 129.958984375 381.651367188 129.958984375 381.651367188 145.814453125 398.66796875 c 0,30,31
 204.391601562 461.534179688 204.391601562 461.534179688 266.920898438 511.161132812 c 2,32,-1
 291.059570312 530.319335938 l 1,33,-1
 291.059570312 489 l 2,34,35
 291.059570312 482.072265625 291.059570312 482.072265625 292.014648438 477.731445312 c 0,36,37
 292.969726562 473.390625 292.969726562 473.390625 293.995117188 467.955078125 c 0,38,39
 295.01953125 462.51953125 295.01953125 462.51953125 295.01953125 450 c 2,0,-1
EndSplineSet
Validated: 524289
EndChar

StartChar: equal
Encoding: 61 61 46
Width: 345
Flags: W
LayerCount: 2
Fore
SplineSet
216.48046875 282 m 1,0,-1
 40.259765625 281 l 1,1,-1
 31.2841796875 281 l 1,2,-1
 26.396484375 292.444335938 l 2,3,4
 15.79296875 317.275390625 15.79296875 317.275390625 15.79296875 337.248046875 c 0,5,6
 15.79296875 357.220703125 15.79296875 357.220703125 25.8857421875 384.274414062 c 2,7,-1
 30.6328125 397 l 1,8,-1
 40.259765625 397 l 2,9,10
 102.389648438 397 102.389648438 397 159.153320312 396 c 0,11,12
 215.91796875 395 215.91796875 395 256.740234375 395 c 2,13,-1
 317.7890625 395 l 1,14,-1
 320.439453125 374.921875 l 2,15,16
 322.080078125 362.49609375 322.080078125 362.49609375 322.080078125 354 c 2,17,-1
 322.080078125 340 l 2,18,19
 322.080078125 331.365234375 322.080078125 331.365234375 321.729492188 320.733398438 c 0,20,21
 321.125 302.41796875 321.125 302.41796875 314.30078125 290.010742188 c 2,22,-1
 308.747070312 279.9140625 l 1,23,24
 293.6015625 282 293.6015625 282 285.120117188 282 c 2,25,-1
 216.48046875 282 l 1,0,-1
37.6201171875 233 m 1,26,-1
 118.799804688 234 l 1,27,-1
 310.71484375 234 l 1,28,-1
 315.665039062 223.614257812 l 2,29,30
 325.9765625 201.982421875 325.9765625 201.982421875 325.9765625 180.916992188 c 0,31,32
 325.9765625 162.21875 325.9765625 162.21875 317.366210938 132.866210938 c 2,33,-1
 313.21875 118.727539062 l 1,34,35
 288.140625 117 288.140625 117 271.919921875 117 c 2,36,-1
 163.01953125 117 l 2,37,38
 81.5927734375 117 81.5927734375 117 20.4599609375 119.724609375 c 1,39,-1
 20.4599609375 144 l 2,40,41
 20.4599609375 148.927734375 20.4599609375 148.927734375 18.8095703125 156.427734375 c 0,42,43
 17.16015625 163.927734375 17.16015625 163.927734375 17.16015625 175.090820312 c 0,44,45
 17.16015625 186.252929688 17.16015625 186.252929688 18.984375 196.758789062 c 0,46,47
 20.8095703125 207.263671875 20.8095703125 207.263671875 23.640625 233 c 1,48,-1
 37.6201171875 233 l 1,26,-1
EndSplineSet
Validated: 524289
EndChar

StartChar: greater
Encoding: 62 62 47
Width: 308
Flags: W
LayerCount: 2
Fore
SplineSet
15.1796875 16 m 2,0,-1
 15.1796875 29.060546875 l 1,1,2
 84.7734375 102.413085938 84.7734375 102.413085938 161.774414062 189.081054688 c 0,3,4
 178.090820312 207.4453125 178.090820312 207.4453125 198.659179688 230.268554688 c 1,5,6
 183.225585938 247.993164062 183.225585938 247.993164062 166.407226562 268.131835938 c 0,7,8
 149.58984375 288.270507812 149.58984375 288.270507812 128.154296875 313.252929688 c 0,9,10
 106.71875 338.236328125 106.71875 338.236328125 82.68359375 366.671875 c 0,11,12
 58.6474609375 395.108398438 58.6474609375 395.108398438 21.1201171875 437.450195312 c 1,13,-1
 21.1201171875 450 l 2,14,15
 21.1201171875 462.51953125 21.1201171875 462.51953125 22.14453125 467.955078125 c 0,16,17
 23.169921875 473.390625 23.169921875 473.390625 23.77734375 476.149414062 c 0,18,19
 25.080078125 482.072265625 25.080078125 482.072265625 25.080078125 489 c 2,20,-1
 25.080078125 531.223632812 l 1,21,-1
 49.49609375 510.935546875 l 2,22,23
 90.8359375 476.586914062 90.8359375 476.586914062 118.6328125 450.201171875 c 0,24,25
 146.30859375 423.9296875 146.30859375 423.9296875 170.466796875 398.858398438 c 0,26,27
 194.625976562 373.788085938 194.625976562 373.788085938 222.08203125 346.549804688 c 0,28,29
 249.537109375 319.311523438 249.537109375 319.311523438 299.639648438 275.424804688 c 1,30,-1
 299.639648438 184.07421875 l 1,31,32
 264.223632812 150.85546875 264.223632812 150.85546875 242.805664062 129.88671875 c 0,33,34
 219.155273438 106.732421875 219.155273438 106.732421875 201.908203125 90.279296875 c 0,35,36
 184.662109375 73.826171875 184.662109375 73.826171875 167.23828125 57.232421875 c 0,37,38
 149.814453125 40.638671875 149.814453125 40.638671875 131.814453125 24.4765625 c 0,39,40
 100.572265625 -3.57421875 100.572265625 -3.57421875 21.7802734375 -67.8564453125 c 1,41,-1
 21.7802734375 -26 l 2,42,43
 21.7802734375 -19.890625 21.7802734375 -19.890625 20.2236328125 -15.763671875 c 0,44,45
 18.66796875 -11.6376953125 18.66796875 -11.6376953125 16.923828125 -4.591796875 c 0,46,47
 15.1796875 2.4541015625 15.1796875 2.4541015625 15.1796875 16 c 2,0,-1
EndSplineSet
Validated: 524289
EndChar

StartChar: question
Encoding: 63 63 48
Width: 242
Flags: W
LayerCount: 2
Fore
SplineSet
131.33984375 40 m 0,0,1
 131.33984375 2.4443359375 131.33984375 2.4443359375 112.31640625 -22.0546875 c 0,2,3
 97.5009765625 -41.13671875 97.5009765625 -41.13671875 79.26953125 -41.13671875 c 0,4,5
 74.494140625 -41.13671875 74.494140625 -41.13671875 69.61328125 -39.7822265625 c 0,6,7
 46.9990234375 -36.3544921875 46.9990234375 -36.3544921875 34.7197265625 -11.3095703125 c 0,8,9
 22.4404296875 13.7353515625 22.4404296875 13.7353515625 22.4404296875 44 c 0,10,11
 22.4404296875 79.8935546875 22.4404296875 79.8935546875 37.3525390625 103.947265625 c 0,12,13
 52.265625 128 52.265625 128 77.302734375 128 c 0,14,15
 102.338867188 128 102.338867188 128 117.533203125 99.0380859375 c 0,16,17
 131.33984375 72.7197265625 131.33984375 72.7197265625 131.33984375 40 c 0,0,1
44.2197265625 237 m 1,18,-1
 44.8798828125 284 l 2,19,20
 44.8798828125 302.094726562 44.8798828125 302.094726562 44.330078125 313.76171875 c 0,21,22
 43.7802734375 325.428710938 43.7802734375 325.428710938 43.7802734375 331.865234375 c 0,23,24
 43.7802734375 338.301757812 43.7802734375 338.301757812 44.0712890625 347.125 c 0,25,26
 44.3623046875 355.948242188 44.3623046875 355.948242188 47.2890625 368.364257812 c 0,27,28
 50.2158203125 380.779296875 50.2158203125 380.779296875 59.064453125 390.356445312 c 2,29,-1
 60.724609375 392.153320312 l 1,30,31
 80.4677734375 403.904296875 80.4677734375 403.904296875 98.2685546875 417.153320312 c 0,32,33
 116.069335938 430.40234375 116.069335938 430.40234375 130.213867188 446.5859375 c 0,34,35
 144.359375 462.768554688 144.359375 462.768554688 152.040039062 483.634765625 c 0,36,37
 159.719726562 504.501953125 159.719726562 504.501953125 159.719726562 534 c 0,38,39
 159.719726562 575.263671875 159.719726562 575.263671875 141.979492188 608.213867188 c 0,40,41
 133.75390625 623.490234375 133.75390625 623.490234375 122.809570312 632.745117188 c 0,42,43
 111.866210938 642 111.866210938 642 101.6015625 642 c 0,44,45
 91.3369140625 642 91.3369140625 642 79.45703125 635.5 c 0,46,47
 67.5771484375 629 67.5771484375 629 53.4599609375 629 c 0,48,49
 36.2001953125 629 36.2001953125 629 22.3896484375 646.705078125 c 0,50,51
 8.580078125 664.41015625 8.580078125 664.41015625 8.580078125 693 c 0,52,53
 8.580078125 715.232421875 8.580078125 715.232421875 14.9990234375 730.6328125 c 0,54,55
 21.4189453125 746.032226562 21.4189453125 746.032226562 31.634765625 754.140625 c 0,56,57
 41.8505859375 762.248046875 41.8505859375 762.248046875 51.755859375 764.124023438 c 0,58,59
 61.6611328125 766 61.6611328125 766 71.2802734375 766 c 0,60,61
 104.6015625 766 104.6015625 766 133.8359375 736.84375 c 0,62,63
 163.0703125 707.6875 163.0703125 707.6875 185.129882812 665.638671875 c 0,64,65
 207.190429688 623.588867188 207.190429688 623.588867188 220.084960938 573.659179688 c 0,66,67
 232.98046875 523.728515625 232.98046875 523.728515625 232.98046875 478.861328125 c 0,68,69
 232.98046875 433.995117188 232.98046875 433.995117188 222.532226562 402.920898438 c 0,70,71
 203.44921875 346.1640625 203.44921875 346.1640625 164.28125 314.018554688 c 2,72,-1
 133.943359375 289.037109375 l 2,73,74
 120.64453125 278.045898438 120.64453125 278.045898438 110.849609375 266.352539062 c 0,75,76
 104.217773438 258.436523438 104.217773438 258.436523438 102.360351562 248.302734375 c 2,77,-1
 100.859375 240.1171875 l 1,78,-1
 100.322265625 239.505859375 l 1,79,-1
 100.322265625 239 l 1,80,-1
 100.322265625 212 l 2,81,82
 100.322265625 176.873046875 100.322265625 176.873046875 90.3759765625 161.190429688 c 0,83,84
 83.5966796875 150.500976562 83.5966796875 150.500976562 73.4501953125 149.103515625 c 2,85,-1
 70.796875 148.73828125 l 1,86,-1
 68.220703125 149.638671875 l 2,87,88
 60.1865234375 152.448242188 60.1865234375 152.448242188 53.927734375 161.151367188 c 0,89,90
 44.2197265625 174.651367188 44.2197265625 174.651367188 44.2197265625 210 c 2,91,-1
 44.2197265625 237 l 1,18,-1
EndSplineSet
Validated: 524289
EndChar

StartChar: at
Encoding: 64 64 49
Width: 592
Flags: W
LayerCount: 2
Fore
SplineSet
262.6796875 119 m 0,0,1
 262.6796875 98.4580078125 262.6796875 98.4580078125 267.874023438 88.166015625 c 0,2,3
 271.491210938 81 271.491210938 81 283.616210938 81 c 0,4,5
 295.741210938 81 295.741210938 81 307.09765625 89.603515625 c 0,6,7
 318.454101562 98.2060546875 318.454101562 98.2060546875 325.612304688 109.655273438 c 0,8,9
 328.9140625 115.599609375 328.9140625 115.599609375 333.360351562 125.704101562 c 0,10,11
 337.806640625 135.80859375 337.806640625 135.80859375 339.37890625 142.481445312 c 1,12,-1
 340.559570312 174.705078125 l 1,13,-1
 340.559570312 198.015625 l 1,14,15
 328.421875 192.430664062 328.421875 192.430664062 317.502929688 185.958007812 c 0,16,17
 306.583984375 179.484375 306.583984375 179.484375 299.533203125 176.247070312 c 0,18,19
 284.186523438 167.831054688 284.186523438 167.831054688 271.828125 151.602539062 c 0,20,21
 262.6796875 139.58984375 262.6796875 139.58984375 262.6796875 119 c 0,0,1
314.8203125 -92 m 0,22,23
 353.005859375 -92 353.005859375 -92 395.596679688 -69.84765625 c 0,24,25
 416.211914062 -59.125 416.211914062 -59.125 433.874023438 -43.703125 c 0,26,27
 451.536132812 -28.2822265625 451.536132812 -28.2822265625 462.989257812 -9.193359375 c 2,28,-1
 469.795898438 2.1513671875 l 1,29,30
 498.002929688 -9.5048828125 498.002929688 -9.5048828125 508.526367188 -12.4033203125 c 2,31,-1
 537.750976562 -20.455078125 l 1,32,-1
 517.779296875 -53.79296875 l 2,33,34
 476.467773438 -122.751953125 476.467773438 -122.751953125 423.751953125 -157.895507812 c 0,35,36
 371.094726562 -193 371.094726562 -193 310.200195312 -193 c 0,37,38
 266.16796875 -193 266.16796875 -193 224.571289062 -173.93359375 c 0,39,40
 183.029296875 -154.892578125 183.029296875 -154.892578125 147.299804688 -119.333007812 c 0,41,42
 111.5703125 -83.7734375 111.5703125 -83.7734375 84.2080078125 -32.748046875 c 0,43,44
 56.337890625 19.224609375 56.337890625 19.224609375 40.626953125 82.3056640625 c 0,45,46
 23.759765625 151.109375 23.759765625 151.109375 23.759765625 236.790039062 c 0,47,48
 23.759765625 322.469726562 23.759765625 322.469726562 47.283203125 400.134765625 c 0,49,50
 70.8056640625 477.799804688 70.8056640625 477.799804688 111.411132812 536.140625 c 0,51,52
 152.131835938 594.647460938 152.131835938 594.647460938 203.598632812 623.823242188 c 0,53,54
 255.06640625 653 255.06640625 653 310.860351562 653 c 0,55,56
 345.942382812 653 345.942382812 653 381.68359375 639.196289062 c 0,57,58
 454.313476562 611.145507812 454.313476562 611.145507812 505.504882812 531.428710938 c 0,59,60
 531.924804688 490.286132812 531.924804688 490.286132812 547.084960938 439.000976562 c 0,61,62
 556.852539062 405.174804688 556.852539062 405.174804688 562.885742188 369.680664062 c 0,63,64
 568.919921875 334.186523438 568.919921875 334.186523438 568.919921875 290.744140625 c 0,65,66
 568.919921875 247.30078125 568.919921875 247.30078125 559.021484375 197.487304688 c 0,67,68
 549.123046875 147.673828125 549.123046875 147.673828125 531.298828125 103.923828125 c 0,69,70
 513.474609375 60.173828125 513.474609375 60.173828125 486.34765625 27.4033203125 c 0,71,72
 459.220703125 -5.3671875 459.220703125 -5.3671875 424.98828125 -15.5146484375 c 0,73,74
 416.787109375 -18 416.787109375 -18 406.559570312 -18 c 0,75,76
 376.685546875 -18 376.685546875 -18 359.212890625 11.95703125 c 0,77,78
 352.759765625 23.021484375 352.759765625 23.021484375 347.877929688 36.193359375 c 1,79,80
 317.662109375 -3.6943359375 317.662109375 -3.6943359375 286.072265625 -17.521484375 c 0,81,82
 268.987304688 -25 268.987304688 -25 253.440429688 -25 c 0,83,84
 210.78515625 -25 210.78515625 -25 191.96875 13.69140625 c 0,85,86
 174.900390625 48.7890625 174.900390625 48.7890625 174.900390625 103 c 0,87,88
 174.900390625 132.975585938 174.900390625 132.975585938 184.359375 156.65625 c 0,89,90
 207.931640625 215.665039062 207.931640625 215.665039062 265.001953125 247.521484375 c 0,91,92
 288.873046875 260.583007812 288.873046875 260.583007812 305.884765625 269.470703125 c 0,93,94
 322.897460938 278.359375 322.897460938 278.359375 340.559570312 285.451171875 c 1,95,-1
 340.559570312 341 l 2,96,97
 340.559570312 377.038085938 340.559570312 377.038085938 332.364257812 397.60546875 c 0,98,99
 326.627929688 412 326.627929688 412 305.580078125 412 c 0,100,101
 289.111328125 412 289.111328125 412 280.293945312 405.139648438 c 0,102,103
 271.477539062 398.279296875 271.477539062 398.279296875 266.602539062 388.784179688 c 0,104,105
 261.728515625 379.2890625 261.728515625 379.2890625 259.595703125 368.78515625 c 0,106,107
 257.462890625 358.28125 257.462890625 358.28125 256.133789062 350.228515625 c 0,108,109
 251.065429688 325.65625 251.065429688 325.65625 235.740234375 308.768554688 c 0,110,111
 220.522460938 292 220.522460938 292 201.959960938 292 c 0,112,113
 193.938476562 292 193.938476562 292 187.853515625 297.854492188 c 0,114,115
 179.313476562 306.069335938 179.313476562 306.069335938 177.436523438 320.287109375 c 0,116,117
 175.559570312 334.50390625 175.559570312 334.50390625 175.559570312 345 c 0,118,119
 175.559570312 378.93359375 175.559570312 378.93359375 192.825195312 410.8359375 c 0,120,121
 207.76171875 438.43359375 207.76171875 438.43359375 229.036132812 461.379882812 c 0,122,123
 250.284179688 484.297851562 250.284179688 484.297851562 275.78515625 498.6484375 c 0,124,125
 301.286132812 513 301.286132812 513 322.740234375 513 c 0,126,127
 331.932617188 513 331.932617188 513 346.399414062 509.1875 c 0,128,129
 370.3671875 502.872070312 370.3671875 502.872070312 381.583007812 494.375 c 0,130,131
 410.575195312 472.411132812 410.575195312 472.411132812 417.828125 433.26171875 c 0,132,133
 423.719726562 401.459960938 423.719726562 401.459960938 423.719726562 361.08203125 c 0,134,135
 423.719726562 320.703125 423.719726562 320.703125 423.059570312 278.203125 c 0,136,137
 422.400390625 235.703125 422.400390625 235.703125 422.400390625 193 c 2,138,-1
 422.400390625 163 l 2,139,140
 422.400390625 110.899414062 422.400390625 110.899414062 425.352539062 97.36328125 c 0,141,142
 426.02734375 96 426.02734375 96 430.3203125 96 c 0,143,144
 443.850585938 96 443.850585938 96 454.834960938 112.989257812 c 0,145,146
 468.818359375 134.618164062 468.818359375 134.618164062 479.03125 166.0234375 c 0,147,148
 489.245117188 197.4296875 489.245117188 197.4296875 494.427734375 231.612304688 c 0,149,150
 499.620117188 265.854492188 499.620117188 265.854492188 499.620117188 288 c 0,151,152
 499.620117188 347.486328125 499.620117188 347.486328125 484.583007812 396.697265625 c 0,153,154
 469.546875 445.907226562 469.546875 445.907226562 443.561523438 481.616210938 c 0,155,156
 417.576171875 517.325195312 417.576171875 517.325195312 383.494140625 537.151367188 c 0,157,158
 349.373046875 557 349.373046875 557 310.860351562 557 c 0,159,160
 264.484375 557 264.484375 557 227.424804688 529.845703125 c 0,161,162
 190.365234375 502.690429688 190.365234375 502.690429688 164.205078125 457.522460938 c 0,163,164
 137.9375 412.169921875 137.9375 412.169921875 123.749023438 350.947265625 c 0,165,166
 109.559570312 289.723632812 109.559570312 289.723632812 109.559570312 222.708007812 c 0,167,168
 109.559570312 95.189453125 109.559570312 95.189453125 161.993164062 5.8720703125 c 0,169,170
 190.671875 -40.2587890625 190.671875 -40.2587890625 229.108398438 -66.142578125 c 0,171,172
 267.506835938 -92 267.506835938 -92 314.8203125 -92 c 0,22,23
EndSplineSet
Validated: 524289
EndChar

StartChar: A
Encoding: 65 65 50
Width: 591
Flags: W
LayerCount: 2
Fore
SplineSet
304.999023438 302 m 2,0,-1
 290.662109375 302 l 1,1,-1
 237.61328125 303 l 2,2,3
 211.797851562 303 211.797851562 303 198.041992188 300.854492188 c 1,4,5
 162.629882812 190.35546875 162.629882812 190.35546875 145.565429688 110.966796875 c 0,6,7
 142.778320312 97.998046875 142.778320312 97.998046875 141.557617188 89.984375 c 0,8,9
 141.586914062 87.5146484375 141.586914062 87.5146484375 141.7890625 86.4091796875 c 0,10,11
 150.948242188 82.0810546875 150.948242188 82.0810546875 164.484375 80.3388671875 c 128,-1,12
 178.021484375 78.5966796875 178.021484375 78.5966796875 189.599609375 75.4365234375 c 128,-1,13
 201.177734375 72.275390625 201.177734375 72.275390625 207.84375 63.802734375 c 0,14,15
 216.82421875 52.38671875 216.82421875 52.38671875 216.82421875 34.712890625 c 128,-1,16
 216.82421875 17.0390625 216.82421875 17.0390625 207.044921875 5.5048828125 c 0,17,18
 197.265625 -7 197.265625 -7 184.564453125 -7 c 0,19,20
 159.9765625 -7 159.9765625 -7 135.602539062 -3.5 c 128,-1,21
 111.228515625 0 111.228515625 0 92.2158203125 0 c 0,22,23
 74.353515625 0 74.353515625 0 61.8134765625 -2.5 c 128,-1,24
 49.2734375 -5 49.2734375 -5 33 -5 c 0,25,26
 20.453125 -5 20.453125 -5 12.849609375 9.400390625 c 0,27,28
 6.599609375 20.4697265625 6.599609375 20.4697265625 6.599609375 34.2783203125 c 0,29,30
 6.599609375 60.515625 6.599609375 60.515625 21.0068359375 71.3232421875 c 0,31,32
 28.9169921875 77.2578125 28.9169921875 77.2578125 37.27734375 79.3173828125 c 128,-1,33
 45.63671875 81.3779296875 45.63671875 81.3779296875 53.2275390625 84.6875 c 0,34,35
 56.0458984375 85.9169921875 56.0458984375 85.9169921875 59.033203125 92.501953125 c 0,36,37
 60.18359375 94.6748046875 60.18359375 94.6748046875 63.7861328125 106.586914062 c 128,-1,38
 67.388671875 118.498046875 67.388671875 118.498046875 71.9189453125 132.711914062 c 128,-1,39
 76.4482421875 146.924804688 76.4482421875 146.924804688 80.01953125 160.725585938 c 128,-1,40
 83.58984375 174.525390625 83.58984375 174.525390625 92.271484375 203.76171875 c 0,41,42
 101.307617188 232.997070312 101.307617188 232.997070312 117.061523438 283.446289062 c 128,-1,43
 132.810546875 333.880859375 132.810546875 333.880859375 148.560546875 385.251953125 c 0,44,45
 239.318359375 673.475585938 239.318359375 673.475585938 257.356445312 731.684570312 c 0,46,47
 259.560546875 740.668945312 259.560546875 740.668945312 262.806640625 747.0078125 c 0,48,49
 269.971679688 761 269.971679688 761 284.520507812 761 c 128,-1,50
 299.069335938 761 299.069335938 761 307.315429688 745.181640625 c 0,51,52
 311.590820312 736.981445312 311.590820312 736.981445312 313.891601562 727.833007812 c 0,53,54
 331.021484375 673.833984375 331.021484375 673.833984375 348.530273438 617.4375 c 128,-1,55
 366.0390625 561.043945312 366.0390625 561.043945312 383.305664062 506.6171875 c 1,56,57
 446.241210938 292.805664062 446.241210938 292.805664062 517.180664062 97.4765625 c 0,58,59
 520.278320312 88.212890625 520.278320312 88.212890625 525.3046875 85.490234375 c 0,60,61
 535.104492188 80.181640625 535.104492188 80.181640625 545.6640625 77.4619140625 c 128,-1,62
 556.224609375 74.7412109375 556.224609375 74.7412109375 565.990234375 70.7060546875 c 128,-1,63
 575.756835938 66.6708984375 575.756835938 66.6708984375 581.032226562 53.5927734375 c 0,64,65
 584.759765625 44.3505859375 584.759765625 44.3505859375 584.759765625 31.2255859375 c 128,-1,66
 584.759765625 18.1005859375 584.759765625 18.1005859375 577.896484375 8.1923828125 c 0,67,68
 573.389648438 1.2333984375 573.389648438 1.2333984375 565.23828125 -2.8837890625 c 128,-1,69
 557.087890625 -7 557.087890625 -7 547.799804688 -7 c 2,70,-1
 539.879882812 -7 l 2,71,72
 522.340820312 -7 522.340820312 -7 506.500976562 -4 c 0,73,74
 489.541015625 -1 489.541015625 -1 468.62890625 -1 c 128,-1,75
 447.717773438 -1 447.717773438 -1 422.626953125 -4 c 128,-1,76
 397.536132812 -7 397.536132812 -7 370.952148438 -7 c 0,77,78
 358.217773438 -7 358.217773438 -7 347.940429688 4.46875 c 0,79,80
 335.825195312 16.94140625 335.825195312 16.94140625 335.825195312 35.08203125 c 128,-1,81
 335.825195312 53.22265625 335.825195312 53.22265625 345.952148438 63.37890625 c 0,82,83
 352.05859375 69.501953125 352.05859375 69.501953125 362.275390625 71.7685546875 c 128,-1,84
 372.4921875 74.03515625 372.4921875 74.03515625 383.817382812 74.8447265625 c 128,-1,85
 395.142578125 75.654296875 395.142578125 75.654296875 402.139648438 77.7060546875 c 1,86,87
 399.1796875 92.3623046875 399.1796875 92.3623046875 384.901367188 138.1171875 c 128,-1,88
 370.623046875 183.873046875 370.623046875 183.873046875 361.118164062 214.392578125 c 128,-1,89
 351.61328125 244.912109375 351.61328125 244.912109375 340.350585938 278.44921875 c 0,90,91
 336.706054688 287.854492188 336.706054688 287.854492188 335.15625 292.413085938 c 128,-1,92
 333.607421875 296.970703125 333.607421875 296.970703125 333.108398438 298.282226562 c 0,93,94
 327.034179688 302 327.034179688 302 304.999023438 302 c 2,0,-1
142.014648438 67.498046875 m 1,95,-1
 141.955078125 67.578125 l 1,96,-1
 142.014648438 67.498046875 l 1,95,-1
257.208984375 395.514648438 m 128,-1,98
 276.831054688 395.899414062 276.831054688 395.899414062 310.34375 395.979492188 c 1,99,100
 298.538085938 441.493164062 298.538085938 441.493164062 293.327148438 461.544921875 c 0,101,102
 286.552734375 487.61328125 286.552734375 487.61328125 271.561523438 547.362304688 c 1,103,104
 264.153320312 524.234375 264.153320312 524.234375 256.673828125 498.400390625 c 0,105,106
 240.856445312 443.759765625 240.856445312 443.759765625 226.04296875 395.033203125 c 1,107,97
 237.586914062 395.12890625 237.586914062 395.12890625 257.208984375 395.514648438 c 128,-1,98
EndSplineSet
Validated: 524289
Substitution2: "'c2sc' Versalien in Kapit+AOQA-lchen in Lateinisch Nachschlagetabelle 0 Subtabelle" uni1D00
EndChar

StartChar: B
Encoding: 66 66 51
Width: 531
Flags: W
LayerCount: 2
Fore
SplineSet
348.197265625 502.78515625 m 128,-1,1
 357.272460938 524.505859375 357.272460938 524.505859375 357.272460938 556.836914062 c 0,2,3
 357.272460938 608.396484375 357.272460938 608.396484375 331.759765625 634.698242188 c 128,-1,4
 306.248046875 661 306.248046875 661 264.311523438 661 c 2,5,-1
 253.982421875 661 l 2,6,7
 246.213867188 661 246.213867188 661 237.639648438 660.61328125 c 0,8,9
 220.396484375 659.8359375 220.396484375 659.8359375 211.43359375 651.3515625 c 0,10,11
 208.239257812 648.328125 208.239257812 648.328125 208.239257812 609.81640625 c 2,12,13
 208.239257812 517.057617188 208.239257812 517.057617188 208.239257812 441.583984375 c 1,14,15
 210.830078125 441 210.830078125 441 214.879882812 441 c 2,16,-1
 239.963867188 441 l 2,17,18
 294.663085938 441 294.663085938 441 324.182617188 467.586914062 c 0,19,0
 339.109375 481.030273438 339.109375 481.030273438 348.197265625 502.78515625 c 128,-1,1
364.405273438 121.649414062 m 128,-1,21
 392.685546875 158.297851562 392.685546875 158.297851562 392.685546875 218.709960938 c 0,22,23
 392.685546875 256.28125 392.685546875 256.28125 378.21875 285.953125 c 0,24,25
 366.94921875 310.821289062 366.94921875 310.821289062 350.727539062 324.375 c 0,26,27
 318.02734375 351.6953125 318.02734375 351.6953125 271.295898438 355.2109375 c 0,28,29
 247.512695312 357 247.512695312 357 223.732421875 357 c 2,30,-1
 211.190429688 357 l 2,31,32
 208.845703125 357 208.845703125 357 206.763671875 356.234375 c 1,33,34
 206.763671875 268.58203125 206.763671875 268.58203125 206.763671875 164.676757812 c 2,35,36
 206.763671875 144.309570312 206.763671875 144.309570312 209.166992188 122.999023438 c 0,37,38
 210.8359375 108.202148438 210.8359375 108.202148438 219.899414062 97.376953125 c 0,39,40
 231.62109375 85 231.62109375 85 274.640625 85 c 0,41,20
 336.123046875 85 336.123046875 85 364.405273438 121.649414062 c 128,-1,21
206.891601562 358.754882812 m 1,42,-1
 206.891601562 358.754882812 l 1,42,-1
37.3232421875 724.29296875 m 0,43,44
 49.1533203125 741.5 49.1533203125 741.5 86.0478515625 741.5 c 1,45,46
 102.75390625 715.75 102.75390625 715.75 121.180664062 740 c 1,47,48
 154.197265625 740 154.197265625 740 187.766601562 744.5 c 128,-1,49
 221.3359375 749 221.3359375 749 255.587890625 749 c 128,-1,50
 289.840820312 749 289.840820312 749 325.666015625 738.861328125 c 0,51,52
 361.491210938 729.374023438 361.491210938 729.374023438 392.9921875 707.579101562 c 0,53,54
 423.793945312 685.784179688 423.793945312 685.784179688 442.567382812 647.758789062 c 128,-1,55
 461.33984375 609.732421875 461.33984375 609.732421875 461.33984375 555.5703125 c 0,56,57
 461.33984375 491.88671875 461.33984375 491.88671875 432.982421875 450.002929688 c 0,58,59
 420.239257812 431.180664062 420.239257812 431.180664062 403.116210938 417.197265625 c 1,60,61
 444.477539062 392.665039062 444.477539062 392.665039062 470.162109375 348.102539062 c 0,62,63
 498.959960938 298.135742188 498.959960938 298.135742188 498.959960938 226.162109375 c 0,64,65
 498.959960938 167.233398438 498.959960938 167.233398438 483.370117188 123.55078125 c 128,-1,66
 467.78125 79.8671875 467.78125 79.8671875 441.9453125 51.6083984375 c 0,67,68
 415.904296875 23.349609375 415.904296875 23.349609375 378.727539062 9.8046875 c 0,69,70
 341.549804688 -4.6689453125 341.549804688 -4.6689453125 300.15234375 -5.9521484375 c 0,71,72
 293.59765625 -7 293.59765625 -7 292.642578125 -7 c 2,73,74
 292.642578125 -32 292.642578125 -32 66.66015625 -7 c 0,75,76
 57.974609375 -7 57.974609375 -7 46.400390625 -3.9765625 c 128,-1,77
 34.826171875 -0.953125 34.826171875 -0.953125 28.51171875 13.0693359375 c 0,78,79
 23.759765625 22.9267578125 23.759765625 22.9267578125 23.759765625 36.3623046875 c 0,80,81
 23.759765625 53.837890625 23.759765625 53.837890625 34.1875 63.986328125 c 0,82,83
 39.6630859375 69.3154296875 39.6630859375 69.3154296875 49.1103515625 71.8232421875 c 128,-1,84
 58.5576171875 74.3310546875 58.5576171875 74.3310546875 70.3037109375 76.9560546875 c 128,-1,85
 82.05078125 79.58203125 82.05078125 79.58203125 91.8916015625 85.154296875 c 0,86,87
 93.5908203125 86.1171875 93.5908203125 86.1171875 94.302734375 87.19921875 c 128,-1,88
 94.9765625 88.2255859375 94.9765625 88.2255859375 95.529296875 92.9228515625 c 0,89,90
 96.7939453125 114.713867188 96.7939453125 114.713867188 97.23828125 175.717773438 c 128,-1,91
 97.681640625 236.720703125 97.681640625 236.720703125 98.671875 293.696289062 c 0,92,93
 100.3203125 388.583007812 100.3203125 388.583007812 100.3203125 525.944335938 c 2,94,95
 100.3203125 561.880859375 100.3203125 561.880859375 100.3203125 624.981445312 c 2,96,97
 100.3203125 638.486328125 100.3203125 638.486328125 98.71875 644.53125 c 128,-1,98
 97.1171875 650.575195312 97.1171875 650.575195312 95.2958984375 652.508789062 c 128,-1,99
 93.474609375 654.443359375 93.474609375 654.443359375 87.0498046875 656.192382812 c 128,-1,100
 80.625 657.94140625 80.625 657.94140625 70.28125 660.53515625 c 0,101,102
 61.904296875 661.041015625 61.904296875 661.041015625 53.97265625 664.495117188 c 128,-1,103
 46.04296875 667.94921875 46.04296875 667.94921875 41.0283203125 672.208007812 c 0,104,105
 29.7001953125 681.974609375 29.7001953125 681.974609375 29.7001953125 697.954101562 c 128,-1,106
 29.7001953125 713.932617188 29.7001953125 713.932617188 37.3232421875 724.29296875 c 0,43,44
EndSplineSet
Validated: 524321
Substitution2: "'c2sc' Versalien in Kapit+AOQA-lchen in Lateinisch Nachschlagetabelle 0 Subtabelle" uni0299
EndChar

StartChar: C
Encoding: 67 67 52
Width: 557
Flags: W
LayerCount: 2
Fore
SplineSet
471.78515625 759.173828125 m 0,0,1
 482.889648438 776 482.889648438 776 499.620117188 776 c 0,2,3
 510.368164062 776 510.368164062 776 516.87890625 763.020507812 c 128,-1,4
 523.379882812 750.059570312 523.379882812 750.059570312 523.379882812 716 c 0,5,6
 523.379882812 700.77734375 523.379882812 700.77734375 522.389648438 685.27734375 c 128,-1,7
 521.400390625 669.77734375 521.400390625 669.77734375 521.400390625 651.15234375 c 0,8,9
 521.400390625 605.026367188 521.400390625 605.026367188 518.62109375 550.288085938 c 1,10,11
 516.157226562 533.491210938 516.157226562 533.491210938 511.491210938 525.244140625 c 0,12,13
 504.564453125 513 504.564453125 513 494.33984375 513 c 0,14,15
 489.376953125 513 489.376953125 513 487.029296875 514 c 128,-1,16
 484.682617188 515 484.682617188 515 484.440429688 515 c 0,17,18
 469.521484375 515 469.521484375 515 462.625976562 539.815429688 c 0,19,20
 459.466796875 551.18359375 459.466796875 551.18359375 457.254882812 564.611328125 c 0,21,22
 454.896484375 578.0390625 454.896484375 578.0390625 452.814453125 589.420898438 c 128,-1,23
 450.733398438 600.802734375 450.733398438 600.802734375 448.28515625 607.146484375 c 0,24,25
 427.37890625 637.426757812 427.37890625 637.426757812 396.671875 654.212890625 c 128,-1,26
 365.96484375 671 365.96484375 671 332.178710938 671 c 0,27,28
 284.927734375 671 284.927734375 671 252.328125 648.36328125 c 0,29,30
 189.049804688 604.423828125 189.049804688 604.423828125 167.741210938 495.91796875 c 0,31,32
 157.301757812 442.759765625 157.301757812 442.759765625 157.301757812 382.1953125 c 128,-1,33
 157.301757812 321.629882812 157.301757812 321.629882812 167.702148438 263.41796875 c 0,34,35
 189.068359375 143.825195312 189.068359375 143.825195312 256.869140625 91.1494140625 c 0,36,37
 290.526367188 65 290.526367188 65 340.227539062 65 c 0,38,39
 372.702148438 65 372.702148438 65 408.521484375 85.560546875 c 0,40,41
 443.38671875 105.573242188 443.38671875 105.573242188 462.673828125 139.04296875 c 0,42,43
 465.413085938 144.97265625 465.413085938 144.97265625 474.479492188 169.502929688 c 128,-1,44
 483.545898438 194.034179688 483.545898438 194.034179688 487.615234375 203.283203125 c 0,45,46
 496.73046875 224 496.73046875 224 509.317382812 224 c 128,-1,47
 521.904296875 224 521.904296875 224 529.715820312 214.53125 c 0,48,49
 539.219726562 203.010742188 539.219726562 203.010742188 539.219726562 180 c 0,50,51
 539.219726562 170.299804688 539.219726562 170.299804688 537.447265625 150.42578125 c 0,52,53
 533.936523438 111.061523438 533.936523438 111.061523438 525.974609375 71.2490234375 c 0,54,55
 521.157226562 47.1640625 521.157226562 47.1640625 514.48828125 38.25 c 0,56,57
 490.627929688 6.349609375 490.627929688 6.349609375 433.725585938 -11.4404296875 c 0,58,59
 408.955078125 -18.7314453125 408.955078125 -18.7314453125 382.702148438 -22.37109375 c 128,-1,60
 356.530273438 -26 356.530273438 -26 335.836914062 -26 c 0,61,62
 265.95703125 -26 265.95703125 -26 209.37109375 9.7333984375 c 0,63,64
 152.78515625 43.150390625 152.78515625 43.150390625 114.182617188 99.46484375 c 0,65,66
 78.6591796875 155.779296875 78.6591796875 155.779296875 59.458984375 229.4765625 c 128,-1,67
 40.259765625 303.174804688 40.259765625 303.174804688 40.259765625 387.549804688 c 128,-1,68
 40.259765625 471.924804688 40.259765625 471.924804688 60.34375 540.822265625 c 128,-1,69
 80.4287109375 609.719726562 80.4287109375 609.719726562 115.633789062 658.091796875 c 0,70,71
 154.041992188 706.462890625 154.041992188 706.462890625 208.248046875 730.884765625 c 0,72,73
 262.453125 757 262.453125 757 326.325195312 757 c 0,74,75
 381.268554688 757 381.268554688 757 432.4765625 740.255859375 c 0,76,77
 439.005859375 738.024414062 439.005859375 738.024414062 445.616210938 735.013671875 c 128,-1,78
 452.2265625 732.001953125 452.2265625 732.001953125 457.279296875 729.987304688 c 0,79,80
 458.122070312 731.858398438 458.122070312 731.858398438 458.883789062 733.876953125 c 0,81,82
 463.943359375 747.29296875 463.943359375 747.29296875 471.78515625 759.173828125 c 0,0,1
EndSplineSet
Validated: 524289
Substitution2: "'c2sc' Versalien in Kapit+AOQA-lchen in Lateinisch Nachschlagetabelle 0 Subtabelle" uni1D04
EndChar

StartChar: D
Encoding: 68 68 53
Width: 628
Flags: W
LayerCount: 2
Fore
SplineSet
208.146484375 652.765625 m 0,0,1
 205.586914062 641.16015625 205.586914062 641.16015625 205.586914062 623.73828125 c 2,2,3
 205.946289062 558.215820312 205.946289062 558.215820312 206.305664062 524.149414062 c 2,4,5
 206.305664062 441.028320312 206.305664062 441.028320312 205.586914062 358.959960938 c 128,-1,6
 204.868164062 276.891601562 204.868164062 276.891601562 204.868164062 194.03125 c 0,7,8
 204.868164062 119.40625 204.868164062 119.40625 218.5859375 95.720703125 c 0,9,10
 224.674804688 85.20703125 224.674804688 85.20703125 234.672851562 80.603515625 c 128,-1,11
 244.670898438 76 244.670898438 76 260.943359375 76 c 0,12,13
 308.907226562 76 308.907226562 76 348.59375 98.482421875 c 128,-1,14
 388.270507812 120.958984375 388.270507812 120.958984375 416.370117188 160.39453125 c 128,-1,15
 444.471679688 199.830078125 444.471679688 199.830078125 460.186523438 253.436523438 c 128,-1,16
 475.900390625 307.043945312 475.900390625 307.043945312 475.900390625 368.311523438 c 0,17,18
 475.900390625 475.22265625 475.900390625 475.22265625 434.135742188 549.625 c 128,-1,19
 392.370117188 624.02734375 392.370117188 624.02734375 311.43359375 654.1015625 c 0,20,21
 296.091796875 659.46484375 296.091796875 659.46484375 281.119140625 663.732421875 c 128,-1,22
 266.145507812 668 266.145507812 668 251.59765625 668 c 2,23,-1
 232.2109375 668 l 2,24,25
 231.46875 667.883789062 231.46875 667.883789062 230.251953125 667.787109375 c 0,26,27
 220.978515625 667.053710938 220.978515625 667.053710938 212.28125 659.245117188 c 0,28,29
 209.624023438 656.859375 209.624023438 656.859375 208.146484375 652.765625 c 0,0,1
91.94140625 648.357421875 m 0,30,31
 83.8876953125 651 83.8876953125 651 75.900390625 651 c 2,32,33
 65.009765625 625.5 65.009765625 625.5 54.1201171875 650 c 2,34,35
 42.375 650 42.375 650 32.6044921875 661.46875 c 0,36,37
 23.8623046875 672.06640625 23.8623046875 672.06640625 23.8623046875 689.520507812 c 0,38,39
 23.8623046875 693.497070312 23.8623046875 693.497070312 24.373046875 697.627929688 c 0,40,41
 26.2998046875 713.1953125 26.2998046875 713.1953125 32.5556640625 722.673828125 c 0,42,43
 36.4921875 728.639648438 36.4921875 728.639648438 42.6689453125 731.758789062 c 0,44,45
 56.6982421875 738.844726562 56.6982421875 738.844726562 83.8408203125 742.389648438 c 0,46,47
 111.522460938 745.935546875 111.522460938 745.935546875 135.844726562 747.955078125 c 128,-1,48
 160.17578125 749.975585938 160.17578125 749.975585938 182.7109375 750.986328125 c 0,49,50
 227.578125 753 227.578125 753 248.721679688 753 c 0,51,52
 324.865234375 753 324.865234375 753 388.609375 724.668945312 c 0,53,54
 452.353515625 698.208984375 452.353515625 698.208984375 498.7890625 647.854492188 c 0,55,56
 542.143554688 597.500976562 542.143554688 597.500976562 565.431640625 524.6015625 c 128,-1,57
 588.719726562 451.702148438 588.719726562 451.702148438 588.719726562 362.174804688 c 128,-1,58
 588.719726562 272.6484375 588.719726562 272.6484375 562.485351562 203.918945312 c 128,-1,59
 536.250976562 135.189453125 536.250976562 135.189453125 492.530273438 88.4873046875 c 0,60,61
 446.254882812 41.78515625 446.254882812 41.78515625 387.333984375 17.7431640625 c 0,62,63
 328.4140625 -8 328.4140625 -8 267.4140625 -8 c 0,64,65
 248.473632812 -8 248.473632812 -8 237.396484375 -6.97265625 c 2,66,67
 215.693359375 20.0400390625 215.693359375 20.0400390625 193.990234375 -2.947265625 c 2,68,69
 183.430664062 -2 183.430664062 -2 159.5703125 -2 c 128,-1,70
 135.709960938 -2 135.709960938 -2 107.3125 -4.5 c 0,71,72
 81.0498046875 -7 81.0498046875 -7 52.1396484375 -7 c 0,73,74
 40.9130859375 -7 40.9130859375 -7 34.4833984375 5.177734375 c 0,75,76
 29.7001953125 13.5859375 29.7001953125 13.5859375 29.7001953125 25.431640625 c 0,77,78
 29.7001953125 44.318359375 29.7001953125 44.318359375 38.1650390625 56.22265625 c 0,79,80
 48.9306640625 71.3603515625 48.9306640625 71.3603515625 67.6845703125 74.4638671875 c 0,81,82
 68.9443359375 74.671875 68.9443359375 74.671875 78.345703125 77.4765625 c 128,-1,83
 87.74609375 80.2802734375 87.74609375 80.2802734375 91.9208984375 85.259765625 c 0,84,85
 96.2822265625 98.0830078125 96.2822265625 98.0830078125 97.3642578125 139.168945312 c 0,86,87
 97.693359375 150.422851562 97.693359375 150.422851562 98.3486328125 172.260742188 c 0,88,89
 99.66015625 215.907226562 99.66015625 215.907226562 99.66015625 316.869140625 c 2,90,91
 99.66015625 420.618164062 99.66015625 420.618164062 99.66015625 538.694335938 c 2,92,93
 99.66015625 577.625976562 99.66015625 577.625976562 98.376953125 599.279296875 c 0,94,95
 96.14453125 636.948242188 96.14453125 636.948242188 94.873046875 645.115234375 c 0,96,97
 93.9423828125 647.701171875 93.9423828125 647.701171875 91.94140625 648.357421875 c 0,30,31
EndSplineSet
Validated: 524321
Substitution2: "'c2sc' Versalien in Kapit+AOQA-lchen in Lateinisch Nachschlagetabelle 0 Subtabelle" uni1D05
EndChar

